<svg xmlns="http://www.w3.org/2000/svg" width="264.485" height="471.732" viewBox="0 0 264.485 471.732">
  <text id="Costas" transform="translate(144 14)" font-size="14" font-family="Montserrat-SemiBold, Montserrat" font-weight="600"><tspan x="0" y="0">Costas</tspan></text>
  <g id="Group_1628" data-name="Group 1628" transform="translate(-20 -213)">
    <text id="Direito" transform="translate(277 283)" font-size="10" font-family="Montserrat-Medium, Montserrat" font-weight="500"><tspan x="-34.25" y="0">Direito</tspan></text>
    <text id="Esquerdo" transform="translate(99 283)" font-size="10" font-family="Montserrat-Medium, Montserrat" font-weight="500"><tspan x="0" y="0">Esquerdo</tspan></text>
  </g>
  <g id="Group_1631" data-name="Group 1631" transform="translate(-272 200)">
    <text id="Frente" transform="translate(292 264)" font-size="12" font-family="Montserrat-Medium, Montserrat" font-weight="500"><tspan x="0" y="0">Frente</tspan></text>
    <g id="girar-objeto" transform="translate(296 208.275)">
      <path id="Path_2878" data-name="Path 2878" d="M31.084,26.057a.511.511,0,0,0-.51.51c0,3.327-6.768,6.136-14.778,6.137S1.017,29.893,1.017,26.567c0-1.536,1.521-3.08,4.171-4.232a27.23,27.23,0,0,1,10.429-1.9L13.8,22.25a.51.51,0,0,0,.722.72l3.05-3.047-3.05-3.05a.509.509,0,0,0-.72.72l1.823,1.823A28.321,28.321,0,0,0,4.784,21.4C1.7,22.742,0,24.578,0,26.568c0,4.014,6.94,7.156,15.8,7.156s15.8-3.146,15.8-7.158A.514.514,0,0,0,31.084,26.057Z" transform="translate(0 0)"/>
    </g>
  </g>
  <g id="Group_1637" data-name="Group 1637" transform="translate(-41 -223)">
    <g id="Group_1627" data-name="Group 1627" transform="translate(113 256)">
      <path id="Path_2639" data-name="Path 2639" d="M3123.224,817.224c7.162,6.934,29.007,13.3,34.934,17.336a20.122,20.122,0,0,1,6.75,8.734,37.039,37.039,0,0,1,2.284,9.292s-.386,43.585,1.957,50.058a66.3,66.3,0,0,1,4.7,14.006c2,20.389,7.748,54.035,7.748,54.035s18.583,10.611,20.867,14.149-7.208,2.027-11.727,0,6.926,22.949,6.206,26.845-7.6-16.183-9.51-14.841,4.627,20.174,1.858,20.207-5.77-17.994-7.694-17.994,2.31,16.794,0,17.994-4.667-17.139-6.222-17.994,1.625,14.523,0,14.575-9.423-30.979-8.21-37.412c.6-3.2-8.2-19.391-13.522-35.787a193.677,193.677,0,0,1-7.291-33.32s-.164-21.7,4.9-36.857" transform="translate(-3010.828 -749.181)" fill="none" stroke="#000" stroke-width="1"/>
      <path id="Path_2640" data-name="Path 2640" d="M2210.821,324.585c-2.079,1.959-4.2,47.3-.478,55.494s5.373,34.138,5.373,34.138a257.8,257.8,0,0,1-1.9,27.378c-1.8,14.967-5.634,33.321-7.419,48.574-1.76,15.051-1.5,27.1-.509,29.424,1.855,4.354-4.24,32.277-7.541,53.544a146.55,146.55,0,0,0-1.75,24.518,7.633,7.633,0,0,0,0,4.151c.6,2.6,17.253,5.428,20.487,9.275s-7.55,6.111-7.55,6.111-22.9,4.625-26.834,4.025-4.019-1.357-4.559-3.393c-.2-.177-.632-13.57,1.4-20.168,1.919-6.8-3.962-61.25-3.066-69.509s2.384-19.068,2.384-19.068l-8.446-87.307s-7.917,97.641-7.775,97.821-.093-.548,0,0c.555,3.281,3.567,4.163,3.2,15.375-4.757,23.594-4.791,62.688-4.791,62.688s.187,2.795.9,7.681a100.153,100.153,0,0,1,.693,11.856c-.142,2.066-4.04,4.025-8.634,4.025-8.06,0-23.606-4.025-23.606-4.025s-5.935-2.872-6.924-4.822,2.969-2.975,2.969-2.975l8.177-2.315s9.719-.834,9.423-10.571c1.2-14.257-4.963-37.146-7.5-54.354a171.316,171.316,0,0,1-1.824-21.1s1.3-11.909,0-30.59a376.784,376.784,0,0,1-7.624-45.859c-1.253-13.358-1.717-25.7-2.022-29.362-.725-8.7,4.576-32.857,5.444-36.436s1.94-29.918,2.451-36.625-6.45-37.635-7.063-38.045,6.57,32.178,4.612,36.4c-.36.777.1,7.054-1.073,13.324a122.313,122.313,0,0,1-4.757,17.023s-12.989,35.928-14.318,38.962a1.552,1.552,0,0,1-.2.36c.223,2.948-5.507,38.71-8.083,37.781s1.666-15.124,0-14.279-3.589,18.289-6.663,17.661,1.814-16.661,0-16.661-4.393,15.033-7.256,16.661,3.053-18.621,1.03-19.467S2083.342,449,2080.08,448s8.453-21.98,6.77-26.718-12.068,2.684-12.336-1.084,20.279-14.554,20.279-14.554l4.877-24.085,2.5-26.294,4.412-17.575s3.369-28.847,3.923-33.6-7.568-16.248,5.057-31.888c9.691-12.005,20.568-10.8,26.555-14.422.025-.014,10.562-1.855,11.628-6.35,3.738-15.756,1.109-10.993.654-14.961a25.473,25.473,0,0,0-1.6-4.393,70.139,70.139,0,0,1-5.953-14.293c-1.257-4.832.821-4.393.928-5.034,1.06-6.332-2.614-29.279,21.564-29.69,10.8-.183,17.675,4.684,20.7,10.755,3.49,7,2.232,15.422,2.2,16.458,0,.042,0,.08,0,.08s2.867,1.854,2.222,6.58-4.8,12.326-4.8,12.326l-4.124,9.73s-.261,9.484,1.339,12.058" transform="translate(-2074.511 -183.052)" fill="none" stroke="#000" stroke-linecap="round" stroke-width="1"/>
      <path id="Path_2742" data-name="Path 2742" d="M13373.553-4702.079s2.766-2.111,8.674-2.246c3.771-.085,8.768-.29,15.414,4.491" transform="translate(-13341.871 4857.835)" fill="none" stroke="#000" stroke-width="1"/>
      <path id="Path_2743" data-name="Path 2743" d="M13414.725-5014.084s12.656-1.245,15.16.415" transform="translate(-13378.668 5134.958)" fill="none" stroke="#000" stroke-linecap="round" stroke-width="1"/>
      <path id="Path_2746" data-name="Path 2746" d="M13826.563-5536.067h0a44.089,44.089,0,0,0,16.643,2.573c3.885-.148,10.314-.772,13.361-2.573" transform="translate(-13745.939 5594.365)" fill="none" stroke="#000" stroke-width="1"/>
      <path id="Path_2747" data-name="Path 2747" d="M13617.883-5412.238h73.613" transform="translate(-13559.905 5489.637)" fill="none" stroke="#000" stroke-width="1"/>
      <path id="Path_2748" data-name="Path 2748" d="M13845.085-5412.237v163.624" transform="translate(-13763.207 5490.691)" fill="none" stroke="#000" stroke-width="1"/>
      <path id="Path_2749" data-name="Path 2749" d="M13845.085-5412.237v163.624" transform="translate(-13733.485 5490.691)" fill="none" stroke="#000" stroke-width="1"/>
      <path id="Path_2750" data-name="Path 2750" d="M13836.084-4743.753" transform="translate(-13755.166 4893.024)" fill="#ff5124" stroke="#000" stroke-width="1"/>
      <path id="Path_2751" data-name="Path 2751" d="M13600.485-4860.808s33.4-7.148,39.793-23.917" transform="translate(-13544.541 5000.499)" fill="none" stroke="#000" stroke-linecap="round" stroke-width="1"/>
      <path id="Path_2752" data-name="Path 2752" d="M13661.143-4862.793s-33.211-7.067-39.7-23.78c-.006-.016-.02-.05-.033-.084" transform="translate(-13525.334 5002.543)" fill="none" stroke="#000" stroke-linecap="round" stroke-width="1"/>
      <path id="Path_2753" data-name="Path 2753" d="M13596.859-4330.139s13.693-6.294,26.43-.466" transform="translate(-13541.352 4527.71)" fill="none" stroke="#000" stroke-width="1"/>
      <path id="Path_2754" data-name="Path 2754" d="M13767.438-4329.9s-7.125-5.828-24.822-1.954" transform="translate(-13631.459 4528.762)" fill="none" stroke="#000" stroke-width="1"/>
      <path id="Path_2755" data-name="Path 2755" d="M13620.857-4736.1s17.178-3.235,23.721-9.042" transform="translate(-13562.8 4903.878)" fill="none" stroke="#000" stroke-width="1"/>
      <path id="Path_2756" data-name="Path 2756" d="M13642.933-4739.808s-15.365-3.44-21.916-9.247" transform="translate(-13509.408 4907.378)" fill="none" stroke="#000" stroke-width="1"/>
      <path id="Path_2757" data-name="Path 2757" d="M13592.464-3977.9s-22.475,17.017-45.178-8.323" transform="translate(-13497.003 4216.256)" fill="none" stroke="#000" stroke-width="1"/>
      <path id="Path_2758" data-name="Path 2758" d="M13545.066-3977.887s22.352,17.006,45.057-8.333" transform="translate(-13449.732 4216.256)" fill="none" stroke="#000" stroke-width="1"/>
      <path id="Path_2759" data-name="Path 2759" d="M13639.308-3258.965s7.723,8.979,29.973.212" transform="translate(-13579.257 3566.436)" fill="none" stroke="#000" stroke-width="1"/>
      <path id="Path_2760" data-name="Path 2760" d="M13667.892-3256.658s-6.334,8.472-28.584-.295" transform="translate(-13536.479 3564.638)" fill="none" stroke="#000" stroke-width="1"/>
      <path id="Path_2761" data-name="Path 2761" d="M13639.308-2989.854s8.088-3.385,27.574-1.956" transform="translate(-13579.266 3328.046)" fill="none" stroke="#000" stroke-width="1"/>
      <path id="Path_2762" data-name="Path 2762" d="M13667.638-2990.016s-8.844-3.289-28.33-1.861" transform="translate(-13536.374 3328.112)" fill="none" stroke="#000" stroke-width="1"/>
      <path id="Path_2763" data-name="Path 2763" d="M13726.866-2261.968s8.846,4.025,16.557,1.368" transform="translate(-13657.529 2675.833)" fill="none" stroke="#000" stroke-width="1"/>
      <path id="Path_2764" data-name="Path 2764" d="M14057.146-2251.2s8.666,3.107,17.143,0" transform="translate(-13952.59 2666.2)" fill="none" stroke="#000" stroke-width="1"/>
      <path id="Path_2765" data-name="Path 2765" d="M14541.8-4054.93s8.723,1.846,14.375-4.281" transform="translate(-14385.396 4281.427)" fill="none" stroke="#000" stroke-width="1"/>
      <path id="Path_2766" data-name="Path 2766" d="M14347.3-4697.107s13.469-5.316,22.688-2.6" transform="translate(-14211.764 4854.369)" fill="none" stroke="#000" stroke-width="1"/>
      <path id="Path_2767" data-name="Path 2767" d="M14403.67-5013.775s-12-1.594-16.008.317" transform="translate(-14247.875 5134.838)" fill="none" stroke="#000" stroke-width="1"/>
      <path id="Path_2877" data-name="Path 2877" d="M2266.486,2274.089a26.561,26.561,0,0,1,4.469,1.89,37.625,37.625,0,0,0,10.94,3.5" transform="translate(-2246.735 -2053.436)" fill="none" stroke="#000" stroke-width="1"/>
    </g>
    <text id="_17" data-name="17" transform="translate(209 296)" font-size="12" font-family="Helvetica"><tspan x="-6.674" y="0">17</tspan></text>
    <text id="_18" data-name="18" transform="translate(209 329)" font-size="11" font-family="Helvetica"><tspan x="-6.118" y="0">18</tspan></text>
    <text id="_19" data-name="19" transform="translate(175 363)" font-size="11" font-family="Helvetica"><tspan x="-6.118" y="0">19</tspan></text>
    <text id="_22" data-name="22" transform="translate(156 399)" font-size="11" font-family="Helvetica"><tspan x="-6.118" y="0">22</tspan></text>
    <text id="_42" data-name="42" transform="translate(150 444)" font-size="11" font-family="Helvetica"><tspan x="-6.118" y="0">42</tspan></text>
    <text id="_27" data-name="27" transform="translate(182 438)" font-size="11" font-family="Helvetica"><tspan x="-6.118" y="0">27</tspan></text>
    <text id="_29" data-name="29" transform="translate(179 477)" font-size="11" font-family="Helvetica"><tspan x="-6.118" y="0">29</tspan></text>
    <text id="_32" data-name="32" transform="translate(185 535)" font-size="11" font-family="Helvetica"><tspan x="-6.118" y="0">32</tspan></text>
    <text id="_44" data-name="44" transform="translate(188 584)" font-size="11" font-family="Helvetica"><tspan x="-6.118" y="0">44</tspan></text>
    <text id="_46" data-name="46" transform="translate(188 625)" font-size="11" font-family="Helvetica"><tspan x="-6.118" y="0">46</tspan></text>
    <text id="_48" data-name="48" transform="translate(186 688)" font-size="11" font-family="Helvetica"><tspan x="-6.118" y="0">48</tspan></text>
    <text id="_49" data-name="49" transform="translate(228 688)" font-size="11" font-family="Helvetica"><tspan x="-6.118" y="0">49</tspan></text>
    <text id="_47" data-name="47" transform="translate(228 625)" font-size="12" font-family="Helvetica"><tspan x="-6.674" y="0">47</tspan></text>
    <text id="_33" data-name="33" transform="translate(232 535)" font-size="11" font-family="Helvetica"><tspan x="-6.118" y="0">33</tspan></text>
    <text id="_45" data-name="45" transform="translate(230 584)" font-size="11" font-family="Helvetica"><tspan x="-6.118" y="0">45</tspan></text>
    <text id="_31" data-name="31" transform="translate(239 477)" font-size="12" font-family="Helvetica"><tspan x="-6.674" y="0">31</tspan></text>
    <text id="_53" data-name="53" transform="translate(282 496)" font-size="11" font-family="Helvetica"><tspan x="-6.118" y="0">53</tspan></text>
    <text id="_52" data-name="52" transform="translate(136 496)" font-size="11" font-family="Helvetica"><tspan x="-6.118" y="0">52</tspan></text>
    <text id="_30" data-name="30" transform="translate(209 469)" font-size="11" font-family="Helvetica"><tspan x="-6.118" y="0">30</tspan></text>
    <text id="_28" data-name="28" transform="translate(236 442)" font-size="11" font-family="Helvetica"><tspan x="-6.118" y="0">28</tspan></text>
    <text id="_43" data-name="43" transform="translate(266 438)" font-size="11" font-family="Helvetica"><tspan x="-6.118" y="0">43</tspan></text>
    <text id="_23" data-name="23" transform="translate(182 410)" font-size="11" font-family="Helvetica"><tspan x="-6.118" y="0">23</tspan></text>
    <text id="_24" data-name="24" transform="translate(209 408)" font-size="11" font-family="Helvetica"><tspan x="-6.118" y="0">24</tspan></text>
    <text id="_25" data-name="25" transform="translate(236 410)" font-size="11" font-family="Helvetica"><tspan x="-6.118" y="0">25</tspan></text>
    <text id="_26" data-name="26" transform="translate(259 400)" font-size="11" font-family="Helvetica"><tspan x="-6.118" y="0">26</tspan></text>
    <text id="_20" data-name="20" transform="translate(209 357)" font-size="10" font-family="Helvetica"><tspan x="-5.562" y="0">20</tspan></text>
    <text id="_21" data-name="21" transform="translate(244 363)" font-size="11" font-family="Helvetica"><tspan x="-6.118" y="0">21</tspan></text>
    <path id="Path_2879" data-name="Path 2879" d="M6069.658,197.78s8.133,2.581,15.32,2.581a56.745,56.745,0,0,0,14.575-2.294" transform="translate(-5874.851 245.562)" fill="none" stroke="#000" stroke-width="1"/>
  </g>
  <g id="Group_1006" data-name="Group 1006" transform="translate(0 141.816)">
    <rect id="Rectangle_1922" data-name="Rectangle 1922" width="18" height="18" rx="4" transform="translate(0 0.184)" fill="#44afab"/>
  </g>
  <g id="Group_1629" data-name="Group 1629" transform="translate(0 90)">
    <rect id="Rectangle_1922-2" data-name="Rectangle 1922" width="18" height="18" rx="4" fill="#f66569"/>
  </g>
  <g id="Group_1630" data-name="Group 1630" transform="translate(0 115.908)">
    <rect id="Rectangle_1922-3" data-name="Rectangle 1922" width="18" height="18" rx="4" transform="translate(0 0.092)" fill="#f6f665"/>
  </g>
  <text id="Dor_forte" data-name="Dor forte" transform="translate(24 102)" font-size="10" font-family="Montserrat-Medium, Montserrat" font-weight="500"><tspan x="0" y="0">Dor forte</tspan></text>
  <text id="Dor_moderada" data-name="Dor moderada" transform="translate(24 128)" font-size="10" font-family="Montserrat-Medium, Montserrat" font-weight="500"><tspan x="0" y="0">Dor moderada</tspan></text>
  <text id="Dor_leve" data-name="Dor leve" transform="translate(24 154)" font-size="10" font-family="Montserrat-Medium, Montserrat" font-weight="500"><tspan x="0" y="0">Dor leve</tspan></text>
</svg>
