<svg xmlns="http://www.w3.org/2000/svg" width="148.723" height="342.004" viewBox="0 0 148.723 342.004">
  <g id="Group_1646" data-name="Group 1646" transform="translate(-113.5 -255.499)">
    <g id="Group_1626" data-name="Group 1626" transform="translate(114 256)">
      <path id="Path_2769" data-name="Path 2769" d="M3123.225,817.224c5.557,5.38,22.509,10.324,27.108,13.453a15.612,15.612,0,0,1,5.238,6.778,28.734,28.734,0,0,1,1.772,7.211s-.3,33.821,1.519,38.844a51.421,51.421,0,0,1,3.647,10.868c1.552,15.821,6.012,41.93,6.012,41.93s14.42,8.234,16.192,10.979-5.594,1.573-9.1,0,5.96,17.131,4.815,20.832-5.9-12.558-7.379-11.517,3.591,15.654,1.442,15.68-4.478-13.963-5.971-13.963,1.793,13.032,0,13.963-3.621-13.3-4.828-13.963,3.354,15.375,0,11.31-7.312-24.039-6.371-29.031c.467-2.481-6.362-15.048-10.494-27.771a150.318,150.318,0,0,1-5.657-25.856s-.126-16.841,3.8-28.6" transform="translate(-3037.261 -765.241)" fill="none" stroke="#000" stroke-width="1"/>
      <path id="Path_2768" data-name="Path 2768" d="M2179.091,291.955c-1.6,1.507-3.219,36.392-.367,42.7s4.122,26.268,4.122,26.268a198.989,198.989,0,0,1-1.455,21.066c-1.384,11.517-4.322,25.639-5.691,37.375-1.351,11.581-1.15,20.853-.391,22.641,1.423,3.35-3.253,24.836-5.786,41.2a113.033,113.033,0,0,0-1.342,18.866,5.883,5.883,0,0,0,0,3.194c.461,2,5.515,4.73,8,7.69,1.044,1.246,3.96,3.921,2.062,6.13-2.6,3.022-3.535,4.682-8.716,4.961-2.5.135-8.914-1.981-9.74-6.585s-4.514-5.221-4.689-5.882a15.348,15.348,0,0,1,0-9.508c1.472-5.231-3.04-47.129-2.353-53.484s1.829-14.672,1.829-14.672l-6.48-67.179s-6.074,75.13-5.966,75.269-.071-.422,0,0c.426,2.524,2.737,3.2,2.456,11.831-3.65,18.154-1.393,47.352-1.393,47.352a45.143,45.143,0,0,0,.549,5.676c.38,2.621.89,3.619.781,3.812-.108,1.59-1.6,1.194-4.515,4.447s-2.878,7.568-7.161,8.564-15.333-1.406-13.125-6.4,11.5-7.721,11.27-15.213c.921-10.97-6.936-29.465-8.882-42.705a132.221,132.221,0,0,1-1.4-16.232,146.714,146.714,0,0,0,0-23.537,290.816,290.816,0,0,1-5.849-35.286c-.961-10.278-1.317-19.773-1.551-22.593-.557-6.7,3.51-25.282,4.176-28.036s1.489-23.021,1.881-28.181-4.949-28.958-5.419-29.274,5.04,24.759,3.538,28.012c-.276.6.075,5.428-.823,10.252a94.294,94.294,0,0,1-3.65,13.1s-9.965,27.645-10.985,29.979a1.185,1.185,0,0,1-.15.277c.171,2.268-4.225,29.785-6.2,29.07s1.278-11.637,0-10.987-2.753,14.073-5.112,13.589,1.392-12.82,0-12.82-3.371,11.567-5.566,12.82,2.342-14.328.79-14.979-4.5,13.147-7,12.377,6.486-16.913,5.194-20.559-9.259,2.065-9.465-.834,15.559-11.2,15.559-11.2l3.742-18.533,1.915-20.232,3.385-13.523s2.585-22.2,3.01-25.854-5.807-12.5,3.88-24.536c7.435-9.237,15.78-8.307,20.374-11.1.02-.011,8.1-1.427,8.921-4.886,2.868-12.124.851-8.458.5-11.512a19.7,19.7,0,0,0-1.227-3.381,54.049,54.049,0,0,1-4.567-11c-.964-3.718.63-3.38.712-3.873.813-4.872-2.005-22.529,16.544-22.845,8.289-.141,13.561,3.6,15.883,8.276,2.678,5.388,1.712,11.866,1.689,12.663,0,.032,0,.061,0,.061s2.2,1.426,1.7,5.063-3.683,9.484-3.683,9.484l-3.165,7.487s-.2,7.3,1.027,9.278" transform="translate(-2074.511 -183.052)" fill="none" stroke="#000" stroke-linecap="round" stroke-width="1"/>
      <path id="Path_2789" data-name="Path 2789" d="M2266.486,2274.089a20.605,20.605,0,0,1,3.468,1.467,29.193,29.193,0,0,0,8.49,2.716" transform="translate(-2250.832 -2104.407)" fill="none" stroke="#000" stroke-width="1"/>
      <path id="Path_2788" data-name="Path 2788" d="M13373.553-4702.589s2.146-1.638,6.73-1.742a17.2,17.2,0,0,1,11.961,3.484" transform="translate(-13349.286 4822.44)" fill="none" stroke="#000" stroke-width="1"/>
      <path id="Path_2787" data-name="Path 2787" d="M13414.725-5014.185s9.821-.966,11.765.323" transform="translate(-13387.084 5107.193)" fill="none" stroke="#000" stroke-linecap="round" stroke-width="1"/>
      <path id="Path_2744" data-name="Path 2744" d="M13620.348-5515.117s14.854,38.361-18.006,54.738" transform="translate(-13559.649 5567.974)" fill="none" stroke="#000" stroke-width="1"/>
      <path id="Path_2745" data-name="Path 2745" d="M13604.977-5520.493s-14.217,38.873,18.641,55.25" transform="translate(-13518.684 5572.91)" fill="none" stroke="#000" stroke-width="1"/>
      <path id="Path_2790" data-name="Path 2790" d="M14541.8-4055.888s6.767,1.433,11.154-3.322" transform="translate(-14421.77 4230.18)" fill="none" stroke="#000" stroke-width="1"/>
      <path id="Path_2791" data-name="Path 2791" d="M14347.3-4697.862s10.451-4.125,17.605-2.015" transform="translate(-14243.212 4818.882)" fill="none" stroke="#000" stroke-width="1"/>
      <path id="Path_2792" data-name="Path 2792" d="M14400.085-5013.915s-9.313-1.237-12.423.246" transform="translate(-14280.268 5107.07)" fill="none" stroke="#000" stroke-width="1"/>
      <path id="Path_2770" data-name="Path 2770" d="M11853.568-5512.56s10.1,5.724,25.09-.631" transform="translate(-11792.659 5564.977)" fill="none" stroke="#000" stroke-width="1"/>
      <path id="Path_2771" data-name="Path 2771" d="M0,0A171.254,171.254,0,0,0,20.895,1.537,160.658,160.658,0,0,0,41.4.082" transform="translate(53.116 100.287)" fill="none" stroke="#000" stroke-width="1"/>
      <path id="Path_2774" data-name="Path 2774" d="M-96.243-2.485s20.02,1.079,30.508,1.174,27.558-2.312,27.558-2.312" transform="translate(140.568 138.122)" fill="none" stroke="#000" stroke-width="1"/>
      <path id="Path_2775" data-name="Path 2775" d="M-124.348-2.649S-101.093-.955-90.168-.84c9.931.1,25.527-2.281,28.307-2.719l.4-.064" transform="translate(166.369 157.16)" fill="none" stroke="#000" stroke-width="1"/>
      <path id="Path_2776" data-name="Path 2776" d="M-108.021.656S-86.1,2.685-75.18,2.8C-65.249,2.9-48.147.342-48.147.342" transform="translate(151.545 144.831)" fill="none" stroke="#000" stroke-width="1"/>
      <path id="Path_2772" data-name="Path 2772" d="M12021.219-4903.156s14.374,31.733,27.787,32.575" transform="translate(-11946.567 5004.946)" fill="none" stroke="#000" stroke-width="1"/>
      <path id="Path_2773" data-name="Path 2773" d="M12024.38-4912.5s-16.708,32.9-30.12,33.744" transform="translate(-11949.935 5014.262)" fill="none" stroke="#000" stroke-width="1"/>
      <path id="Path_2777" data-name="Path 2777" d="M12021.218-4475.882v19.538" transform="translate(-11946.566 4612.696)" fill="none" stroke="#000" stroke-width="1"/>
      <path id="Path_2778" data-name="Path 2778" d="M11623.152-4268.772s16.692,9.14,19.8,15.238,7.746,13.342,11.927,13.375,14.055-13.375,14.055-13.375l17-16.479" transform="translate(-11581.131 4423.703)" fill="none" stroke="#000" stroke-width="1"/>
      <path id="Path_2779" data-name="Path 2779" d="M11678.046-3328.221s7.848.667,13.554.7a49.674,49.674,0,0,0,8.93-.609" transform="translate(-11631.525 3572.225)" fill="none" stroke="#000" stroke-width="1"/>
      <path id="Path_2781" data-name="Path 2781" d="M11678.046-3333.591s7.848.666,13.554.7a37.9,37.9,0,0,0,9.822-1.175" transform="translate(-11631.525 3600.383)" fill="none" stroke="#000" stroke-width="1"/>
      <path id="Path_2780" data-name="Path 2780" d="M11685.381-3328.327s7.246.676,12.951.7a42.065,42.065,0,0,0,8.547-.617" transform="translate(-11606.126 3572.323)" fill="none" stroke="#000" stroke-width="1"/>
      <path id="Path_2782" data-name="Path 2782" d="M11671.873-3334.934a126.94,126.94,0,0,0,14.059,1.245,42.061,42.061,0,0,0,8.547-.616" transform="translate(-11593.726 3601.503)" fill="none" stroke="#000" stroke-width="1"/>
      <path id="Path_2783" data-name="Path 2783" d="M11798.131-2267.378s3.048,1.15,8.562.585a34.52,34.52,0,0,0,3.683-.585" transform="translate(-11741.767 2585.225)" fill="none" stroke="#000" stroke-width="1"/>
      <path id="Path_2784" data-name="Path 2784" d="M11798.131-2267.378s3.048,1.15,8.562.585a34.52,34.52,0,0,0,3.683-.585" transform="translate(-11717.094 2585.225)" fill="none" stroke="#000" stroke-width="1"/>
      <path id="Path_2794" data-name="Path 2794" d="M13604.977-5520.493s-14.217,38.873,18.641,55.25" transform="translate(-13518.684 5572.91)" fill="none" stroke="#000" stroke-width="1"/>
      <path id="Path_2812" data-name="Path 2812" d="M14400.085-5013.915s-9.313-1.237-12.423.246" transform="translate(-14280.268 5107.07)" fill="none" stroke="#000" stroke-width="1"/>
      <path id="Path_2813" data-name="Path 2813" d="M13604.977-5520.493s-14.217,38.873,18.641,55.25" transform="translate(-13518.684 5572.91)" fill="none" stroke="#000" stroke-width="1"/>
    </g>
    <text id="_1" data-name="1" transform="translate(189 287)" font-size="9" font-family="Helvetica"><tspan x="-5.005" y="0">1</tspan></text>
    <text id="_3" data-name="3" transform="translate(190 339)" font-size="9" font-family="Helvetica"><tspan x="-5.005" y="0">3</tspan></text>
    <text id="_2" data-name="2" transform="translate(163 335)" font-size="9" font-family="Helvetica"><tspan x="-5.005" y="0">2</tspan></text>
    <text id="_5" data-name="5" transform="translate(151 366)" font-size="9" font-family="Helvetica"><tspan x="-5.005" y="0">5</tspan></text>
    <text id="_34" data-name="34" transform="translate(148 402)" font-size="9" font-family="Helvetica"><tspan x="-10.011" y="0">34</tspan></text>
    <text id="_50" data-name="50" transform="translate(137 441)" font-size="9" font-family="Helvetica"><tspan x="-10.011" y="0">50</tspan></text>
    <text id="_51" data-name="51" transform="translate(247 441)" font-size="9" font-family="Helvetica"><tspan x="-10.011" y="0">51</tspan></text>
    <text id="_35" data-name="35" transform="translate(238 402)" font-size="9" font-family="Helvetica"><tspan x="-10.011" y="0">35</tspan></text>
    <text id="_6" data-name="6" transform="translate(172 371)" font-size="9" font-family="Helvetica"><tspan x="-5.005" y="0">6</tspan></text>
    <text id="_10" data-name="10" transform="translate(179 400)" font-size="9" font-family="Helvetica"><tspan x="-10.011" y="0">10</tspan></text>
    <text id="_12" data-name="12" transform="translate(178 410)" font-size="8" font-family="Helvetica"><tspan x="-8.898" y="0">12</tspan></text>
    <text id="_13" data-name="13" transform="translate(208 410)" font-size="8" font-family="Helvetica"><tspan x="-8.898" y="0">13</tspan></text>
    <text id="_11" data-name="11" transform="translate(206 400)" font-size="9" font-family="Helvetica"><tspan x="-9.347" y="0">11</tspan></text>
    <text id="_7" data-name="7" transform="translate(190 383)" font-size="9" font-family="Helvetica"><tspan x="-5.005" y="0">7</tspan></text>
    <text id="_14" data-name="14" transform="translate(192 429)" font-size="9" font-family="Helvetica"><tspan x="-10.011" y="0">14</tspan></text>
    <text id="_15" data-name="15" transform="translate(174 465)" font-size="9" font-family="Helvetica"><tspan x="-10.011" y="0">15</tspan></text>
    <text id="_36" data-name="36" transform="translate(171 515)" font-size="9" font-family="Helvetica"><tspan x="-5.005" y="0">36</tspan></text>
    <text id="_38" data-name="38" transform="translate(174 551)" font-size="9" font-family="Helvetica"><tspan x="-5.005" y="0">38</tspan></text>
    <text id="_40" data-name="40" transform="translate(171 590)" font-size="9" font-family="Helvetica"><tspan x="-5.005" y="0">40</tspan></text>
    <text id="_16" data-name="16" transform="translate(210 465)" font-size="9" font-family="Helvetica"><tspan x="-10.011" y="0">16</tspan></text>
    <text id="_37" data-name="37" transform="translate(205 515)" font-size="9" font-family="Helvetica"><tspan x="-5.005" y="0">37</tspan></text>
    <text id="_39" data-name="39" transform="translate(203 551)" font-size="9" font-family="Helvetica"><tspan x="-5.005" y="0">39</tspan></text>
    <text id="_41" data-name="41" transform="translate(206 590)" font-size="9" font-family="Helvetica"><tspan x="-5.005" y="0">41</tspan></text>
    <text id="_8" data-name="8" transform="translate(209 371)" font-size="9" font-family="Helvetica"><tspan x="-5.005" y="0">8</tspan></text>
    <text id="_9" data-name="9" transform="translate(230 366)" font-size="9" font-family="Helvetica"><tspan x="-5.005" y="0">9</tspan></text>
    <text id="_4" data-name="4" transform="translate(216 335)" font-size="9" font-family="Helvetica"><tspan x="-5.005" y="0">4</tspan></text>
  </g>
</svg>
