<svg xmlns="http://www.w3.org/2000/svg" width="150.393" height="342.01" viewBox="0 0 150.393 342.01">
  <g id="Group_1645" data-name="Group 1645" transform="translate(-112.5 -255.499)">
    <g id="Group_1627" data-name="Group 1627" transform="translate(113 256)">
      <path id="Path_2639" data-name="Path 2639" d="M3123.224,817.224c5.573,5.4,22.572,10.353,27.183,13.49a15.656,15.656,0,0,1,5.252,6.8,28.81,28.81,0,0,1,1.777,7.231s-.3,33.915,1.523,38.952a51.575,51.575,0,0,1,3.657,10.9c1.556,15.865,6.029,42.047,6.029,42.047s14.46,8.257,16.238,11.01-5.609,1.578-9.125,0,5.39,17.858,4.829,20.89-5.912-12.593-7.4-11.549,3.6,15.7,1.446,15.724-4.49-14-5.988-14,1.8,13.068,0,14-3.631-13.337-4.842-14,1.265,11.3,0,11.342-7.332-24.106-6.389-29.112c.469-2.488-6.38-15.089-10.523-27.848a150.718,150.718,0,0,1-5.673-25.928s-.127-16.887,3.81-28.68" transform="translate(-3035.763 -764.276)" fill="none" stroke="#000" stroke-width="1"/>
      <path id="Path_2640" data-name="Path 2640" d="M2180.58,293.186c-1.618,1.524-3.265,36.8-.372,43.183s4.181,26.565,4.181,26.565a200.648,200.648,0,0,1-1.475,21.3c-1.4,11.647-4.384,25.929-5.773,37.8-1.37,11.712-1.166,21.089-.4,22.9,1.443,3.388-3.3,25.116-5.868,41.665a114.027,114.027,0,0,0-1.362,19.079,5.939,5.939,0,0,0,0,3.23c.468,2.023,13.426,4.224,15.942,7.217s-5.875,4.755-5.875,4.755-17.819,3.6-20.881,3.132-3.127-1.056-3.547-2.64c-.158-.138-.491-10.559,1.087-15.694,1.493-5.29-3.083-47.662-2.386-54.088s1.855-14.838,1.855-14.838l-6.573-67.938s-6.161,75.979-6.05,76.119-.073-.427,0,0c.432,2.553,2.775,3.239,2.491,11.964-3.7,18.359-3.728,48.78-3.728,48.78s.146,2.175.7,5.977a77.947,77.947,0,0,1,.539,9.225c-.11,1.608-3.144,3.132-6.718,3.132-6.272,0-18.369-3.132-18.369-3.132s-4.619-2.235-5.388-3.752,2.31-2.315,2.31-2.315l6.363-1.8s7.563-.649,7.333-8.226c.933-11.094-3.862-28.9-5.836-42.3a133.311,133.311,0,0,1-1.42-16.416,147.949,147.949,0,0,0,0-23.8,293.22,293.22,0,0,1-5.932-35.685c-.975-10.394-1.336-20-1.573-22.848-.564-6.774,3.561-25.567,4.236-28.353s1.51-23.281,1.907-28.5-5.019-29.286-5.5-29.6,5.112,25.039,3.589,28.328c-.28.6.076,5.489-.834,10.368a95.172,95.172,0,0,1-3.7,13.247s-10.107,27.957-11.141,30.318a1.208,1.208,0,0,1-.153.28c.174,2.294-4.285,30.122-6.29,29.4s1.3-11.769,0-11.111-2.793,14.232-5.185,13.743,1.412-12.965,0-12.965-3.418,11.7-5.646,12.965,2.376-14.49.8-15.148-4.561,13.3-7.1,12.517,6.578-17.1,5.268-20.791-9.391,2.089-9.6-.843,15.78-11.325,15.78-11.325l3.8-18.742,1.942-20.46,3.433-13.676s2.622-22.447,3.052-26.146-5.889-12.643,3.935-24.814c7.541-9.342,16-8.4,20.664-11.222.02-.011,8.219-1.443,9.048-4.941,2.909-12.261.863-8.554.509-11.642a19.831,19.831,0,0,0-1.245-3.419,54.585,54.585,0,0,1-4.632-11.122c-.978-3.76.639-3.419.722-3.917.825-4.927-2.034-22.784,16.78-23.1,8.407-.143,13.754,3.645,16.109,8.369,2.716,5.449,1.737,12,1.713,12.807,0,.032,0,.062,0,.062s2.231,1.442,1.729,5.12-3.736,9.591-3.736,9.591l-3.209,7.571s-.2,7.38,1.042,9.383" transform="translate(-2074.511 -183.052)" fill="none" stroke="#000" stroke-linecap="round" stroke-width="1"/>
      <path id="Path_2742" data-name="Path 2742" d="M13373.553-4702.584s2.151-1.643,6.749-1.748a17.248,17.248,0,0,1,11.994,3.495" transform="translate(-13348.899 4823.785)" fill="none" stroke="#000" stroke-width="1"/>
      <path id="Path_2743" data-name="Path 2743" d="M13414.724-5014.184s9.85-.969,11.8.323" transform="translate(-13386.666 5108.242)" fill="none" stroke="#000" stroke-linecap="round" stroke-width="1"/>
      <path id="Path_2746" data-name="Path 2746" d="M13826.562-5536.067h0a34.315,34.315,0,0,0,12.951,2c3.022-.115,8.025-.6,10.4-2" transform="translate(-13763.825 5581.431)" fill="none" stroke="#000" stroke-width="1"/>
      <path id="Path_2747" data-name="Path 2747" d="M13617.883-5412.238h57.283" transform="translate(-13572.768 5472.466)" fill="none" stroke="#000" stroke-width="1"/>
      <path id="Path_2748" data-name="Path 2748" d="M13845.085-5412.237v127.323" transform="translate(-13781.372 5473.286)" fill="none" stroke="#000" stroke-width="1"/>
      <path id="Path_2749" data-name="Path 2749" d="M13845.085-5412.237v127.323" transform="translate(-13758.244 5473.286)" fill="none" stroke="#000" stroke-width="1"/>
      <path id="Path_2750" data-name="Path 2750" d="M13836.084-4743.753" transform="translate(-13773.118 4859.908)" fill="#ff5124" stroke="#000" stroke-width="1"/>
      <path id="Path_2751" data-name="Path 2751" d="M13600.486-4866.114s25.99-5.562,30.965-18.611" transform="translate(-13556.953 4974.814)" fill="none" stroke="#000" stroke-linecap="round" stroke-width="1"/>
      <path id="Path_2752" data-name="Path 2752" d="M13652.328-4868.087s-25.843-5.5-30.889-18.5c0-.013-.015-.039-.025-.065" transform="translate(-13546.649 4976.834)" fill="none" stroke="#000" stroke-linecap="round" stroke-width="1"/>
      <path id="Path_2753" data-name="Path 2753" d="M13596.859-4330.791s10.655-4.9,20.566-.363" transform="translate(-13553.666 4484.53)" fill="none" stroke="#000" stroke-width="1"/>
      <path id="Path_2754" data-name="Path 2754" d="M13761.93-4330.629s-5.543-4.535-19.314-1.521" transform="translate(-13656.119 4485.373)" fill="none" stroke="#000" stroke-width="1"/>
      <path id="Path_2755" data-name="Path 2755" d="M13620.857-4738.1s13.366-2.518,18.459-7.036" transform="translate(-13575.68 4868.662)" fill="none" stroke="#000" stroke-width="1"/>
      <path id="Path_2756" data-name="Path 2756" d="M13638.07-4741.859s-11.955-2.678-17.053-7.2" transform="translate(-13534.17 4872.253)" fill="none" stroke="#000" stroke-width="1"/>
      <path id="Path_2757" data-name="Path 2757" d="M13582.44-3979.744s-17.488,13.242-35.154-6.476" transform="translate(-13508.158 4165.222)" fill="none" stroke="#000" stroke-width="1"/>
      <path id="Path_2758" data-name="Path 2758" d="M13545.067-3979.736s17.393,13.233,35.061-6.484" transform="translate(-13470.884 4165.222)" fill="none" stroke="#000" stroke-width="1"/>
      <path id="Path_2759" data-name="Path 2759" d="M13639.309-3258.965s6.009,6.988,23.322.166" transform="translate(-13592.58 3498.223)" fill="none" stroke="#000" stroke-width="1"/>
      <path id="Path_2760" data-name="Path 2760" d="M13661.551-3256.724s-4.929,6.593-22.242-.229" transform="translate(-13559.293 3496.377)" fill="none" stroke="#000" stroke-width="1"/>
      <path id="Path_2761" data-name="Path 2761" d="M13639.309-2990.366s6.293-2.634,21.456-1.522" transform="translate(-13592.587 3253.53)" fill="none" stroke="#000" stroke-width="1"/>
      <path id="Path_2762" data-name="Path 2762" d="M13661.353-2990.508s-6.882-2.559-22.044-1.448" transform="translate(-13559.211 3253.597)" fill="none" stroke="#000" stroke-width="1"/>
      <path id="Path_2763" data-name="Path 2763" d="M13726.866-2261.968s6.884,3.132,12.884,1.065" transform="translate(-13672.912 2584.016)" fill="none" stroke="#000" stroke-width="1"/>
      <path id="Path_2764" data-name="Path 2764" d="M14057.146-2251.2s6.743,2.417,13.339,0" transform="translate(-13975.786 2574.131)" fill="none" stroke="#000" stroke-width="1"/>
      <path id="Path_2765" data-name="Path 2765" d="M14541.8-4055.879s6.786,1.437,11.186-3.332" transform="translate(-14420.095 4232.128)" fill="none" stroke="#000" stroke-width="1"/>
      <path id="Path_2766" data-name="Path 2766" d="M14347.3-4697.855s10.481-4.137,17.655-2.02" transform="translate(-14241.831 4820.228)" fill="none" stroke="#000" stroke-width="1"/>
      <path id="Path_2767" data-name="Path 2767" d="M14400.118-5013.914s-9.338-1.24-12.457.247" transform="translate(-14278.886 5108.119)" fill="none" stroke="#000" stroke-width="1"/>
      <path id="Path_2877" data-name="Path 2877" d="M2266.486,2274.089a20.68,20.68,0,0,1,3.478,1.471,29.278,29.278,0,0,0,8.513,2.723" transform="translate(-2251.117 -2102.388)" fill="none" stroke="#000" stroke-width="1"/>
    </g>
    <text id="_17" data-name="17" transform="translate(188 287)" font-size="9" font-family="Helvetica"><tspan x="-5.005" y="0">17</tspan></text>
    <text id="_18" data-name="18" transform="translate(188 313)" font-size="9" font-family="Helvetica"><tspan x="-5.005" y="0">18</tspan></text>
    <text id="_19" data-name="19" transform="translate(161 339)" font-size="9" font-family="Helvetica"><tspan x="-5.005" y="0">19</tspan></text>
    <text id="_22" data-name="22" transform="translate(147 367)" font-size="9" font-family="Helvetica"><tspan x="-5.005" y="0">22</tspan></text>
    <text id="_42" data-name="42" transform="translate(142 402)" font-size="9" font-family="Helvetica"><tspan x="-5.005" y="0">42</tspan></text>
    <text id="_27" data-name="27" transform="translate(167 398)" font-size="9" font-family="Helvetica"><tspan x="-5.005" y="0">27</tspan></text>
    <text id="_29" data-name="29" transform="translate(165 428)" font-size="9" font-family="Helvetica"><tspan x="-5.005" y="0">29</tspan></text>
    <text id="_32" data-name="32" transform="translate(169 473)" font-size="9" font-family="Helvetica"><tspan x="-5.005" y="0">32</tspan></text>
    <text id="_44" data-name="44" transform="translate(172 511)" font-size="9" font-family="Helvetica"><tspan x="-5.005" y="0">44</tspan></text>
    <text id="_46" data-name="46" transform="translate(172 543)" font-size="9" font-family="Helvetica"><tspan x="-5.005" y="0">46</tspan></text>
    <text id="_48" data-name="48" transform="translate(170 592)" font-size="9" font-family="Helvetica"><tspan x="-5.005" y="0">48</tspan></text>
    <text id="_49" data-name="49" transform="translate(203 592)" font-size="9" font-family="Helvetica"><tspan x="-5.005" y="0">49</tspan></text>
    <text id="_47" data-name="47" transform="translate(203 543)" font-size="9" font-family="Helvetica"><tspan x="-5.005" y="0">47</tspan></text>
    <text id="_33" data-name="33" transform="translate(206 473)" font-size="9" font-family="Helvetica"><tspan x="-5.005" y="0">33</tspan></text>
    <text id="_45" data-name="45" transform="translate(204 511)" font-size="9" font-family="Helvetica"><tspan x="-5.005" y="0">45</tspan></text>
    <text id="_31" data-name="31" transform="translate(211 428)" font-size="9" font-family="Helvetica"><tspan x="-5.005" y="0">31</tspan></text>
    <text id="_53" data-name="53" transform="translate(245 443)" font-size="9" font-family="Helvetica"><tspan x="-5.005" y="0">53</tspan></text>
    <text id="_52" data-name="52" transform="translate(131 443)" font-size="9" font-family="Helvetica"><tspan x="-5.005" y="0">52</tspan></text>
    <text id="_30" data-name="30" transform="translate(188 422)" font-size="9" font-family="Helvetica"><tspan x="-5.005" y="0">30</tspan></text>
    <text id="_28" data-name="28" transform="translate(209 401)" font-size="9" font-family="Helvetica"><tspan x="-5.005" y="0">28</tspan></text>
    <text id="_43" data-name="43" transform="translate(232 398)" font-size="9" font-family="Helvetica"><tspan x="-5.005" y="0">43</tspan></text>
    <text id="_23" data-name="23" transform="translate(167 376)" font-size="9" font-family="Helvetica"><tspan x="-5.005" y="0">23</tspan></text>
    <text id="_24" data-name="24" transform="translate(188 374)" font-size="9" font-family="Helvetica"><tspan x="-5.005" y="0">24</tspan></text>
    <text id="_25" data-name="25" transform="translate(209 376)" font-size="9" font-family="Helvetica"><tspan x="-5.005" y="0">25</tspan></text>
    <text id="_26" data-name="26" transform="translate(227 368)" font-size="9" font-family="Helvetica"><tspan x="-5.005" y="0">26</tspan></text>
    <text id="_20" data-name="20" transform="translate(188 335)" font-size="9" font-family="Helvetica"><tspan x="-5.005" y="0">20</tspan></text>
    <text id="_21" data-name="21" transform="translate(215 339)" font-size="9" font-family="Helvetica"><tspan x="-5.005" y="0">21</tspan></text>
    <path id="Path_2879" data-name="Path 2879" d="M6069.658,197.78a46.509,46.509,0,0,0,11.921,2.009A44.154,44.154,0,0,0,6092.921,198" transform="translate(-5893 204)" fill="none" stroke="#000" stroke-width="1"/>
  </g>
</svg>
