<svg xmlns="http://www.w3.org/2000/svg" width="187" height="372.504" viewBox="0 0 187 372.504">
  <g id="Group_1677" data-name="Group 1677" transform="translate(-16318 6034)">
    <path id="Path_2846" data-name="Path 2846" d="M12086.2-2267.378a43.42,43.42,0,0,0,6.622.626,31.825,31.825,0,0,0,6.024-.626s-1.237,2.283,1.381,6.271,7.579,5.011,9,8.849c1.372,3.7-5.231,7.461-5.231,7.461s-4.116,1.187-7.42,0-3.706-1.8-5.568-4.728-.781-2.866-2.058-4.754-3.052-.883-3.739-4.157S12086.2-2267.378,12086.2-2267.378Z" transform="translate(4332.679 -3418.277)" fill="#f6f665"/>
    <path id="Path_2845" data-name="Path 2845" d="M11682.289-2267.378l1.532,10.162a40.917,40.917,0,0,0-6.277,6.223c-2.966,3.694-1.225,6.093-5.975,6.513s-11.753-.625-12.865-4.726,7.067-7.726,10-11.849,1.55-6.323,1.55-6.323a34.911,34.911,0,0,0,6.1.637A31.814,31.814,0,0,0,11682.289-2267.378Z" transform="translate(4724.16 -3418.277)" fill="#f6f665"/>
    <path id="Path_2843" data-name="Path 2843" d="M11681.138-2894.429a69.247,69.247,0,0,0,12.042.923,67.852,67.852,0,0,0,11.218-1.417s.4.214-1.19,12.067-.2,39.24-.2,39.24a26.571,26.571,0,0,1-6.052.962,24.3,24.3,0,0,1-5.918-.721,98.02,98.02,0,0,0-4.589-23.13c-.836-3.833-2.347-7.687-2.971-10.9C11681-2890.172,11681.138-2894.429,11681.138-2894.429Z" transform="translate(4703.472 -2842.19)" fill="#44afab"/>
    <path id="Path_2844" data-name="Path 2844" d="M11702.763-2893.876a72.63,72.63,0,0,1-11,.566,62.171,62.171,0,0,1-10.9-1.4s-1.17.143.416,12,2.324,39.05,2.324,39.05a7.424,7.424,0,0,0,4.382,1.206,49.122,49.122,0,0,0,8.576-1.206,54.408,54.408,0,0,1,1.983-21.968c.835-3.833.958-8.2,1.583-11.415C11702.6-2889.81,11702.763-2893.876,11702.763-2893.876Z" transform="translate(4735.265 -2842.223)" fill="#44afab"/>
    <path id="Path_2842" data-name="Path 2842" d="M11714.6-3168.474a108.981,108.981,0,0,1-12.027.842,69.521,69.521,0,0,1-9.234-.539s.235,10.321-.429,14.754a56.672,56.672,0,0,0-.671,7.438l11.578,1.557,10.783-.868s.022-11.943-.467-17.835S11714.6-3168.474,11714.6-3168.474Z" transform="translate(4724.027 -2590.919)" fill="#f6f665"/>
    <path id="Path_2841" data-name="Path 2841" d="M11678.045-3168.327a109.046,109.046,0,0,0,12.029.842,66.913,66.913,0,0,0,10.373-.842s-1.8,10.374-1.141,14.807,3.586,7.743,1.559,7.946c-1,.1-12.01.784-12.01.784l-10.811-1.042Z" transform="translate(4706.311 -2591.065)" fill="#f6f665"/>
    <path id="Path_2839" data-name="Path 2839" d="M11612.077-4163.41l4.283-60.235s-3.609-.967-6.651-5.681c-1.936-2.372-3.191-6.456-5.448-9.094-6.051-7.073-9.426-7.033-11.438-9.631-5.377-3.47-7.8-4.243-7.8-4.243s-.249,1.239-1.217,6.631a93.384,93.384,0,0,0-2.121,15.444c.521,9.65,1.426,24.06,3.145,35.962,1.891,13.082,3.188,14.2,4.584,23.222s0,7.626,0,7.626l12.27.8Z" transform="translate(4794.77 -1595.89)" fill="#f66569"/>
    <path id="Path_2840" data-name="Path 2840" d="M11581.041-4170.535l-5.235-60.106a14.845,14.845,0,0,0,7.133-6.019c1.935-2.372,3.191-6.456,5.448-9.094,6.05-7.073,9.427-7.033,11.438-9.631,5.379-3.47,6.693-4.9,6.693-4.9s1.357,1.894,2.325,7.286a124.9,124.9,0,0,1,1.477,15.861c-.521,9.649-1.824,23.451-3.544,35.353-1.891,13.083-2.144,14.39-3.54,23.415s-1.05,8.427-1.05,8.427h-11.22Z" transform="translate(4836 -1588.966)" fill="#f66569"/>
    <path id="Path_2838" data-name="Path 2838" d="M11626.625-4269.223s17.532,1.392,32.982,1.455a164.792,164.792,0,0,0,29.373-2.736s-9.762,9.348-16.966,16.579c-1.852,1.858-3.129,3.767-4.465,5.354-3.849,4.573-5.895,7.518-9.319,7.971-4.432.034-8.142-7.32-12.373-14.083S11626.625-4269.223,11626.625-4269.223Z" transform="translate(4753.514 -1579.098)" fill="#44afab"/>
    <path id="Path_2837" data-name="Path 2837" d="M12048.549-4373.909l1.756,8.16s-8.859,1.607-16.318,2.319a120.6,120.6,0,0,1-13.518.531l-.283-8.468,14.275-.639Z" transform="translate(4392.225 -1484.141)" fill="#f66569"/>
    <path id="Path_2836" data-name="Path 2836" d="M11627.971-4369.52l30.877,2.13v8.71l-32.223-1.854Z" transform="translate(4753.514 -1488.171)" fill="#f6f665"/>
    <path id="Path_2835" data-name="Path 2835" d="M12021.263-4501.519v10.564a71.582,71.582,0,0,0,13.6-.356c6.967-.919,14.678-1.875,14.678-1.875l-.473-10.623-13.267,1.536Z" transform="translate(4391.236 -1364.875)" fill="#fef873"/>
    <path id="Path_2834" data-name="Path 2834" d="M11643.711-4490l30.341,1.376v10.2h-8.062l-22.952-1.779Z" transform="translate(4738.447 -1377.55)" fill="#f66569"/>
    <path id="Path_2833" data-name="Path 2833" d="M11686.7-4902.752a145.728,145.728,0,0,0,11.111,19.463c7.409,11.119,16.457,13.035,16.457,13.035a211.917,211.917,0,0,1-27.015,2.513c-14.353.354-30.4-1.1-30.4-1.1s8.28-2.132,15.191-11.163S11686.7-4902.752,11686.7-4902.752Z" transform="translate(4725.757 -998.597)" fill="#44afab"/>
    <path id="Path_2832" data-name="Path 2832" d="M12049.711-4918.659s-2.758,5.758-12.785,19.647c-9.758,13.514-17.312,13.656-17.312,13.656l.563-14.541-1.824-13.036,10.623-7.4Z" transform="translate(4362.749 -982.536)" fill="#f6f665"/>
    <path id="Path_2831" data-name="Path 2831" d="M12021.218-4918.893s1.61,5.991,11.639,19.881c9.757,13.514,15.922,12.606,15.922,12.606l2.417-26.553-10.389-7.376Z" transform="translate(4391.277 -982.453)" fill="#f66569"/>
    <path id="Path_2828" data-name="Path 2828" d="M15324.51-5600.324a37.131,37.131,0,0,0-9.016-2.417,31.135,31.135,0,0,0-8.463.268s-2.437.993-4.08,11.695c-.374,2.44-.474,5.9-1.035,9.731-1.894,12.91-4.959,29.4-4.959,29.4a24.374,24.374,0,0,0,5.311,2.6c2.83.928,6.571,1.711,6.571,1.711a256.807,256.807,0,0,0,10.115-26.919C15320.7-5576.494,15324.51-5600.324,15324.51-5600.324Z" transform="translate(1056.861 -282.181)" fill="#44afab"/>
    <path id="Union_46" data-name="Union 46" d="M.112,32.674C-.829,27.68,4.439,5.082,6.189,2.893c.918-1.149.686,2.153.433,5.454-.229,2.99-.476,5.98.1,5.664C7.928,13.348,9.757-.887,11.55.044s-1.379,13,.114,13S15.374.018,17.523.044,14.9,13.975,16.389,15.016c.709.5,1.85-2.8,3.073-6.088,1.339-3.607,2.776-7.214,3.845-5.839,2.046,2.631-8.1,21.906-4.116,21.373s10.331-2.16,8.557.586c-1.542,2.388-12.884,9.179-15.817,10.91l.046.05-.079-.03c-.419.247-.657.386-.657.386Z" transform="translate(16365.453 -5796.762) rotate(180)" fill="#f6f665"/>
    <path id="Path_2825" data-name="Path 2825" d="M15303.551-5915.794s-8.641-1.274-12.5-.26c-.65.171-.436,2.809-.436,2.809l-.58,10.151-1.482,13.666a23.305,23.305,0,0,1,9.342-1.22,29.088,29.088,0,0,1,8.8,2.93s-.334-6.979-1.189-13.89S15303.551-5915.794,15303.551-5915.794Z" transform="translate(1074.217 5.796)" fill="#f6f665"/>
    <path id="Path_2824" data-name="Path 2824" d="M15074.1-6394.619s-25.428,9.881-25.628,9.979c-12.657,9.788-7.795,22.69-8.023,29.581,0,0,10.7-1.961,12.591.39s2.915,14.063,2.915,14.063,17.488-9.041,20.245-24.629A64.461,64.461,0,0,0,15074.1-6394.619Z" transform="translate(1324.601 445.644)" fill="#f66569"/>
    <path id="Path_2819" data-name="Path 2819" d="M15050.975-6410.018s17.928,9.1,26.795,13.147,6.977,20.784,7.205,27.675c0,0-10.7-1.961-12.592.39s-2.914,14.063-2.914,14.063-17.488-9.041-20.246-24.629S15050.975-6410.018,15050.975-6410.018Z" transform="translate(1372.948 459.292)" fill="#f6f665"/>
    <path id="Path_2820" data-name="Path 2820" d="M15300.152-5915.794s8.641-1.274,12.5-.26c.651.171.437,2.809.437,2.809v10.076l1.394,12.771a31.24,31.24,0,0,0-8.674-.25,40.728,40.728,0,0,0-9.07,2.5,99.853,99.853,0,0,1,.655-13.477A124.858,124.858,0,0,1,15300.152-5915.794Z" transform="translate(1144.932 6.041)" fill="#f66569"/>
    <path id="Union_45" data-name="Union 45" d="M6.73,22.351c-.559-.307.006,2.78.494,5.867.566,3.58,1.026,7.161-.494,5.447C3.9,30.473-.819,8.683.122,3.689L11.252,0s.238.138.657.386l.079-.03-.046.05c2.932,1.731,14.275,8.522,15.817,10.91,1.774,2.746-5.6,1.574-9.1,0S23.7,29.347,23.144,32.372c-.3,1.6-1.83-2.053-3.432-5.7-1.433-3.265-2.92-6.529-3.621-6.037-1.485,1.041,3.592,15.66,1.443,15.686s-4.48-13.968-5.973-13.968,1.793,13.037,0,13.968a.367.367,0,0,1-.17.044C9.652,36.364,7.9,22.994,6.73,22.351Z" transform="translate(16457.891 -5832.388)" fill="#f6f665"/>
    <path id="Path_2821" data-name="Path 2821" d="M15296.713-5600.324a37.131,37.131,0,0,1,9.016-2.417,31.135,31.135,0,0,1,8.463.268s2.438.993,4.079,11.695c.375,2.44.474,5.9,1.036,9.731,1.893,12.91,4.979,30.512,4.979,30.512a14.808,14.808,0,0,1-5.037,3.084,15.123,15.123,0,0,1-6.105.421,205.669,205.669,0,0,1-10.874-27.224C15300.527-5576.494,15296.713-5600.324,15296.713-5600.324Z" transform="translate(1144.768 -281.936)" fill="#44afab"/>
    <path id="Path_2811" data-name="Path 2811" d="M15131.208-6171.96a41.888,41.888,0,0,0,12.895,1.932c4.743-.14,9.585-2.465,12.224-2.543-1.245,1.787-3.846,15.28-2.173,27.175,1.553,12.2,10.368,20.717,10.368,20.717a149.028,149.028,0,0,1-20.872,1.782,125.117,125.117,0,0,1-19.8-1.737s8.368-9.3,10.207-21.128S15131.208-6171.96,15131.208-6171.96Z" transform="translate(1267.457 220.884)" fill="#44afab"/>
    <g id="Group_1623" data-name="Group 1623" transform="translate(16392.861 -6003.547)">
      <path id="Path_2786" data-name="Path 2786" d="M2753.412,236.018c2.869-12.128.842-8.425.492-11.48a19.812,19.812,0,0,0-1.23-3.362,53.936,53.936,0,0,1-4.592-10.988c-.964-3.719.655-3.443.738-3.936.813-4.874-1.993-22.48,16.563-22.8,8.292-.141,13.5,3.608,15.826,8.282,2.678,5.39,1.746,11.831,1.722,12.628,0,.032,0,.082,0,.082s2.217,1.446,1.722,5.084-3.69,9.43-3.69,9.43l-3.2,7.544s-.162,7.285,1.066,9.266" transform="translate(-2747.777 -183.453)" fill="#f66569"/>
      <path id="Path_2785" data-name="Path 2785" d="M11851.5-5507.172s10.512,6.03,25.5-.328" transform="translate(-11845.946 5559.737)" fill="#f66569"/>
    </g>
  </g>
  <text id="Frente" transform="translate(70 14)" font-size="14" font-family="Montserrat-SemiBold, Montserrat" font-weight="600"><tspan x="0" y="0">Frente</tspan></text>
  <g id="Group_1640" data-name="Group 1640" transform="translate(-99 -213)">
    <text id="Esquerdo" transform="translate(237 283)" font-size="10" font-family="Montserrat-Medium, Montserrat" font-weight="500"><tspan x="0" y="0">Esquerdo</tspan></text>
    <text id="Direito" transform="translate(99 283)" font-size="10" font-family="Montserrat-Medium, Montserrat" font-weight="500"><tspan x="0" y="0">Direito</tspan></text>
  </g>
  <g id="Group_1639" data-name="Group 1639" transform="translate(-94 -225)">
    <g id="Group_1626" data-name="Group 1626" transform="translate(114 256)">
      <path id="Path_2769" data-name="Path 2769" d="M3123.225,817.224c5.557,5.38,22.509,10.324,27.108,13.453a15.612,15.612,0,0,1,5.238,6.778,28.734,28.734,0,0,1,1.772,7.211s-.3,33.821,1.519,38.844a51.421,51.421,0,0,1,3.647,10.868c1.552,15.821,6.012,41.93,6.012,41.93s14.42,8.234,16.192,10.979-5.594,1.573-9.1,0,5.96,17.131,4.815,20.832-5.9-12.558-7.379-11.517,3.591,15.654,1.442,15.68-4.478-13.963-5.971-13.963,1.793,13.032,0,13.963-3.621-13.3-4.828-13.963,3.354,15.375,0,11.31-7.312-24.039-6.371-29.031c.467-2.481-6.362-15.048-10.494-27.771a150.318,150.318,0,0,1-5.657-25.856s-.126-16.841,3.8-28.6" transform="translate(-3037.261 -765.241)" fill="none" stroke="#000" stroke-width="1"/>
      <path id="Path_2768" data-name="Path 2768" d="M2179.091,291.955c-1.6,1.507-3.219,36.392-.367,42.7s4.122,26.268,4.122,26.268a198.989,198.989,0,0,1-1.455,21.066c-1.384,11.517-4.322,25.639-5.691,37.375-1.351,11.581-1.15,20.853-.391,22.641,1.423,3.35-3.253,24.836-5.786,41.2a113.033,113.033,0,0,0-1.342,18.866,5.883,5.883,0,0,0,0,3.194c.461,2,5.515,4.73,8,7.69,1.044,1.246,3.96,3.921,2.062,6.13-2.6,3.022-3.535,4.682-8.716,4.961-2.5.135-8.914-1.981-9.74-6.585s-4.514-5.221-4.689-5.882a15.348,15.348,0,0,1,0-9.508c1.472-5.231-3.04-47.129-2.353-53.484s1.829-14.672,1.829-14.672l-6.48-67.179s-6.074,75.13-5.966,75.269-.071-.422,0,0c.426,2.524,2.737,3.2,2.456,11.831-3.65,18.154-1.393,47.352-1.393,47.352a45.143,45.143,0,0,0,.549,5.676c.38,2.621.89,3.619.781,3.812-.108,1.59-1.6,1.194-4.515,4.447s-2.878,7.568-7.161,8.564-15.333-1.406-13.125-6.4,11.5-7.721,11.27-15.213c.921-10.97-6.936-29.465-8.882-42.705a132.221,132.221,0,0,1-1.4-16.232,146.714,146.714,0,0,0,0-23.537,290.816,290.816,0,0,1-5.849-35.286c-.961-10.278-1.317-19.773-1.551-22.593-.557-6.7,3.51-25.282,4.176-28.036s1.489-23.021,1.881-28.181-4.949-28.958-5.419-29.274,5.04,24.759,3.538,28.012c-.276.6.075,5.428-.823,10.252a94.294,94.294,0,0,1-3.65,13.1s-9.965,27.645-10.985,29.979a1.185,1.185,0,0,1-.15.277c.171,2.268-4.225,29.785-6.2,29.07s1.278-11.637,0-10.987-2.753,14.073-5.112,13.589,1.392-12.82,0-12.82-3.371,11.567-5.566,12.82,2.342-14.328.79-14.979-4.5,13.147-7,12.377,6.486-16.913,5.194-20.559-9.259,2.065-9.465-.834,15.559-11.2,15.559-11.2l3.742-18.533,1.915-20.232,3.385-13.523s2.585-22.2,3.01-25.854-5.807-12.5,3.88-24.536c7.435-9.237,15.78-8.307,20.374-11.1.02-.011,8.1-1.427,8.921-4.886,2.868-12.124.851-8.458.5-11.512a19.7,19.7,0,0,0-1.227-3.381,54.049,54.049,0,0,1-4.567-11c-.964-3.718.63-3.38.712-3.873.813-4.872-2.005-22.529,16.544-22.845,8.289-.141,13.561,3.6,15.883,8.276,2.678,5.388,1.712,11.866,1.689,12.663,0,.032,0,.061,0,.061s2.2,1.426,1.7,5.063-3.683,9.484-3.683,9.484l-3.165,7.487s-.2,7.3,1.027,9.278" transform="translate(-2074.511 -183.052)" fill="none" stroke="#000" stroke-linecap="round" stroke-width="1"/>
      <path id="Path_2789" data-name="Path 2789" d="M2266.486,2274.089a20.605,20.605,0,0,1,3.468,1.467,29.193,29.193,0,0,0,8.49,2.716" transform="translate(-2250.832 -2104.407)" fill="none" stroke="#000" stroke-width="1"/>
      <path id="Path_2788" data-name="Path 2788" d="M13373.553-4702.589s2.146-1.638,6.73-1.742a17.2,17.2,0,0,1,11.961,3.484" transform="translate(-13349.286 4822.44)" fill="none" stroke="#000" stroke-width="1"/>
      <path id="Path_2787" data-name="Path 2787" d="M13414.725-5014.185s9.821-.966,11.765.323" transform="translate(-13387.084 5107.193)" fill="none" stroke="#000" stroke-linecap="round" stroke-width="1"/>
      <path id="Path_2744" data-name="Path 2744" d="M13620.348-5515.117s14.854,38.361-18.006,54.738" transform="translate(-13559.649 5567.974)" fill="none" stroke="#000" stroke-width="1"/>
      <path id="Path_2745" data-name="Path 2745" d="M13604.977-5520.493s-14.217,38.873,18.641,55.25" transform="translate(-13518.684 5572.91)" fill="none" stroke="#000" stroke-width="1"/>
      <path id="Path_2790" data-name="Path 2790" d="M14541.8-4055.888s6.767,1.433,11.154-3.322" transform="translate(-14421.77 4230.18)" fill="none" stroke="#000" stroke-width="1"/>
      <path id="Path_2791" data-name="Path 2791" d="M14347.3-4697.862s10.451-4.125,17.605-2.015" transform="translate(-14243.212 4818.882)" fill="none" stroke="#000" stroke-width="1"/>
      <path id="Path_2792" data-name="Path 2792" d="M14400.085-5013.915s-9.313-1.237-12.423.246" transform="translate(-14280.268 5107.07)" fill="none" stroke="#000" stroke-width="1"/>
      <path id="Path_2770" data-name="Path 2770" d="M11853.568-5512.56s10.1,5.724,25.09-.631" transform="translate(-11792.659 5564.977)" fill="none" stroke="#000" stroke-width="1"/>
      <path id="Path_2771" data-name="Path 2771" d="M0,0A171.254,171.254,0,0,0,20.895,1.537,160.658,160.658,0,0,0,41.4.082" transform="translate(53.116 100.287)" fill="none" stroke="#000" stroke-width="1"/>
      <path id="Path_2774" data-name="Path 2774" d="M-96.243-2.485s20.02,1.079,30.508,1.174,27.558-2.312,27.558-2.312" transform="translate(140.568 138.122)" fill="none" stroke="#000" stroke-width="1"/>
      <path id="Path_2775" data-name="Path 2775" d="M-124.348-2.649S-101.093-.955-90.168-.84c9.931.1,25.527-2.281,28.307-2.719l.4-.064" transform="translate(166.369 157.16)" fill="none" stroke="#000" stroke-width="1"/>
      <path id="Path_2776" data-name="Path 2776" d="M-108.021.656S-86.1,2.685-75.18,2.8C-65.249,2.9-48.147.342-48.147.342" transform="translate(151.545 144.831)" fill="none" stroke="#000" stroke-width="1"/>
      <path id="Path_2772" data-name="Path 2772" d="M12021.219-4903.156s14.374,31.733,27.787,32.575" transform="translate(-11946.567 5004.946)" fill="none" stroke="#000" stroke-width="1"/>
      <path id="Path_2773" data-name="Path 2773" d="M12024.38-4912.5s-16.708,32.9-30.12,33.744" transform="translate(-11949.935 5014.262)" fill="none" stroke="#000" stroke-width="1"/>
      <path id="Path_2777" data-name="Path 2777" d="M12021.218-4475.882v19.538" transform="translate(-11946.566 4612.696)" fill="none" stroke="#000" stroke-width="1"/>
      <path id="Path_2778" data-name="Path 2778" d="M11623.152-4268.772s16.692,9.14,19.8,15.238,7.746,13.342,11.927,13.375,14.055-13.375,14.055-13.375l17-16.479" transform="translate(-11581.131 4423.703)" fill="none" stroke="#000" stroke-width="1"/>
      <path id="Path_2779" data-name="Path 2779" d="M11678.046-3328.221s7.848.667,13.554.7a49.674,49.674,0,0,0,8.93-.609" transform="translate(-11631.525 3572.225)" fill="none" stroke="#000" stroke-width="1"/>
      <path id="Path_2781" data-name="Path 2781" d="M11678.046-3333.591s7.848.666,13.554.7a37.9,37.9,0,0,0,9.822-1.175" transform="translate(-11631.525 3600.383)" fill="none" stroke="#000" stroke-width="1"/>
      <path id="Path_2780" data-name="Path 2780" d="M11685.381-3328.327s7.246.676,12.951.7a42.065,42.065,0,0,0,8.547-.617" transform="translate(-11606.126 3572.323)" fill="none" stroke="#000" stroke-width="1"/>
      <path id="Path_2782" data-name="Path 2782" d="M11671.873-3334.934a126.94,126.94,0,0,0,14.059,1.245,42.061,42.061,0,0,0,8.547-.616" transform="translate(-11593.726 3601.503)" fill="none" stroke="#000" stroke-width="1"/>
      <path id="Path_2783" data-name="Path 2783" d="M11798.131-2267.378s3.048,1.15,8.562.585a34.52,34.52,0,0,0,3.683-.585" transform="translate(-11741.767 2585.225)" fill="none" stroke="#000" stroke-width="1"/>
      <path id="Path_2784" data-name="Path 2784" d="M11798.131-2267.378s3.048,1.15,8.562.585a34.52,34.52,0,0,0,3.683-.585" transform="translate(-11717.094 2585.225)" fill="none" stroke="#000" stroke-width="1"/>
      <path id="Path_2794" data-name="Path 2794" d="M13604.977-5520.493s-14.217,38.873,18.641,55.25" transform="translate(-13518.684 5572.91)" fill="none" stroke="#000" stroke-width="1"/>
      <path id="Path_2812" data-name="Path 2812" d="M14400.085-5013.915s-9.313-1.237-12.423.246" transform="translate(-14280.268 5107.07)" fill="none" stroke="#000" stroke-width="1"/>
      <path id="Path_2813" data-name="Path 2813" d="M13604.977-5520.493s-14.217,38.873,18.641,55.25" transform="translate(-13518.684 5572.91)" fill="none" stroke="#000" stroke-width="1"/>
    </g>
    <text id="_1" data-name="1" transform="translate(189 287)" font-size="9" font-family="Helvetica"><tspan x="-5.005" y="0">1</tspan></text>
    <text id="_3" data-name="3" transform="translate(190 339)" font-size="9" font-family="Helvetica"><tspan x="-5.005" y="0">3</tspan></text>
    <text id="_2" data-name="2" transform="translate(163 335)" font-size="9" font-family="Helvetica"><tspan x="-5.005" y="0">2</tspan></text>
    <text id="_5" data-name="5" transform="translate(151 366)" font-size="9" font-family="Helvetica"><tspan x="-5.005" y="0">5</tspan></text>
    <text id="_34" data-name="34" transform="translate(148 402)" font-size="9" font-family="Helvetica"><tspan x="-10.011" y="0">34</tspan></text>
    <text id="_50" data-name="50" transform="translate(137 441)" font-size="9" font-family="Helvetica"><tspan x="-10.011" y="0">50</tspan></text>
    <text id="_51" data-name="51" transform="translate(247 441)" font-size="9" font-family="Helvetica"><tspan x="-10.011" y="0">51</tspan></text>
    <text id="_35" data-name="35" transform="translate(238 402)" font-size="9" font-family="Helvetica"><tspan x="-10.011" y="0">35</tspan></text>
    <text id="_6" data-name="6" transform="translate(172 371)" font-size="9" font-family="Helvetica"><tspan x="-5.005" y="0">6</tspan></text>
    <text id="_10" data-name="10" transform="translate(179 400)" font-size="9" font-family="Helvetica"><tspan x="-10.011" y="0">10</tspan></text>
    <text id="_12" data-name="12" transform="translate(178 410)" font-size="8" font-family="Helvetica"><tspan x="-8.898" y="0">12</tspan></text>
    <text id="_13" data-name="13" transform="translate(208 410)" font-size="8" font-family="Helvetica"><tspan x="-8.898" y="0">13</tspan></text>
    <text id="_11" data-name="11" transform="translate(206 400)" font-size="9" font-family="Helvetica"><tspan x="-9.347" y="0">11</tspan></text>
    <text id="_7" data-name="7" transform="translate(190 383)" font-size="9" font-family="Helvetica"><tspan x="-5.005" y="0">7</tspan></text>
    <text id="_14" data-name="14" transform="translate(192 429)" font-size="9" font-family="Helvetica"><tspan x="-10.011" y="0">14</tspan></text>
    <text id="_15" data-name="15" transform="translate(174 465)" font-size="9" font-family="Helvetica"><tspan x="-10.011" y="0">15</tspan></text>
    <text id="_36" data-name="36" transform="translate(171 515)" font-size="9" font-family="Helvetica"><tspan x="-5.005" y="0">36</tspan></text>
    <text id="_38" data-name="38" transform="translate(174 551)" font-size="9" font-family="Helvetica"><tspan x="-5.005" y="0">38</tspan></text>
    <text id="_40" data-name="40" transform="translate(171 590)" font-size="9" font-family="Helvetica"><tspan x="-5.005" y="0">40</tspan></text>
    <text id="_16" data-name="16" transform="translate(210 465)" font-size="9" font-family="Helvetica"><tspan x="-10.011" y="0">16</tspan></text>
    <text id="_37" data-name="37" transform="translate(205 515)" font-size="9" font-family="Helvetica"><tspan x="-5.005" y="0">37</tspan></text>
    <text id="_39" data-name="39" transform="translate(203 551)" font-size="9" font-family="Helvetica"><tspan x="-5.005" y="0">39</tspan></text>
    <text id="_41" data-name="41" transform="translate(206 590)" font-size="9" font-family="Helvetica"><tspan x="-5.005" y="0">41</tspan></text>
    <text id="_8" data-name="8" transform="translate(209 371)" font-size="9" font-family="Helvetica"><tspan x="-5.005" y="0">8</tspan></text>
    <text id="_9" data-name="9" transform="translate(230 366)" font-size="9" font-family="Helvetica"><tspan x="-5.005" y="0">9</tspan></text>
    <text id="_4" data-name="4" transform="translate(216 335)" font-size="9" font-family="Helvetica"><tspan x="-5.005" y="0">4</tspan></text>
  </g>
</svg>
