<svg xmlns="http://www.w3.org/2000/svg" width="316" height="472.908" viewBox="0 0 316 472.908">
  <g id="Group_1692" data-name="Group 1692" transform="translate(72 31.453)">
    <path id="Path_2846" data-name="Path 2846" d="M12086.54-2267.378a56.079,56.079,0,0,0,8.553.808,41.1,41.1,0,0,0,7.78-.808s-1.6,2.948,1.784,8.1,9.788,6.472,11.623,11.428c1.772,4.783-6.757,9.636-6.757,9.636s-5.315,1.533-9.582,0-4.787-2.324-7.192-6.106-1.009-3.7-2.657-6.14-3.941-1.14-4.829-5.369S12086.54-2267.378,12086.54-2267.378Z" transform="translate(-11981.302 2677.938)" fill="#fff"/>
    <path id="Path_2845" data-name="Path 2845" d="M11689.194-2267.378l1.979,13.125a52.84,52.84,0,0,0-8.107,8.037c-3.83,4.771-1.581,7.869-7.716,8.411s-15.18-.808-16.616-6.1,9.128-9.978,12.913-15.3,2-8.167,2-8.167a45.1,45.1,0,0,0,7.885.822A41.1,41.1,0,0,0,11689.194-2267.378Z" transform="translate(-11600.015 2677.938)" fill="#fff"/>
    <path id="Path_2843" data-name="Path 2843" d="M11681.138-2894.285a89.444,89.444,0,0,0,15.552,1.192,87.644,87.644,0,0,0,14.488-1.83s.511.277-1.537,15.584-.254,50.679-.254,50.679a34.324,34.324,0,0,1-7.815,1.242,31.392,31.392,0,0,1-7.644-.931,126.6,126.6,0,0,0-5.927-29.873c-1.079-4.951-3.03-9.927-3.837-14.082C11680.966-2888.787,11681.138-2894.285,11681.138-2894.285Z" transform="translate(-11620.164 3239.024)" fill="#fff"/>
    <path id="Path_2844" data-name="Path 2844" d="M11709.268-2893.633a93.812,93.812,0,0,1-14.2.731,80.285,80.285,0,0,1-14.08-1.807s-1.511.184.537,15.492,3,50.434,3,50.434,1.793,1.48,5.659,1.558,11.076-1.558,11.076-1.558-2.071-12.45,2.562-28.372c1.078-4.95,1.237-10.588,2.044-14.743C11709.062-2888.382,11709.268-2893.633,11709.268-2893.633Z" transform="translate(-11579.305 3239.043)" fill="#fff"/>
    <path id="Path_2842" data-name="Path 2842" d="M11721.121-3168.47a140.73,140.73,0,0,1-15.533,1.088,89.76,89.76,0,0,1-11.926-.7s.3,13.33-.554,19.055a73.143,73.143,0,0,0-.866,9.607l14.953,2.011,13.926-1.121s.029-15.424-.6-23.034S11721.121-3168.47,11721.121-3168.47Z" transform="translate(-11590.38 3483.796)" fill="#fff"/>
    <path id="Path_2841" data-name="Path 2841" d="M11678.045-3168.327a140.825,140.825,0,0,0,15.535,1.087,86.431,86.431,0,0,0,13.4-1.087s-2.328,13.4-1.474,19.123,4.632,10,2.014,10.263c-1.292.129-15.511,1.013-15.511,1.013l-13.962-1.346Z" transform="translate(-11617.399 3483.654)" fill="#fff"/>
    <path id="Path_2839" data-name="Path 2839" d="M11620.937-4137.5l5.532-77.794s-4.662-1.249-8.591-7.337c-2.5-3.063-4.121-8.338-7.036-11.745-7.814-9.134-12.174-9.083-14.773-12.439-6.944-4.482-10.074-5.48-10.074-5.48s-.321,1.6-1.571,8.564a120.637,120.637,0,0,0-2.74,19.946c.674,12.463,1.842,31.073,4.062,46.445,2.441,16.9,4.117,18.335,5.92,29.991s0,9.849,0,9.849l15.847,1.035Z" transform="translate(-11531.242 4452.946)" fill="#fff"/>
    <path id="Path_2840" data-name="Path 2840" d="M11582.567-4144.373l-6.762-77.627a19.174,19.174,0,0,0,9.212-7.773c2.5-3.063,4.122-8.337,7.036-11.745,7.813-9.135,12.175-9.083,14.772-12.439,6.946-4.482,8.645-6.327,8.645-6.327s1.753,2.446,3,9.41a161.36,161.36,0,0,1,1.906,20.484c-.672,12.462-2.355,30.287-4.577,45.659-2.441,16.9-2.768,18.585-4.571,30.24s-1.356,10.883-1.356,10.883h-14.49Z" transform="translate(-11479.709 4459.56)" fill="#fff"/>
    <path id="Path_2838" data-name="Path 2838" d="M11626.625-4268.85s22.643,1.8,42.6,1.879a212.816,212.816,0,0,0,37.936-3.534s-12.607,12.072-21.911,21.411c-2.392,2.4-4.041,4.865-5.767,6.916-4.971,5.905-7.613,9.709-12.036,10.295-5.724.044-10.515-9.455-15.979-18.188S11626.625-4268.85,11626.625-4268.85Z" transform="translate(-11571.426 4469.324)" fill="#fff"/>
    <path id="Path_2837" data-name="Path 2837" d="M12056.816-4373.909l2.268,10.539s-11.441,2.075-21.075,3a155.662,155.662,0,0,1-17.458.686l-.365-10.937,18.437-.825Z" transform="translate(-11923.307 4561.819)" fill="#fff"/>
    <path id="Path_2836" data-name="Path 2836" d="M11628.362-4369.52l39.878,2.751v11.25l-41.615-2.395Z" transform="translate(-11571.426 4557.895)" fill="#fff"/>
    <path id="Path_2835" data-name="Path 2835" d="M12021.262-4500.851v13.644a92.432,92.432,0,0,0,17.563-.46c9-1.187,18.955-2.421,18.955-2.421l-.609-13.719-17.135,1.983Z" transform="translate(-11924.27 4677.985)" fill="#fff"/>
    <path id="Path_2834" data-name="Path 2834" d="M11643.907-4490l39.186,1.777v13.172h-10.413l-29.643-2.3Z" transform="translate(-11586.1 4665.641)" fill="#fff"/>
    <path id="Path_2833" data-name="Path 2833" d="M11695.4-4902.752a188.178,188.178,0,0,0,14.351,25.137c9.568,14.359,21.254,16.834,21.254,16.834a273.662,273.662,0,0,1-34.89,3.246c-18.536.457-39.256-1.419-39.256-1.419s10.694-2.753,19.62-14.417S11695.4-4902.752,11695.4-4902.752Z" transform="translate(-11598.459 5034.741)" fill="#fff"/>
    <path id="Path_2832" data-name="Path 2832" d="M12058.852-4918.17s-3.561,7.436-16.512,25.375c-12.6,17.453-22.359,17.637-22.359,17.637l.727-18.78-2.355-16.836,13.719-9.56Z" transform="translate(-11961.91 5050.359)" fill="#fff"/>
    <path id="Path_2831" data-name="Path 2831" d="M12021.218-4918.472s2.079,7.738,15.031,25.676c12.6,17.453,20.563,16.281,20.563,16.281l3.121-34.293-13.417-9.526Z" transform="translate(-11924.229 5050.466)" fill="#fff"/>
    <path id="Path_2828" data-name="Path 2828" d="M15332.542-5599.569a47.963,47.963,0,0,0-11.645-3.123,40.21,40.21,0,0,0-10.93.346s-3.148,1.283-5.27,15.1c-.482,3.151-.611,7.625-1.338,12.568-2.445,16.673-6.4,37.965-6.4,37.965a31.518,31.518,0,0,0,6.859,3.364c3.654,1.2,8.486,2.21,8.486,2.21a331.426,331.426,0,0,0,13.064-34.766C15327.614-5568.793,15332.542-5599.569,15332.542-5599.569Z" transform="translate(-15275.749 5755.896)" fill="#fff"/>
    <path id="Union_46" data-name="Union 46" d="M.144,42.2C-1.071,35.749,5.733,6.564,7.994,3.736c1.186-1.484.887,2.78.559,7.044-.3,3.861-.615,7.723.126,7.316,1.56-.857,3.923-19.242,6.239-18.04s-1.781,16.789.147,16.789S19.855.023,22.631.056s-3.382,17.992-1.465,19.337c.915.642,2.39-3.611,3.969-7.863,1.73-4.659,3.585-9.317,4.966-7.541,2.643,3.4-10.463,28.292-5.316,27.6s13.342-2.79,11.052.757C33.845,35.433,19.2,44.2,15.41,46.439l.06.064-.1-.039c-.542.32-.849.5-.849.5Z" transform="translate(36.233 267.064) rotate(180)" fill="#fff"/>
    <path id="Path_2825" data-name="Path 2825" d="M15307.92-5915.6s-11.158-1.645-16.139-.335c-.84.222-.562,3.627-.562,3.627l-.748,13.11-1.916,17.649s6.338-2.3,12.066-1.576a37.562,37.562,0,0,1,11.365,3.785s-.432-9.013-1.535-17.939S15307.92-5915.6,15307.92-5915.6Z" transform="translate(-15255.782 6036.423)" fill="#fff"/>
    <path id="Path_2824" data-name="Path 2824" d="M15084.125-6394.62s-32.84,12.762-33.1,12.889c-16.348,12.641-10.068,29.3-10.363,38.2,0,0,13.824-2.533,16.262.5s3.766,18.162,3.766,18.162,22.586-11.676,26.146-31.809S15084.125-6394.62,15084.125-6394.62Z" transform="translate(-15004.95 6465.1)" fill="#fff"/>
    <path id="Path_2819" data-name="Path 2819" d="M15051.745-6410.019s23.154,11.747,34.605,16.98,9.01,26.842,9.307,35.743c0,0-13.824-2.533-16.264.5s-3.764,18.163-3.764,18.163-22.586-11.676-26.146-31.809S15051.745-6410.019,15051.745-6410.019Z" transform="translate(-14939.999 6478.237)" fill="#fff"/>
    <path id="Path_2820" data-name="Path 2820" d="M15301.154-5915.6s11.16-1.645,16.139-.335c.84.222.563,3.627.563,3.627v13.014l1.8,16.493a40.361,40.361,0,0,0-11.2-.323,52.616,52.616,0,0,0-11.715,3.23,129.107,129.107,0,0,1,.848-17.4A161.366,161.366,0,0,1,15301.154-5915.6Z" transform="translate(-15162.077 6036.74)" fill="#fff"/>
    <path id="Union_45" data-name="Union 45" d="M8.692,28.867c-.722-.4.008,3.591.638,7.578.73,4.624,1.325,9.248-.638,7.034C5.036,39.356-1.057,11.214.158,4.764L14.532,0s.307.179.849.5l.1-.039-.06.064c3.787,2.236,18.436,11.007,20.428,14.09,2.291,3.546-7.227,2.032-11.757,0s6.52,23.289,5.8,27.195c-.382,2.062-2.364-2.651-4.433-7.363-1.851-4.216-3.771-8.432-4.677-7.8-1.918,1.345,4.639,20.225,1.863,20.258s-5.785-18.04-7.714-18.04,2.316,16.837,0,18.04a.473.473,0,0,1-.22.056C12.466,46.964,10.2,29.7,8.692,28.867Z" transform="translate(155.616 221.053)" fill="#fff"/>
    <path id="Path_2821" data-name="Path 2821" d="M15296.713-5599.569a47.933,47.933,0,0,1,11.643-3.123,40.221,40.221,0,0,1,10.932.346s3.146,1.283,5.268,15.1c.484,3.151.611,7.625,1.338,12.568,2.443,16.673,6.43,39.406,6.43,39.406a19.129,19.129,0,0,1-6.506,3.983,19.525,19.525,0,0,1-7.885.544s-8.854-17.922-14.045-35.16C15301.639-5568.793,15296.713-5599.569,15296.713-5599.569Z" transform="translate(-15162.289 5756.213)" fill="#fff"/>
    <path id="Path_2811" data-name="Path 2811" d="M15133.352-6171.781a54.109,54.109,0,0,0,16.654,2.5c6.125-.181,12.379-3.185,15.787-3.285-1.607,2.308-4.967,19.734-2.807,35.1,2.006,15.753,13.391,26.756,13.391,26.756a192.537,192.537,0,0,1-26.957,2.3,161.532,161.532,0,0,1-25.566-2.244s10.807-12.006,13.182-27.286S15133.352-6171.781,15133.352-6171.781Z" transform="translate(-15054.228 6239.548)" fill="#fff"/>
    <g id="Group_1623" data-name="Group 1623" transform="translate(71.631)">
      <path id="Path_2786" data-name="Path 2786" d="M2755.055,251.342c3.706-15.663,1.087-10.881.636-14.826a25.593,25.593,0,0,0-1.589-4.342,69.669,69.669,0,0,1-5.93-14.191c-1.246-4.8.846-4.447.953-5.083,1.051-6.295-2.574-29.033,21.392-29.441,10.709-.182,17.44,4.66,20.439,10.7,3.459,6.961,2.255,15.279,2.224,16.309,0,.041,0,.106,0,.106s2.863,1.867,2.223,6.566-4.766,12.179-4.766,12.179l-4.13,9.743s-.209,9.409,1.377,11.967" transform="translate(-2747.777 -183.453)" fill="#f66569"/>
      <path id="Path_2785" data-name="Path 2785" d="M11851.5-5507.076s13.576,7.788,32.937-.424" transform="translate(-11844.326 5574.965)" fill="#f66569"/>
    </g>
  </g>
  <g id="Group_1636" data-name="Group 1636" transform="translate(72 32)">
    <text id="_1" data-name="1" transform="translate(96.825 39.841)" font-size="12" font-family="Helvetica"><tspan x="-6.674" y="0">1</tspan></text>
    <g id="Group_1626" data-name="Group 1626" transform="translate(0 0)">
      <path id="Path_2769" data-name="Path 2769" d="M3123.225,817.224c7.176,6.949,29.07,13.334,35.01,17.374a20.163,20.163,0,0,1,6.764,8.754,37.11,37.11,0,0,1,2.289,9.313s-.387,43.68,1.962,50.168a66.427,66.427,0,0,1,4.711,14.036c2,20.433,7.764,54.153,7.764,54.153s18.624,10.635,20.913,14.18-7.224,2.032-11.752,0,7.7,22.125,6.219,26.9-7.614-16.218-9.531-14.874,4.638,20.218,1.863,20.251-5.783-18.033-7.711-18.033,2.315,16.831,0,18.033-4.677-17.177-6.236-18.033,4.331,19.856,0,14.607-9.444-31.047-8.228-37.494c.6-3.2-8.216-19.434-13.553-35.866A194.146,194.146,0,0,1,3146.4,907.3s-.163-21.75,4.907-36.938" transform="translate(-3012.202 -750.087)" fill="none" stroke="#000" stroke-width="1"/>
      <path id="Path_2768" data-name="Path 2768" d="M2209.577,323.7c-2.06,1.947-4.158,47-.474,55.148s5.324,33.925,5.324,33.925a257.049,257.049,0,0,1-1.879,27.207c-1.787,14.874-5.582,33.113-7.351,48.27-1.745,14.957-1.485,26.932-.5,29.24,1.838,4.327-4.2,32.076-7.472,53.21a145.978,145.978,0,0,0-1.734,24.365,7.6,7.6,0,0,0,0,4.125c.6,2.584,7.123,6.109,10.328,9.932,1.349,1.609,5.115,5.064,2.662,7.917-3.355,3.9-4.566,6.047-11.256,6.407-3.227.174-11.513-2.558-12.58-8.505s-5.83-6.743-6.056-7.6c-.2-.176-2.011-5.722,0-12.279,1.9-6.756-3.926-60.868-3.039-69.075s2.362-18.949,2.362-18.949l-8.369-86.762s-7.845,97.031-7.7,97.21-.092-.545,0,0c.551,3.26,3.535,4.137,3.172,15.279-4.714,23.446-1.8,61.156-1.8,61.156a58.329,58.329,0,0,0,.709,7.331c.491,3.385,1.149,4.674,1.009,4.923-.139,2.053-2.06,1.542-5.831,5.743s-3.717,9.774-9.248,11.06-19.8-1.816-16.952-8.27,14.848-9.972,14.555-19.648c1.189-14.168-8.957-38.054-11.471-55.154a170.789,170.789,0,0,1-1.808-20.964s1.287-11.834,0-30.4a375.575,375.575,0,0,1-7.554-45.572c-1.242-13.274-1.7-25.537-2-29.179-.719-8.65,4.533-32.652,5.394-36.208s1.923-29.731,2.429-36.4-6.391-37.4-7-37.808,6.509,31.977,4.57,36.177c-.356.772.1,7.01-1.063,13.241a121.779,121.779,0,0,1-4.714,16.917s-12.87,35.7-14.187,38.719a1.531,1.531,0,0,1-.194.358c.221,2.929-5.457,38.468-8.01,37.545s1.651-15.03,0-14.19-3.556,18.175-6.6,17.55,1.8-16.557,0-16.557-4.353,14.939-7.189,16.557,3.025-18.505,1.02-19.345-5.807,16.98-9.04,15.985,8.376-21.843,6.708-26.551-11.958,2.667-12.224-1.077,20.095-14.463,20.095-14.463l4.833-23.935,2.473-26.13,4.372-17.465s3.339-28.667,3.887-33.391-7.5-16.146,5.011-31.689c9.6-11.93,20.38-10.729,26.313-14.332.025-.014,10.465-1.843,11.522-6.31,3.7-15.658,1.1-10.924.648-14.868a25.446,25.446,0,0,0-1.585-4.366,69.809,69.809,0,0,1-5.9-14.2c-1.245-4.8.814-4.366.919-5,1.051-6.292-2.59-29.1,21.367-29.5,10.705-.182,17.514,4.654,20.513,10.688,3.458,6.958,2.211,15.326,2.181,16.355,0,.041,0,.079,0,.079s2.84,1.842,2.2,6.539-4.757,12.249-4.757,12.249l-4.087,9.669s-.258,9.425,1.327,11.983" transform="translate(-2074.511 -183.052)" fill="none" stroke="#000" stroke-linecap="round" stroke-width="1"/>
      <path id="Path_2789" data-name="Path 2789" d="M2266.486,2274.089a26.616,26.616,0,0,1,4.479,1.894,37.709,37.709,0,0,0,10.965,3.507" transform="translate(-2246.269 -2054.944)" fill="none" stroke="#000" stroke-width="1"/>
      <path id="Path_2788" data-name="Path 2788" d="M13373.552-4702.074s2.773-2.116,8.693-2.25c3.781-.086,8.785-.292,15.447,4.5" transform="translate(-13342.211 4856.863)" fill="none" stroke="#000" stroke-width="1"/>
      <path id="Path_2787" data-name="Path 2787" d="M13414.724-5014.083s12.686-1.248,15.2.417" transform="translate(-13379.025 5134.205)" fill="none" stroke="#000" stroke-linecap="round" stroke-width="1"/>
      <path id="Path_2744" data-name="Path 2744" d="M13625.6-5515.117s19.184,49.543-23.256,70.694" transform="translate(-13547.203 5583.382)" fill="none" stroke="#000" stroke-width="1"/>
      <path id="Path_2745" data-name="Path 2745" d="M13605.869-5520.493s-18.361,50.205,24.074,71.355" transform="translate(-13494.421 5588.19)" fill="none" stroke="#000" stroke-width="1"/>
      <path id="Path_2790" data-name="Path 2790" d="M14541.8-4054.92s8.738,1.851,14.406-4.291" transform="translate(-14386.78 4280.019)" fill="none" stroke="#000" stroke-width="1"/>
      <path id="Path_2791" data-name="Path 2791" d="M14347.3-4697.1s13.5-5.328,22.738-2.6" transform="translate(-14212.87 4853.398)" fill="none" stroke="#000" stroke-width="1"/>
      <path id="Path_2792" data-name="Path 2792" d="M14403.705-5013.774s-12.027-1.6-16.043.317" transform="translate(-14248.961 5134.084)" fill="none" stroke="#000" stroke-width="1"/>
      <path id="Path_2770" data-name="Path 2770" d="M11853.568-5512.376s13.049,7.393,32.4-.815" transform="translate(-11774.903 5580.072)" fill="none" stroke="#000" stroke-width="1"/>
      <path id="Path_2771" data-name="Path 2771" d="M0,0A221.176,221.176,0,0,0,26.986,1.984,207.49,207.49,0,0,0,53.462.106" transform="translate(68.6 129.521)" fill="none" stroke="#000" stroke-width="1"/>
      <path id="Path_2774" data-name="Path 2774" d="M-96.243-2.154S-70.387-.76-56.842-.637s35.591-2.986,35.591-2.986" transform="translate(153.49 177.33)" fill="none" stroke="#000" stroke-width="1"/>
      <path id="Path_2775" data-name="Path 2775" d="M-124.348-2.365S-94.314-.177-80.2-.029c12.826.135,32.968-2.945,36.558-3.512l.517-.083" transform="translate(178.619 201.917)" fill="none" stroke="#000" stroke-width="1"/>
      <path id="Path_2776" data-name="Path 2776" d="M-108.021.747s28.306,2.621,42.415,2.77C-52.781,3.652-30.693.342-30.693.342" transform="translate(164.233 187.15)" fill="none" stroke="#000" stroke-width="1"/>
      <path id="Path_2772" data-name="Path 2772" d="M12021.219-4903.156s18.564,40.983,35.888,42.071" transform="translate(-11924.806 5034.619)" fill="none" stroke="#000" stroke-width="1"/>
      <path id="Path_2773" data-name="Path 2773" d="M12033.16-4912.5s-21.579,42.494-38.9,43.581" transform="translate(-11937.014 5043.927)" fill="none" stroke="#000" stroke-width="1"/>
      <path id="Path_2777" data-name="Path 2777" d="M12021.218-4475.882v25.234" transform="translate(-11924.805 4652.579)" fill="none" stroke="#000" stroke-width="1"/>
      <path id="Path_2778" data-name="Path 2778" d="M11623.152-4268.411s21.559,11.8,25.578,19.68,10,17.231,15.4,17.274,18.151-17.274,18.151-17.274l21.956-21.283" transform="translate(-11568.881 4468.504)" fill="none" stroke="#000" stroke-width="1"/>
      <path id="Path_2779" data-name="Path 2779" d="M11678.046-3328.22s10.135.861,17.5.9a64.153,64.153,0,0,0,11.532-.787" transform="translate(-11617.964 3643.354)" fill="none" stroke="#000" stroke-width="1"/>
      <path id="Path_2781" data-name="Path 2781" d="M11678.046-3333.451s10.135.86,17.5.9a48.956,48.956,0,0,0,12.686-1.518" transform="translate(-11617.964 3678.015)" fill="none" stroke="#000" stroke-width="1"/>
      <path id="Path_2780" data-name="Path 2780" d="M11685.38-3328.327s9.358.873,16.727.91a54.352,54.352,0,0,0,11.039-.8" transform="translate(-11583.021 3643.449)" fill="none" stroke="#000" stroke-width="1"/>
      <path id="Path_2782" data-name="Path 2782" d="M11671.873-3334.934a163.942,163.942,0,0,0,18.156,1.608,54.327,54.327,0,0,0,11.039-.8" transform="translate(-11570.945 3679.21)" fill="none" stroke="#000" stroke-width="1"/>
      <path id="Path_2783" data-name="Path 2783" d="M11798.131-2267.378s3.936,1.485,11.057.756a44.646,44.646,0,0,0,4.757-.756" transform="translate(-11725.336 2677.88)" fill="none" stroke="#000" stroke-width="1"/>
      <path id="Path_2784" data-name="Path 2784" d="M11798.131-2267.378s3.936,1.485,11.057.756a44.646,44.646,0,0,0,4.757-.756" transform="translate(-11693.471 2677.88)" fill="none" stroke="#000" stroke-width="1"/>
      <path id="Path_2794" data-name="Path 2794" d="M13605.869-5520.493s-18.361,50.205,24.074,71.355" transform="translate(-13494.421 5588.19)" fill="none" stroke="#000" stroke-width="1"/>
      <path id="Path_2812" data-name="Path 2812" d="M14403.705-5013.774s-12.027-1.6-16.043.317" transform="translate(-14248.961 5134.084)" fill="none" stroke="#000" stroke-width="1"/>
      <path id="Path_2813" data-name="Path 2813" d="M13605.869-5520.493s-18.361,50.205,24.074,71.355" transform="translate(-13494.421 5588.19)" fill="none" stroke="#000" stroke-width="1"/>
    </g>
    <text id="_3" data-name="3" transform="translate(97.825 106.841)" font-size="11" font-family="Helvetica"><tspan x="-6.118" y="0">3</tspan></text>
    <text id="_2" data-name="2" transform="translate(62.825 101.841)" font-size="11" font-family="Helvetica"><tspan x="-6.118" y="0">2</tspan></text>
    <text id="_5" data-name="5" transform="translate(47.825 141.841)" font-size="11" font-family="Helvetica"><tspan x="-6.118" y="0">5</tspan></text>
    <text id="_34" data-name="34" transform="translate(43.825 188.841)" font-size="12" font-family="Helvetica"><tspan x="-13.348" y="0">34</tspan></text>
    <text id="_50" data-name="50" transform="translate(29.825 238.841)" font-size="12" font-family="Helvetica"><tspan x="-13.348" y="0">50</tspan></text>
    <text id="_51" data-name="51" transform="translate(171.825 238.841)" font-size="11" font-family="Helvetica"><tspan x="-12.235" y="0">51</tspan></text>
    <text id="_35" data-name="35" transform="translate(159.825 188.841)" font-size="11" font-family="Helvetica"><tspan x="-12.235" y="0">35</tspan></text>
    <text id="_6" data-name="6" transform="translate(74.825 147.841)" font-size="10" font-family="Helvetica"><tspan x="-5.562" y="0">6</tspan></text>
    <text id="_10" data-name="10" transform="translate(82.825 185.841)" font-size="12" font-family="Helvetica"><tspan x="-13.348" y="0">10</tspan></text>
    <text id="_12" data-name="12" transform="translate(82.825 198.841)" font-size="10" font-family="Helvetica"><tspan x="-11.123" y="0">12</tspan></text>
    <text id="_13" data-name="13" transform="translate(121.825 198.841)" font-size="10" font-family="Helvetica"><tspan x="-11.123" y="0">13</tspan></text>
    <text id="_11" data-name="11" transform="translate(118.825 185.841)" font-size="12" font-family="Helvetica"><tspan x="-12.463" y="0">11</tspan></text>
    <text id="_7" data-name="7" transform="translate(97.825 163.841)" font-size="12" font-family="Helvetica"><tspan x="-6.674" y="0">7</tspan></text>
    <text id="_14" data-name="14" transform="translate(100.825 223.841)" font-size="11" font-family="Helvetica"><tspan x="-12.235" y="0">14</tspan></text>
    <text id="_15" data-name="15" transform="translate(76.825 269.841)" font-size="11" font-family="Helvetica"><tspan x="-12.235" y="0">15</tspan></text>
    <text id="_36" data-name="36" transform="translate(72.825 334.841)" font-size="11" font-family="Helvetica"><tspan x="-6.118" y="0">36</tspan></text>
    <text id="_38" data-name="38" transform="translate(76.825 380.841)" font-size="11" font-family="Helvetica"><tspan x="-6.118" y="0">38</tspan></text>
    <text id="_40" data-name="40" transform="translate(72.825 430.841)" font-size="11" font-family="Helvetica"><tspan x="-6.118" y="0">40</tspan></text>
    <text id="_16" data-name="16" transform="translate(123.825 269.841)" font-size="11" font-family="Helvetica"><tspan x="-12.235" y="0">16</tspan></text>
    <text id="_37" data-name="37" transform="translate(116.825 334.841)" font-size="12" font-family="Helvetica"><tspan x="-6.674" y="0">37</tspan></text>
    <text id="_39" data-name="39" transform="translate(114.825 380.841)" font-size="11" font-family="Helvetica"><tspan x="-6.118" y="0">39</tspan></text>
    <text id="_41" data-name="41" transform="translate(118.825 430.841)" font-size="12" font-family="Helvetica"><tspan x="-6.674" y="0">41</tspan></text>
    <text id="_8" data-name="8" transform="translate(121.825 148.841)" font-size="11" font-family="Helvetica"><tspan x="-6.118" y="0">8</tspan></text>
    <text id="_9" data-name="9" transform="translate(149.825 140.841)" font-size="10" font-family="Helvetica"><tspan x="-5.562" y="0">9</tspan></text>
    <text id="_4" data-name="4" transform="translate(130.825 101.841)" font-size="11" font-family="Helvetica"><tspan x="-6.118" y="0">4</tspan></text>
  </g>
  <text id="Frente" transform="translate(144 14)" font-size="14" font-family="Montserrat-SemiBold, Montserrat" font-weight="600"><tspan x="0" y="0">Frente</tspan></text>
  <g id="Group_1628" data-name="Group 1628" transform="translate(-25 -213)">
    <text id="Esquerdo" transform="translate(237 283)" font-size="10" font-family="Montserrat-Medium, Montserrat" font-weight="500"><tspan x="0" y="0">Esquerdo</tspan></text>
    <text id="Direito" transform="translate(99 283)" font-size="10" font-family="Montserrat-Medium, Montserrat" font-weight="500"><tspan x="0" y="0">Direito</tspan></text>
  </g>
  <g id="Group_1006" data-name="Group 1006" transform="translate(0 141.816)">
    <rect id="Rectangle_1922" data-name="Rectangle 1922" width="18" height="18" rx="4" transform="translate(0 0.184)" fill="#44afab"/>
  </g>
  <g id="Group_1629" data-name="Group 1629" transform="translate(0 90)">
    <rect id="Rectangle_1922-2" data-name="Rectangle 1922" width="18" height="18" rx="4" fill="#f66569"/>
  </g>
  <g id="Group_1630" data-name="Group 1630" transform="translate(0 115.908)">
    <rect id="Rectangle_1922-3" data-name="Rectangle 1922" width="18" height="18" rx="4" transform="translate(0 0.092)" fill="#f6f665"/>
  </g>
  <text id="Dor_forte" data-name="Dor forte" transform="translate(24 102)" fill="#f66569" font-size="10" font-family="Montserrat-Medium, Montserrat" font-weight="500"><tspan x="0" y="0">Dor forte</tspan></text>
  <text id="Dor_moderada" data-name="Dor moderada" transform="translate(24 128)" font-size="10" font-family="Montserrat-Medium, Montserrat" font-weight="500"><tspan x="0" y="0">Dor moderada</tspan></text>
  <text id="Dor_leve" data-name="Dor leve" transform="translate(24 154)" font-size="10" font-family="Montserrat-Medium, Montserrat" font-weight="500"><tspan x="0" y="0">Dor leve</tspan></text>
  <g id="Group_1631" data-name="Group 1631" transform="translate(-17 205)">
    <text id="Costas" transform="translate(292 264)" font-size="12" font-family="Montserrat-Medium, Montserrat" font-weight="500"><tspan x="0" y="0">Costas</tspan></text>
    <g id="girar-objeto" transform="translate(296 208.275)">
      <path id="Path_2878" data-name="Path 2878" d="M31.084,26.057a.511.511,0,0,0-.51.51c0,3.327-6.768,6.136-14.778,6.137S1.017,29.893,1.017,26.567c0-1.536,1.521-3.08,4.171-4.232a27.23,27.23,0,0,1,10.429-1.9L13.8,22.25a.51.51,0,0,0,.722.72l3.05-3.047-3.05-3.05a.509.509,0,0,0-.72.72l1.823,1.823A28.321,28.321,0,0,0,4.784,21.4C1.7,22.742,0,24.578,0,26.568c0,4.014,6.94,7.156,15.8,7.156s15.8-3.146,15.8-7.158A.514.514,0,0,0,31.084,26.057Z" transform="translate(0 0)"/>
    </g>
  </g>
</svg>
