<svg xmlns="http://www.w3.org/2000/svg" width="178" height="372.509" viewBox="0 0 178 372.509">
  <g id="Group_1678" data-name="Group 1678" transform="translate(-18435 6177)">
    <path id="Path_2868" data-name="Path 2868" d="M13561.381-2258.169s2.667,13.574,1.429,15.682c-.431.731-2.5,2.178-5.6,2.377-5.814.373-14.606-1.409-19.22-3.014s-6.785-3.027-5.321-5.268,10.292-2.034,12.464-3.9c3.087-1.009,3.577-6.513,3.577-6.513a21.726,21.726,0,0,0,6.47,1.587A17.885,17.885,0,0,0,13561.381-2258.169Z" transform="translate(4957.509 -3565.728)" fill="#f6f665"/>
    <path id="Path_2867" data-name="Path 2867" d="M14046.137-2251.2h13.082a5.821,5.821,0,0,0,.535,3.405c.844,1.274,5.26,1.966,5.693,2.255,4.027,2.689,10.938,2.821,10.141,5.571s-7.451,4.464-13.322,5.431c-4.086.674-8.219,1.551-11.494,1.623a12.067,12.067,0,0,1-5.416-1.012C14043.725-2234.848,14046.137-2251.2,14046.137-2251.2Z" transform="translate(4487.477 -3572.7)" fill="#f6f665"/>
    <path id="Path_2865" data-name="Path 2865" d="M13640.169-2989.8a72.152,72.152,0,0,1,11.059-1.722,62.426,62.426,0,0,1,10.619.348,31.217,31.217,0,0,1,2.125,5.428c1.379,4.195-.529,12.53-.529,12.53a165.146,165.146,0,0,0-2.172,18.365c-.713,10.784-.674,24.771-.674,24.771a10.58,10.58,0,0,1-5.613.976,35.066,35.066,0,0,1-7.363-1.858,132.578,132.578,0,0,0-2.916-24.4c-1-4.933-1.541-9.567-2.7-15.543l-1.334-9.235Z" transform="translate(4858.516 -2893.73)" fill="#44afab"/>
    <path id="Path_2866" data-name="Path 2866" d="M13670.25-2990.114a85.944,85.944,0,0,0-10.787-1.463,77.673,77.673,0,0,0-11.346.3s.506,1-.873,5.192.639,13.91.639,13.91.434,6.6,1.145,17.383.783,24.654.783,24.654a12.157,12.157,0,0,0,5.895.976c3.256-.312,7.23-.976,7.23-.976a108.8,108.8,0,0,1,2.346-25.281c1-4.934,1.615-9.834,2.773-15.81l1.553-9.074Z" transform="translate(4883.841 -2893.676)" fill="#44afab"/>
    <path id="Path_2863" data-name="Path 2863" d="M13642.276-3254.41a14.579,14.579,0,0,0,9.219,3.076c5.789,0,13.941-3.076,13.941-3.076l-1.674,21.882a126.122,126.122,0,0,0-13.367,0,25.6,25.6,0,0,0-8.119,1.721Z" transform="translate(4856.583 -2652.605)" fill="#f6f665"/>
    <path id="Path_2864" data-name="Path 2864" d="M13642.276-3254.41a14.579,14.579,0,0,0,9.219,3.076,64.047,64.047,0,0,0,13.141-1.889l-1.09,13.92.848,8.822s-6.77-2.018-12.141-1.588-9.686.368-9.686.368l.775-7.6Z" transform="translate(4889.615 -2653.268)" fill="#f6f665"/>
    <path id="Path_2861" data-name="Path 2861" d="M13584.384-3975.873s-3.832,54.086-4.1,54.153c-.132.034-7.81,3.172-13.565,3.07a16.08,16.08,0,0,1-9.56-3.443s-3.315-13.632-5.289-28.636-2.3-31.346-2.3-31.346,9.284,8.8,18.063,10.361S13584.384-3975.873,13584.384-3975.873Z" transform="translate(4941.597 -1985.268)" fill="#f66569"/>
    <path id="Path_2862" data-name="Path 2862" d="M13548.963-3975.539s4.955,53.252,5.22,53.319c.133.034,6.832,3.509,12.587,3.407a22.83,22.83,0,0,0,9.9-2.451s2.877-14.461,4.852-29.464,2.3-31.346,2.3-31.346-9.284,8.8-18.063,10.361S13548.963-3975.539,13548.963-3975.539Z" transform="translate(4977.425 -1985.268)" fill="#f66569"/>
    <path id="Path_2860" data-name="Path 2860" d="M13842.288-4347.538a16.452,16.452,0,0,0,5.246-.878,24.731,24.731,0,0,0,5.3-2.879,20.788,20.788,0,0,0,5.342,2.879,41.328,41.328,0,0,0,7.283,1.678v-44.629a44.093,44.093,0,0,1-11.523,1.8,45.593,45.593,0,0,1-11.645-1.8Z" transform="translate(4673.171 -1609.853)" fill="#f66569"/>
    <path id="Path_2857" data-name="Path 2857" d="M13553.967-4316.747a30.771,30.771,0,0,1,10.2-2.257,29.389,29.389,0,0,1,10.092,1.9l.316,36.406a26.082,26.082,0,0,1-6.029,0,29,29,0,0,1-7.779-2.1c-6.15-2.613-10.789-8.351-10.789-8.351a102.353,102.353,0,0,1,1.152-11.159C13552.129-4308.709,13553.967-4316.747,13553.967-4316.747Z" transform="translate(4941.223 -1676.214)" fill="#44afab"/>
    <path id="Path_2858" data-name="Path 2858" d="M13586.678-4310.941a27.728,27.728,0,0,0-10.268-2.606,33.951,33.951,0,0,0-8.922.978v37.341s1.15-.088,4.576-.469c2.4-.268,5.953-1.693,8.5-2.775a24.655,24.655,0,0,0,9.729-7.884,91.432,91.432,0,0,0-1.107-10.535C13588.186-4303.291,13586.678-4310.941,13586.678-4310.941Z" transform="translate(4971.226 -1681.299)" fill="#44afab"/>
    <path id="Path_2856" data-name="Path 2856" d="M13867.783-5004.026a52.393,52.393,0,0,1-11.234,1.371,62.582,62.582,0,0,1-11.865-1.371v-45.8a24.288,24.288,0,0,0,6.723-4.048,19.993,19.993,0,0,0,4.16-5.952,29.273,29.273,0,0,0,5.471,6.681,22.589,22.589,0,0,0,6.746,3.77Z" transform="translate(4670.975 -996.769)" fill="#44afab"/>
    <path id="Path_2854" data-name="Path 2854" d="M13601.787-4643a53.745,53.745,0,0,0,9.461-2.133,59.471,59.471,0,0,0,9.117-4.111v29.321a28.116,28.116,0,0,0-10.189-1.908,27.219,27.219,0,0,0-9.895,2.726Z" transform="translate(4895.093 -1373.327)" fill="#f6f665"/>
    <path id="Path_2855" data-name="Path 2855" d="M13621.9-4640.663s-3.68-1.125-8.325-2.686a40.072,40.072,0,0,1-8.649-4.3v29.048a54.283,54.283,0,0,1,9.8-.594,20.85,20.85,0,0,1,9.373,3.066l-1.937-8.042Z" transform="translate(4933.912 -1375.288)" fill="#f6f665"/>
    <path id="Path_2852" data-name="Path 2852" d="M13621.78-4925.128v22.529a52.862,52.862,0,0,1-9,4.6,49.477,49.477,0,0,1-9.614,2.4s.693-1.449.439-7-2.023-15.328-2.023-15.328a72.749,72.749,0,0,0,11.2-2.765A45.979,45.979,0,0,0,13621.78-4925.128Z" transform="translate(4893.904 -1120.295)" fill="#f66569"/>
    <path id="Path_2853" data-name="Path 2853" d="M13610.513-4912.015v21.441a34.524,34.524,0,0,0,8.263,4.6,39.1,39.1,0,0,0,8.508,2.176s.413-1.225.667-6.777a143.437,143.437,0,0,1,1.814-14.342s-5.939-1.95-10.989-3.751S13610.513-4912.015,13610.513-4912.015Z" transform="translate(4928.369 -1132.487)" fill="#f66569"/>
    <path id="Path_2850" data-name="Path 2850" d="M13410.581-5412.238h18.824l.026,40.444a69.072,69.072,0,0,1-9.567,4.618,79.077,79.077,0,0,1-10.633,3.061l-3.729-14.468a12.1,12.1,0,0,0-4.31-.711,65.2,65.2,0,0,0-7.215.446,22.512,22.512,0,0,1-2.142-9.914c.229-5.227.482-6.165,3.061-11s3.358-5.286,7.258-8.327A25.176,25.176,0,0,1,13410.581-5412.238Z" transform="translate(5086.254 -673.544)" fill="#44afab"/>
    <path id="Path_2851" data-name="Path 2851" d="M13421.965-5412.238h-15.128l-.182,40.842a41.841,41.841,0,0,0,8.337,4.22,79.034,79.034,0,0,0,10.633,3.061l3.259-14.732a30.472,30.472,0,0,1,4.78-.446,65.17,65.17,0,0,1,7.214.446,44.958,44.958,0,0,0,.522-9.238c-.23-5.227.693-6.791-1.887-11.622s-2.642-4.753-6.541-7.794S13421.965-5412.238,13421.965-5412.238Z" transform="translate(5132.155 -673.461)" fill="#44afab"/>
    <path id="Path_2849" data-name="Path 2849" d="M13845.085-5412.238h23.18v41.182a38.429,38.429,0,0,1-7.926-5.466,19.2,19.2,0,0,1-4.312-6.475,20.615,20.615,0,0,1-4.863,7.021,43.674,43.674,0,0,1-6.078,4.454Z" transform="translate(4670.606 -673.541)" fill="#f66569"/>
    <path id="Path_2848" data-name="Path 2848" d="M13646.685-5593.067a38.286,38.286,0,0,0,11.559,2.234,41.267,41.267,0,0,0,11.879-1.984s-.74,5.716,2.318,7.944,13.66,6.728,13.66,6.728l-56.2-.117,6.714-2.446s5.468-.516,7.985-3.605S13646.685-5593.067,13646.685-5593.067Z" transform="translate(4867.931 -507.602)" fill="#f6f665"/>
    <path id="Path_2847" data-name="Path 2847" d="M13757.3-6100.62a34.1,34.1,0,0,0,10.945,2.181,44.032,44.032,0,0,0,12-1.81v-2.788s1.8-4.062,3.785-8.382c1.186-2.577,2.721-5.053,3.2-7.353,1.279-6.134-1.676-6.473-1.676-6.473s4.637-20.046-16.121-21.315-18.277,22.938-18.277,22.938-2.09-.1-.678,4.851,6.326,14.952,6.326,14.952Z" transform="translate(4757.81 0)" fill="#44afab"/>
    <path id="Path_2870" data-name="Path 2870" d="M15324.844-5600.292a37.582,37.582,0,0,0-9.125-2.446,31.513,31.513,0,0,0-8.564.271s-2.469,1.005-4.129,11.836c-.379,2.47-.48,5.976-1.049,9.85-1.916,13.066-5.02,29.752-5.02,29.752a24.681,24.681,0,0,0,5.375,2.636c2.865.939,6.65,1.732,6.65,1.732a259.644,259.644,0,0,0,10.238-27.244C15320.984-5576.174,15324.844-5600.292,15324.844-5600.292Z" transform="translate(3170.729 -423.957)" fill="#f6f665"/>
    <path id="Union_47" data-name="Union 47" d="M.113,33.069C-.839,28.015,4.493,5.144,6.264,2.928c.929-1.163.695,2.179.438,5.52-.232,3.026-.482,6.052.1,5.733C8.023,13.51,9.875-.9,11.69.044s-1.4,13.157.115,13.157S15.56.018,17.735.044s-2.651,14.1-1.148,15.154c.717.5,1.873-2.83,3.11-6.162,1.356-3.651,2.809-7.3,3.892-5.91,2.071,2.662-8.2,22.171-4.166,21.632s10.456-2.186,8.661.593c-1.561,2.416-13.04,9.29-16.008,11.042l.047.05-.08-.031c-.424.25-.665.391-.665.391Z" transform="translate(18479.791 -5937.381) rotate(180)" fill="#44afab"/>
    <path id="Path_2869" data-name="Path 2869" d="M15303.732-5915.786s-8.748-1.289-12.648-.263c-.658.174-.439,2.843-.439,2.843l-.588,10.273-1.5,13.831a23.6,23.6,0,0,1,9.457-1.234,29.463,29.463,0,0,1,8.906,2.966s-.338-7.063-1.2-14.059S15303.732-5915.786,15303.732-5915.786Z" transform="translate(3188.443 -136.376)" fill="#f66569"/>
    <path id="Path_2873" data-name="Path 2873" d="M15300.193-5915.786s8.746-1.289,12.646-.263c.658.174.441,2.843.441,2.843v10.2l1.412,12.925a31.631,31.631,0,0,0-8.779-.253,41.23,41.23,0,0,0-9.182,2.531,101.071,101.071,0,0,1,.664-13.64A126.47,126.47,0,0,1,15300.193-5915.786Z" transform="translate(3260.528 -136.375)" fill="#f66569"/>
    <path id="Union_48" data-name="Union 48" d="M6.812,22.622c-.566-.311.006,2.814.5,5.938.572,3.624,1.039,7.247-.5,5.513C3.947,30.842-.829,8.788.124,3.734L11.388,0s.241.14.665.391l.08-.031-.047.05c2.968,1.752,14.447,8.626,16.008,11.042,1.8,2.779-5.663,1.593-9.214,0s5.11,18.25,4.543,21.312c-.3,1.616-1.852-2.077-3.474-5.77-1.451-3.3-2.956-6.608-3.665-6.11-1.5,1.054,3.635,15.85,1.46,15.876S13.212,22.622,11.7,22.622s1.815,13.195,0,14.137a.371.371,0,0,1-.172.044C9.769,36.8,8,23.272,6.812,22.622Z" transform="translate(18573.1 -5973.935)" fill="#44afab"/>
    <path id="Path_2874" data-name="Path 2874" d="M15296.713-5600.292a37.584,37.584,0,0,1,9.123-2.446,31.531,31.531,0,0,1,8.566.271s2.467,1.005,4.129,11.836c.379,2.47.48,5.976,1.047,9.85,1.918,13.066,5.041,30.881,5.041,30.881a15,15,0,0,1-5.1,3.121,15.291,15.291,0,0,1-6.178.427,208.031,208.031,0,0,1-11.006-27.553C15300.572-5576.174,15296.713-5600.292,15296.713-5600.292Z" transform="translate(3260.527 -423.792)" fill="#f6f665"/>
    <path id="Path_2859" data-name="Path 2859" d="M13844.684-4389.549a41.788,41.788,0,0,0,11.086,1.663,55.3,55.3,0,0,0,12.1-1.663" transform="translate(4670.975 -1611.485)" fill="none"/>
  </g>
  <text id="Costas" transform="translate(68 14)" font-size="14" font-family="Montserrat-SemiBold, Montserrat" font-weight="600"><tspan x="0" y="0">Costas</tspan></text>
  <g id="Group_1644" data-name="Group 1644" transform="translate(-99 -213)">
    <text id="Direito" transform="translate(277 283)" font-size="10" font-family="Montserrat-Medium, Montserrat" font-weight="500"><tspan x="-34.25" y="0">Direito</tspan></text>
    <text id="Esquerdo" transform="translate(99 283)" font-size="10" font-family="Montserrat-Medium, Montserrat" font-weight="500"><tspan x="0" y="0">Esquerdo</tspan></text>
  </g>
  <g id="Group_1643" data-name="Group 1643" transform="translate(-96 -225)">
    <g id="Group_1627" data-name="Group 1627" transform="translate(113 256)">
      <path id="Path_2639" data-name="Path 2639" d="M3123.224,817.224c5.573,5.4,22.572,10.353,27.183,13.49a15.656,15.656,0,0,1,5.252,6.8,28.81,28.81,0,0,1,1.777,7.231s-.3,33.915,1.523,38.952a51.575,51.575,0,0,1,3.657,10.9c1.556,15.865,6.029,42.047,6.029,42.047s14.46,8.257,16.238,11.01-5.609,1.578-9.125,0,5.39,17.858,4.829,20.89-5.912-12.593-7.4-11.549,3.6,15.7,1.446,15.724-4.49-14-5.988-14,1.8,13.068,0,14-3.631-13.337-4.842-14,1.265,11.3,0,11.342-7.332-24.106-6.389-29.112c.469-2.488-6.38-15.089-10.523-27.848a150.718,150.718,0,0,1-5.673-25.928s-.127-16.887,3.81-28.68" transform="translate(-3035.763 -764.276)" fill="none" stroke="#000" stroke-width="1"/>
      <path id="Path_2640" data-name="Path 2640" d="M2180.58,293.186c-1.618,1.524-3.265,36.8-.372,43.183s4.181,26.565,4.181,26.565a200.648,200.648,0,0,1-1.475,21.3c-1.4,11.647-4.384,25.929-5.773,37.8-1.37,11.712-1.166,21.089-.4,22.9,1.443,3.388-3.3,25.116-5.868,41.665a114.027,114.027,0,0,0-1.362,19.079,5.939,5.939,0,0,0,0,3.23c.468,2.023,13.426,4.224,15.942,7.217s-5.875,4.755-5.875,4.755-17.819,3.6-20.881,3.132-3.127-1.056-3.547-2.64c-.158-.138-.491-10.559,1.087-15.694,1.493-5.29-3.083-47.662-2.386-54.088s1.855-14.838,1.855-14.838l-6.573-67.938s-6.161,75.979-6.05,76.119-.073-.427,0,0c.432,2.553,2.775,3.239,2.491,11.964-3.7,18.359-3.728,48.78-3.728,48.78s.146,2.175.7,5.977a77.947,77.947,0,0,1,.539,9.225c-.11,1.608-3.144,3.132-6.718,3.132-6.272,0-18.369-3.132-18.369-3.132s-4.619-2.235-5.388-3.752,2.31-2.315,2.31-2.315l6.363-1.8s7.563-.649,7.333-8.226c.933-11.094-3.862-28.9-5.836-42.3a133.311,133.311,0,0,1-1.42-16.416,147.949,147.949,0,0,0,0-23.8,293.22,293.22,0,0,1-5.932-35.685c-.975-10.394-1.336-20-1.573-22.848-.564-6.774,3.561-25.567,4.236-28.353s1.51-23.281,1.907-28.5-5.019-29.286-5.5-29.6,5.112,25.039,3.589,28.328c-.28.6.076,5.489-.834,10.368a95.172,95.172,0,0,1-3.7,13.247s-10.107,27.957-11.141,30.318a1.208,1.208,0,0,1-.153.28c.174,2.294-4.285,30.122-6.29,29.4s1.3-11.769,0-11.111-2.793,14.232-5.185,13.743,1.412-12.965,0-12.965-3.418,11.7-5.646,12.965,2.376-14.49.8-15.148-4.561,13.3-7.1,12.517,6.578-17.1,5.268-20.791-9.391,2.089-9.6-.843,15.78-11.325,15.78-11.325l3.8-18.742,1.942-20.46,3.433-13.676s2.622-22.447,3.052-26.146-5.889-12.643,3.935-24.814c7.541-9.342,16-8.4,20.664-11.222.02-.011,8.219-1.443,9.048-4.941,2.909-12.261.863-8.554.509-11.642a19.831,19.831,0,0,0-1.245-3.419,54.585,54.585,0,0,1-4.632-11.122c-.978-3.76.639-3.419.722-3.917.825-4.927-2.034-22.784,16.78-23.1,8.407-.143,13.754,3.645,16.109,8.369,2.716,5.449,1.737,12,1.713,12.807,0,.032,0,.062,0,.062s2.231,1.442,1.729,5.12-3.736,9.591-3.736,9.591l-3.209,7.571s-.2,7.38,1.042,9.383" transform="translate(-2074.511 -183.052)" fill="none" stroke="#000" stroke-linecap="round" stroke-width="1"/>
      <path id="Path_2742" data-name="Path 2742" d="M13373.553-4702.584s2.151-1.643,6.749-1.748a17.248,17.248,0,0,1,11.994,3.495" transform="translate(-13348.899 4823.785)" fill="none" stroke="#000" stroke-width="1"/>
      <path id="Path_2743" data-name="Path 2743" d="M13414.724-5014.184s9.85-.969,11.8.323" transform="translate(-13386.666 5108.242)" fill="none" stroke="#000" stroke-linecap="round" stroke-width="1"/>
      <path id="Path_2746" data-name="Path 2746" d="M13826.562-5536.067h0a34.315,34.315,0,0,0,12.951,2c3.022-.115,8.025-.6,10.4-2" transform="translate(-13763.825 5581.431)" fill="none" stroke="#000" stroke-width="1"/>
      <path id="Path_2747" data-name="Path 2747" d="M13617.883-5412.238h57.283" transform="translate(-13572.768 5472.466)" fill="none" stroke="#000" stroke-width="1"/>
      <path id="Path_2748" data-name="Path 2748" d="M13845.085-5412.237v127.323" transform="translate(-13781.372 5473.286)" fill="none" stroke="#000" stroke-width="1"/>
      <path id="Path_2749" data-name="Path 2749" d="M13845.085-5412.237v127.323" transform="translate(-13758.244 5473.286)" fill="none" stroke="#000" stroke-width="1"/>
      <path id="Path_2750" data-name="Path 2750" d="M13836.084-4743.753" transform="translate(-13773.118 4859.908)" fill="#ff5124" stroke="#000" stroke-width="1"/>
      <path id="Path_2751" data-name="Path 2751" d="M13600.486-4866.114s25.99-5.562,30.965-18.611" transform="translate(-13556.953 4974.814)" fill="none" stroke="#000" stroke-linecap="round" stroke-width="1"/>
      <path id="Path_2752" data-name="Path 2752" d="M13652.328-4868.087s-25.843-5.5-30.889-18.5c0-.013-.015-.039-.025-.065" transform="translate(-13546.649 4976.834)" fill="none" stroke="#000" stroke-linecap="round" stroke-width="1"/>
      <path id="Path_2753" data-name="Path 2753" d="M13596.859-4330.791s10.655-4.9,20.566-.363" transform="translate(-13553.666 4484.53)" fill="none" stroke="#000" stroke-width="1"/>
      <path id="Path_2754" data-name="Path 2754" d="M13761.93-4330.629s-5.543-4.535-19.314-1.521" transform="translate(-13656.119 4485.373)" fill="none" stroke="#000" stroke-width="1"/>
      <path id="Path_2755" data-name="Path 2755" d="M13620.857-4738.1s13.366-2.518,18.459-7.036" transform="translate(-13575.68 4868.662)" fill="none" stroke="#000" stroke-width="1"/>
      <path id="Path_2756" data-name="Path 2756" d="M13638.07-4741.859s-11.955-2.678-17.053-7.2" transform="translate(-13534.17 4872.253)" fill="none" stroke="#000" stroke-width="1"/>
      <path id="Path_2757" data-name="Path 2757" d="M13582.44-3979.744s-17.488,13.242-35.154-6.476" transform="translate(-13508.158 4165.222)" fill="none" stroke="#000" stroke-width="1"/>
      <path id="Path_2758" data-name="Path 2758" d="M13545.067-3979.736s17.393,13.233,35.061-6.484" transform="translate(-13470.884 4165.222)" fill="none" stroke="#000" stroke-width="1"/>
      <path id="Path_2759" data-name="Path 2759" d="M13639.309-3258.965s6.009,6.988,23.322.166" transform="translate(-13592.58 3498.223)" fill="none" stroke="#000" stroke-width="1"/>
      <path id="Path_2760" data-name="Path 2760" d="M13661.551-3256.724s-4.929,6.593-22.242-.229" transform="translate(-13559.293 3496.377)" fill="none" stroke="#000" stroke-width="1"/>
      <path id="Path_2761" data-name="Path 2761" d="M13639.309-2990.366s6.293-2.634,21.456-1.522" transform="translate(-13592.587 3253.53)" fill="none" stroke="#000" stroke-width="1"/>
      <path id="Path_2762" data-name="Path 2762" d="M13661.353-2990.508s-6.882-2.559-22.044-1.448" transform="translate(-13559.211 3253.597)" fill="none" stroke="#000" stroke-width="1"/>
      <path id="Path_2763" data-name="Path 2763" d="M13726.866-2261.968s6.884,3.132,12.884,1.065" transform="translate(-13672.912 2584.016)" fill="none" stroke="#000" stroke-width="1"/>
      <path id="Path_2764" data-name="Path 2764" d="M14057.146-2251.2s6.743,2.417,13.339,0" transform="translate(-13975.786 2574.131)" fill="none" stroke="#000" stroke-width="1"/>
      <path id="Path_2765" data-name="Path 2765" d="M14541.8-4055.879s6.786,1.437,11.186-3.332" transform="translate(-14420.095 4232.128)" fill="none" stroke="#000" stroke-width="1"/>
      <path id="Path_2766" data-name="Path 2766" d="M14347.3-4697.855s10.481-4.137,17.655-2.02" transform="translate(-14241.831 4820.228)" fill="none" stroke="#000" stroke-width="1"/>
      <path id="Path_2767" data-name="Path 2767" d="M14400.118-5013.914s-9.338-1.24-12.457.247" transform="translate(-14278.886 5108.119)" fill="none" stroke="#000" stroke-width="1"/>
      <path id="Path_2877" data-name="Path 2877" d="M2266.486,2274.089a20.68,20.68,0,0,1,3.478,1.471,29.278,29.278,0,0,0,8.513,2.723" transform="translate(-2251.117 -2102.388)" fill="none" stroke="#000" stroke-width="1"/>
    </g>
    <text id="_17" data-name="17" transform="translate(188 287)" font-size="9" font-family="Helvetica"><tspan x="-5.005" y="0">17</tspan></text>
    <text id="_18" data-name="18" transform="translate(188 313)" font-size="9" font-family="Helvetica"><tspan x="-5.005" y="0">18</tspan></text>
    <text id="_19" data-name="19" transform="translate(161 339)" font-size="9" font-family="Helvetica"><tspan x="-5.005" y="0">19</tspan></text>
    <text id="_22" data-name="22" transform="translate(147 367)" font-size="9" font-family="Helvetica"><tspan x="-5.005" y="0">22</tspan></text>
    <text id="_42" data-name="42" transform="translate(142 402)" font-size="9" font-family="Helvetica"><tspan x="-5.005" y="0">42</tspan></text>
    <text id="_27" data-name="27" transform="translate(167 398)" font-size="9" font-family="Helvetica"><tspan x="-5.005" y="0">27</tspan></text>
    <text id="_29" data-name="29" transform="translate(165 428)" font-size="9" font-family="Helvetica"><tspan x="-5.005" y="0">29</tspan></text>
    <text id="_32" data-name="32" transform="translate(169 473)" font-size="9" font-family="Helvetica"><tspan x="-5.005" y="0">32</tspan></text>
    <text id="_44" data-name="44" transform="translate(172 511)" font-size="9" font-family="Helvetica"><tspan x="-5.005" y="0">44</tspan></text>
    <text id="_46" data-name="46" transform="translate(172 543)" font-size="9" font-family="Helvetica"><tspan x="-5.005" y="0">46</tspan></text>
    <text id="_48" data-name="48" transform="translate(170 592)" font-size="9" font-family="Helvetica"><tspan x="-5.005" y="0">48</tspan></text>
    <text id="_49" data-name="49" transform="translate(203 592)" font-size="9" font-family="Helvetica"><tspan x="-5.005" y="0">49</tspan></text>
    <text id="_47" data-name="47" transform="translate(203 543)" font-size="9" font-family="Helvetica"><tspan x="-5.005" y="0">47</tspan></text>
    <text id="_33" data-name="33" transform="translate(206 473)" font-size="9" font-family="Helvetica"><tspan x="-5.005" y="0">33</tspan></text>
    <text id="_45" data-name="45" transform="translate(204 511)" font-size="9" font-family="Helvetica"><tspan x="-5.005" y="0">45</tspan></text>
    <text id="_31" data-name="31" transform="translate(211 428)" font-size="9" font-family="Helvetica"><tspan x="-5.005" y="0">31</tspan></text>
    <text id="_53" data-name="53" transform="translate(245 443)" font-size="9" font-family="Helvetica"><tspan x="-5.005" y="0">53</tspan></text>
    <text id="_52" data-name="52" transform="translate(131 443)" font-size="9" font-family="Helvetica"><tspan x="-5.005" y="0">52</tspan></text>
    <text id="_30" data-name="30" transform="translate(188 422)" font-size="9" font-family="Helvetica"><tspan x="-5.005" y="0">30</tspan></text>
    <text id="_28" data-name="28" transform="translate(209 401)" font-size="9" font-family="Helvetica"><tspan x="-5.005" y="0">28</tspan></text>
    <text id="_43" data-name="43" transform="translate(232 398)" font-size="9" font-family="Helvetica"><tspan x="-5.005" y="0">43</tspan></text>
    <text id="_23" data-name="23" transform="translate(167 376)" font-size="9" font-family="Helvetica"><tspan x="-5.005" y="0">23</tspan></text>
    <text id="_24" data-name="24" transform="translate(188 374)" font-size="9" font-family="Helvetica"><tspan x="-5.005" y="0">24</tspan></text>
    <text id="_25" data-name="25" transform="translate(209 376)" font-size="9" font-family="Helvetica"><tspan x="-5.005" y="0">25</tspan></text>
    <text id="_26" data-name="26" transform="translate(227 368)" font-size="9" font-family="Helvetica"><tspan x="-5.005" y="0">26</tspan></text>
    <text id="_20" data-name="20" transform="translate(188 335)" font-size="9" font-family="Helvetica"><tspan x="-5.005" y="0">20</tspan></text>
    <text id="_21" data-name="21" transform="translate(215 339)" font-size="9" font-family="Helvetica"><tspan x="-5.005" y="0">21</tspan></text>
    <path id="Path_2879" data-name="Path 2879" d="M6069.658,197.78a46.509,46.509,0,0,0,11.921,2.009A44.154,44.154,0,0,0,6092.921,198" transform="translate(-5893 204)" fill="none" stroke="#000" stroke-width="1"/>
  </g>
</svg>
