<svg xmlns="http://www.w3.org/2000/svg" xmlns:xlink="http://www.w3.org/1999/xlink" width="247.149" height="179.888" viewBox="0 0 247.149 179.888">
  <defs>
    <linearGradient id="linear-gradient" x1="0.5" y1="1" x2="0.5" gradientUnits="objectBoundingBox">
      <stop offset="0" stop-color="gray" stop-opacity="0.251"/>
      <stop offset="0.54" stop-color="gray" stop-opacity="0.122"/>
      <stop offset="1" stop-color="gray" stop-opacity="0.102"/>
    </linearGradient>
  </defs>
  <g id="f1" transform="translate(-22.696 -143.213)">
    <path id="Path_1257" data-name="Path 1257" d="M207.914,104.657c-16.163-.562-31.569-5.78-46.258-11.488s-29.248-12.033-45.033-15.058c-10.149-1.948-21.755-2.221-29.93,3.22C78.823,86.565,76.281,95.6,74.914,103.986c-1.028,6.309,15.08,58.231,17.891,64.138,1.957,4.1-24.629,41.34-12.905,65.41s32.472,9.287,49.6,10.471c37.916,2.593,76.036,1.469,114.051.346,14.069-.418,32.944,12.373,46.783,10.193,27.375-8.051,13.872-45.233,9.125-52.6-7.962-12.358,37.037-80.515-12.194-114.55C274.8,81.73,257.5,82.445,248.3,91.8,238.831,101.442,222.183,105.152,207.914,104.657Z" transform="translate(-40.825 68.307)" fill="#b9dddd"/>
    <g id="Group_1620" data-name="Group 1620" transform="translate(22.696 204.803)">
      <path id="Path_1258" data-name="Path 1258" d="M204.458,652.1s-12.767-9.652-15.179-21.929a24.266,24.266,0,0,0-7.477-13.4,40.848,40.848,0,0,0-5.982-4.457" transform="translate(-115.835 -540.933)" fill="none" stroke="#535461" stroke-miterlimit="10" stroke-width="2"/>
      <path id="Path_1259" data-name="Path 1259" d="M148.75,574.436c1.119,1.513,1.625,7.927,1.625,7.927s-5.982-2.356-7.1-3.867a3.409,3.409,0,0,1,5.478-4.06Z" transform="translate(-123.312 -531.774)" fill="#329d9c"/>
      <path id="Path_1260" data-name="Path 1260" d="M192.781,590.114c.116,1.878-2.941,7.537-2.941,7.537s-3.744-5.232-3.863-7.11a3.407,3.407,0,1,1,6.8-.427Z" transform="translate(-134.124 -566.407)" fill="#329d9c"/>
      <path id="Path_1261" data-name="Path 1261" d="M238.467,646.657c-.845,1.681-6.344,5.023-6.344,5.023s-.587-6.407.258-8.087a3.407,3.407,0,1,1,6.087,3.064Z" transform="translate(-146.922 -630.974)" fill="#6c63ff"/>
      <path id="Path_1262" data-name="Path 1262" d="M261.469,703.185c-.55,1.8-5.4,6.021-5.4,6.021s-1.664-6.214-1.114-8.015a3.408,3.408,0,1,1,6.518,1.994Z" transform="translate(-180.26 -698.779)" fill="#6c63ff"/>
      <path id="Path_1263" data-name="Path 1263" d="M169.027,630.3c1.857.251,7.728-2.4,7.728-2.4s-4.954-4.1-6.82-4.355a3.408,3.408,0,0,0-.908,6.755Z" transform="translate(-166.073 -548.781)" fill="#329d9c"/>
      <path id="Path_1264" data-name="Path 1264" d="M193.671,694.151c1.857-.318,6.655-4.6,6.655-4.6s-5.956-2.433-7.811-2.115a3.408,3.408,0,1,0,1.161,6.716Z" transform="translate(-166.215 -591.093)" fill="#329d9c"/>
      <path id="Path_1265" data-name="Path 1265" d="M231.32,752.105c1.883,0,7.338-3.41,7.338-3.41s-5.457-3.405-7.34-3.405a3.408,3.408,0,1,0,0,6.815Z" transform="translate(-227.799 -652.033)" fill="#329d9c"/>
    </g>
    <g id="Group_1621" data-name="Group 1621" transform="translate(173.635 143.213)">
      <path id="Path_1266" data-name="Path 1266" d="M833.49,312.675s7.869-13.939,19.731-17.955a24.264,24.264,0,0,0,12.284-9.19,40.692,40.692,0,0,0,3.619-6.53" transform="translate(-833.251 -236.89)" fill="none" stroke="#535461" stroke-miterlimit="10" stroke-width="2"/>
      <path id="Path_1267" data-name="Path 1267" d="M993.809,248.638c-1.351,1.309-7.639,2.665-7.639,2.665s1.544-6.244,2.895-7.556a3.407,3.407,0,1,1,4.745,4.891Z" transform="translate(-936.997 -220.326)" fill="#329d9c"/>
      <path id="Path_1268" data-name="Path 1268" d="M977.752,294.255c-1.857.367-7.862-1.913-7.862-1.913s4.689-4.41,6.534-4.77a3.408,3.408,0,1,1,1.328,6.683Z" transform="translate(-937.99 -243.409)" fill="#329d9c"/>
      <path id="Path_1269" data-name="Path 1269" d="M928.749,347.5c-1.778-.615-5.819-5.62-5.819-5.62s6.267-1.435,8.05-.819a3.407,3.407,0,1,1-2.231,6.44Z" transform="translate(-901.18 -284.428)" fill="#329d9c"/>
      <path id="Path_1271" data-name="Path 1271" d="M947.3,275.823c0,1.883,3.412,7.345,3.412,7.345s3.41-5.455,3.41-7.335a3.408,3.408,0,1,0-6.813,0Z" transform="translate(-920.643 -231.772)" fill="#329d9c" opacity="0.426"/>
      <path id="Path_1272" data-name="Path 1272" d="M887.481,309.362c.562,1.8,5.446,5.987,5.446,5.987s1.625-6.226,1.058-8.022a3.408,3.408,0,0,0-6.5,2.036Z" transform="translate(-887.363 -256.894)" fill="#6c63ff"/>
      <path id="Path_1274" data-name="Path 1274" d="M993.809,248.638c-1.351,1.309-7.639,2.665-7.639,2.665s1.544-6.244,2.895-7.556a3.407,3.407,0,1,1,4.745,4.891Z" transform="translate(-922.004 -226.323)" fill="#329d9c" opacity="0.25"/>
      <path id="Path_1275" data-name="Path 1275" d="M977.752,294.255c-1.857.367-7.862-1.913-7.862-1.913s4.689-4.41,6.534-4.77a3.408,3.408,0,1,1,1.328,6.683Z" transform="translate(-918.499 -245.658)" fill="#329d9c" opacity="0.25"/>
      <path id="Path_1278" data-name="Path 1278" d="M950.712,283.167Z" transform="translate(-920.643 -231.772)" fill="#329d9c" opacity="0.395"/>
      <path id="Path_1279" data-name="Path 1279" d="M887.481,309.362c.562,1.8,5.446,5.987,5.446,5.987s1.625-6.226,1.058-8.022a3.408,3.408,0,0,0-6.5,2.036Z" transform="translate(-887.363 -256.894)" opacity="0.25"/>
      <path id="Path_1281" data-name="Path 1281" d="M835.44,273.314s1.546-15.933,10.752-24.406a24.273,24.273,0,0,0,7.507-13.38,40.7,40.7,0,0,0,.671-7.428" transform="translate(-834.749 -197.805)" fill="none" stroke="#535461" stroke-miterlimit="10" stroke-width="2"/>
      <path id="Path_1282" data-name="Path 1282" d="M920.173,189.461c-.7,1.746-5.905,5.534-5.905,5.534s-1.119-6.335-.415-8.08a3.409,3.409,0,1,1,6.321,2.553Z" transform="translate(-893.282 -184.782)" fill="#329d9c"/>
      <path id="Path_1283" data-name="Path 1283" d="M921.222,234.976c-1.539,1.082-7.962,1.437-7.962,1.437s2.5-5.929,4.041-7.01a3.408,3.408,0,1,1,3.921,5.571Z" transform="translate(-881.761 -211.777)" fill="#329d9c"/>
      <path id="Path_1284" data-name="Path 1284" d="M892.76,303.916c-1.876.158-7.6-2.785-7.6-2.785s5.153-3.853,7.029-4.011a3.408,3.408,0,0,1,.571,6.792Z" transform="translate(-872.927 -250.794)" fill="#329d9c"/>
      <path id="Path_1286" data-name="Path 1286" d="M883.229,236.213c.761,1.72,6.086,5.339,6.086,5.339s.905-6.37.144-8.09a3.408,3.408,0,0,0-6.23,2.758Z" transform="translate(-871.244 -200.421)" fill="#329d9c"/>
    </g>
    <g id="Group_1622" data-name="Group 1622" transform="translate(134.925 162.891)">
      <path id="Path_1270" data-name="Path 1270" d="M873.674,376.292c-1.578-.26-5.674-3.881-5.674-3.881s5.049-2.1,6.625-1.843a2.9,2.9,0,1,1-.941,5.721Z" transform="translate(-794.958 -310.484)" fill="#6c63ff"/>
      <path id="Path_1273" data-name="Path 1273" d="M834.854,353.158c.213,1.578,3.7,5.794,3.7,5.794s2.251-4.981,2.038-6.566a2.9,2.9,0,1,0-5.739.771Z" transform="translate(-768.323 -293.836)" fill="#6c63ff"/>
      <path id="Path_1277" data-name="Path 1277" d="M873.674,376.292c-1.578-.26-5.674-3.881-5.674-3.881s5.049-2.1,6.625-1.843a2.9,2.9,0,1,1-.941,5.721Z" transform="translate(-794.958 -310.484)" opacity="0.25"/>
      <path id="Path_1280" data-name="Path 1280" d="M834.854,353.158c.213,1.578,3.7,5.794,3.7,5.794s2.251-4.981,2.038-6.566a2.9,2.9,0,1,0-5.739.771Z" transform="translate(-768.323 -293.836)" opacity="0.25"/>
      <path id="Path_1285" data-name="Path 1285" d="M855.865,351.737c-1.549.395-6.765-1.237-6.765-1.237s3.762-3.967,5.311-4.37a2.9,2.9,0,1,1,1.454,5.607Z" transform="translate(-779.787 -290.81)" fill="#6c63ff"/>
      <path id="Path_1287" data-name="Path 1287" d="M841.52,289.442c1.055,1.2,6.291,2.776,6.291,2.776s-.884-5.4-1.939-6.6a2.9,2.9,0,1,0-4.352,3.822Z" transform="translate(-773.124 -241.521)" fill="#6c63ff"/>
      <path id="Path_1288" data-name="Path 1288" d="M812.033,352.266c.837,1.361,5.731,3.8,5.731,3.8s.041-5.467-.789-6.83a2.9,2.9,0,0,0-4.932,3.032Z" transform="translate(-749.732 -292.328)" fill="#6c63ff"/>
      <path id="Path_1289" data-name="Path 1289" d="M784.44,139.316c.328-1.2.722-2.409,1-3.626C785.107,136.907,784.71,138.119,784.44,139.316Z" transform="translate(-727.883 -121.961)" fill="url(#linear-gradient)"/>
      <path id="Path_1291" data-name="Path 1291" d="M522.29,355.34l-1.184.523s-7.716,29.976-7.716,32.4,16.361,15.9,16.361,15.9l2.553-17.231S528.638,347.419,522.29,355.34Z" transform="translate(-510.308 -297.435)" fill="#d6e8f5"/>
      <path id="Path_1292" data-name="Path 1292" d="M686.052,215.773l-6.836-3.567a13.693,13.693,0,0,0-2-4.567,10.176,10.176,0,0,0-3.987-3.6c-4.188-1.878,17.716-11.737,17.716-11.737a35.644,35.644,0,0,0,1.217,3.492c1.128,2.786,3,6.388,5.414,7.414C701.673,204.952,686.052,215.773,686.052,215.773Z" transform="translate(-638.182 -167.403)" fill="#ffc1c7"/>
      <path id="Path_1293" data-name="Path 1293" d="M692.158,195.792a16.331,16.331,0,0,1-14.946,11.847,10.175,10.175,0,0,0-3.987-3.6c-4.188-1.878,17.716-11.737,17.716-11.737a35.657,35.657,0,0,0,1.217,3.492Z" transform="translate(-638.182 -167.403)" opacity="0.1"/>
      <path id="Path_1295" data-name="Path 1295" d="M629.349,229.927,624.9,240.312l-3.926,6.893H608.406l-3.666-9.424,1.486-9.774h9.6l6.2-.349,2.093-.7,1.35.765Z" transform="translate(-572.402 -183.652)" fill="#575a89"/>
      <path id="Path_1296" data-name="Path 1296" d="M734.822,230.46s2.776.592.29,2.63-11.062,8.519-11.062,8.519,3.012,2.683,2.389,5.826l9.981-5.563,1.776-8.9S738.395,230.294,734.822,230.46Z" transform="translate(-679.408 -198.029)" opacity="0.1"/>
      <path id="Path_1297" data-name="Path 1297" d="M700.093,287l-6.349,1.048s1.31,4.843.655,6.218a.916.916,0,0,0-.049.132l-2.59,7,1.941,5.5,6.72-9.164-2.29-3.468a31.921,31.921,0,0,1,3.861-4.321C703.432,288.833,700.093,287,700.093,287Z" transform="translate(-653.488 -243.42)" opacity="0.1"/>
      <path id="Path_1298" data-name="Path 1298" d="M700.093,285.63l-6.349,1.046s1.31,4.843.655,6.218a.919.919,0,0,0-.049.132l-2.59,7,1.941,5.5,6.719-9.17-2.29-3.468a31.925,31.925,0,0,1,3.861-4.321C703.432,287.455,700.093,285.63,700.093,285.63Z" transform="translate(-653.488 -242.32)" fill="#dce6f2"/>
      <path id="Path_1299" data-name="Path 1299" d="M735.088,227.81s2.776.592.288,2.63-11.326,9.042-11.326,9.042,3.273,2.16,2.651,5.3l9.981-5.561,1.776-8.9S738.655,227.644,735.088,227.81Z" transform="translate(-679.408 -195.901)" fill="#575a89"/>
      <path id="Path_1300" data-name="Path 1300" d="M668.005,273.18a12.5,12.5,0,0,0,3.279,3.174s-4.451,2.367-2.748,5.7l-6.808-1.776L660.68,277Z" transform="translate(-628.54 -232.326)" opacity="0.1"/>
      <path id="Path_1301" data-name="Path 1301" d="M666.683,271.86a12.5,12.5,0,0,0,3.279,3.174s-4.451,2.356-2.748,5.694l-6.806-1.776-1.048-3.271Z" transform="translate(-627.48 -231.266)" fill="#575a89"/>
      <path id="Path_1302" data-name="Path 1302" d="M686.29,291.7l-4.451,10.385-3.918,6.893H665.346l-3.666-9.424,1.484-9.774h2.669c-.043,2.281.789,4.96.736,5.956-.091,1.637,2.442,10.472,2.442,10.472s5.3-8.574,7.394-9.338c1.316-.479,4.1-4.469,6-7.373Z" transform="translate(-629.342 -245.427)" opacity="0.1"/>
      <path id="Path_1303" data-name="Path 1303" d="M616.238,330.489l-.452.568s3.273,16.428,2.367,20.159a10.593,10.593,0,0,0-.262,2.048v.03a39.5,39.5,0,0,0,.986,8.722s.915,14.52.395,20.492H557.991c-.359-8.831-.746-20.271-.395-21.54.592-2.093,1.776-9.687,1.776-9.687l.13-3.6s0-3.478.107-7.353c.045-1.742.112-3.571.209-5.193a27.429,27.429,0,0,1,.537-4.6,10.141,10.141,0,0,0,.253-1.949,1.008,1.008,0,0,1,.012-.187c0-.2.02-.41.028-.629v-.2c.037-1.27.024-2.778-.018-4.34v-.258c-.034-1.172-.083-2.367-.138-3.5-.172-3.551-.395-6.554-.395-6.554l-7.526-24.937,2.028-5,5.629-3.449,10.407-6.284c5.076-4.173,8.418-3.671,9.693-3.214a3.375,3.375,0,0,1,.363.148c.039.02.071.035.1.053a.845.845,0,0,1,.116.067h0a2.4,2.4,0,0,0-.884.728,3.22,3.22,0,0,0-.546,1.184,5.5,5.5,0,0,0-.14.807c-.026.286-.036.582-.036.88a15.259,15.259,0,0,0,.168,1.951c0,.012,0,.028,0,.043.065.462.146.913.225,1.338a.092.092,0,0,0,0,.022c.091.5.181.953.243,1.347.012.071.022.136.032.2a4.5,4.5,0,0,1,.061.789,9.6,9.6,0,0,0,.256,1.894c.051.26.11.539.176.829.089.395.185.825.29,1.263.057.241.118.489.182.736.024.1.049.2.073.3l.039.156c.42,1.671.876,3.334,1.156,4.34.166.592.27.957.27.957a73.647,73.647,0,0,1,5.343-7.538c.035-.039.067-.077.1-.112.235-.27.466-.517.687-.734a4.055,4.055,0,0,1,1.267-.951,1.389,1.389,0,0,0,.215-.1c.971-.55,2.537-2.549,4-4.642.144-.2.284-.412.426-.616.325-.47.641-.941.939-1.393.229-.345.448-.681.655-1,.986-1.535,1.681-2.679,1.681-2.679l1.369-.061.239-.012h.16l6.216-.288s.268.045.71.134a.127.127,0,0,1,.073.016c2.206.438,8.333,1.825,8.708,3.748.458,2.356,10.342,5.5,10.342,5.5.13,1.578,2.551,2.618,2.551,2.618s3.666,9.687,2.685,13.483c-.969,3.748,2.521,13.021,2.614,13.281h0l-.669.844Z" transform="translate(-541.758 -229.564)" fill="#fff"/>
      <path id="Path_1304" data-name="Path 1304" d="M744.838,225.3s6.051-1.716,7.426,1.817,4.451,17.8,4.451,17.8-7.986,1.505-10.079,0a6.031,6.031,0,0,0-4.255-1.113l-4.516,3.076-1.334-.395s7.225-10.74,8.8-14.39S747.426,226.821,744.838,225.3Z" transform="translate(-689.425 -193.561)" opacity="0.1"/>
      <path id="Path_1305" data-name="Path 1305" d="M743.54,221.3s6.055-1.716,7.436,1.817,4.451,17.8,4.451,17.8-7.984,1.505-10.079,0a6.025,6.025,0,0,0-4.254-1.113l-4.52,3.076-1.334-.395s7.225-10.74,8.795-14.39S746.128,222.825,743.54,221.3Z" transform="translate(-688.39 -190.351)" fill="#d6e8f5"/>
      <path id="Path_1306" data-name="Path 1306" d="M571.153,511.55s4.516,1.113,5.368,3.666-3.338,2.618-3.338,2.618S570.63,513.318,571.153,511.55Z" transform="translate(-556.618 -423.669)" opacity="0.1"/>
      <path id="Path_1307" data-name="Path 1307" d="M620.53,607.09s-11.06,22.647-8.507,24.807S620.53,607.09,620.53,607.09Z" transform="translate(-589.175 -500.361)" opacity="0.1"/>
      <path id="Path_1308" data-name="Path 1308" d="M734,522.5s8.836,22,7.069,25.395,3.8,0,3.8,0Z" transform="translate(-687.395 -432.459)" opacity="0.1"/>
      <path id="Path_1309" data-name="Path 1309" d="M703.883,632.64s-29.846,1.44-21.139,10.734,26.573.395,26.573.395Z" transform="translate(-644.972 -520.87)" fill="#ffc1c7"/>
      <path id="Path_1312" data-name="Path 1312" d="M508.042,512.084l-1.505.525s.592,8.9-1.381,11.454,6.479,8.9,6.479,8.9,11.585-.065,11.912-.987-.592-16.493-.592-16.493-6.219-2.423-5.7-6.284c0,0-1.9,9.1-4.711,8.7S506.54,515.162,508.042,512.084Z" transform="translate(-503.458 -421.783)" fill="#d6e8f5"/>
      <ellipse id="Ellipse_300" data-name="Ellipse 300" cx="3.971" cy="3.632" rx="3.971" ry="3.632" transform="translate(5.633 91.611)" opacity="0.1"/>
      <path id="Path_1313" data-name="Path 1313" d="M511.714,445.815s-.789-24.085-7.659-18.719-6.937,11.784-5.629,13.68,5.5,11.387,5.5,11.387h0a4.8,4.8,0,0,0,7.1-3.157Z" transform="translate(-497.768 -355.252)" fill="#ffc1c7"/>
      <path id="Path_1314" data-name="Path 1314" d="M568.44,213.361a.58.58,0,0,0-.177-.272,3.063,3.063,0,0,0-2.17-.324l.045.521c1.468-.126,1.758.166,1.8.215v.049l.045.065a2.2,2.2,0,0,1,.395,1.736c-.322,1.608-2.3,2.888-2.316,2.9l-.047.028-.03.045c-.852,1.265-5.672,4.834-6.933,5.757l-.11-.126c-.564.489-5.524,4.832-5.792,6.495-.174,1.044-1.349,1.448-1.776,1.561a11.149,11.149,0,0,1-2.669-2.805c-.712-1.225,2.154-3.616,2.407-4.549l-.395-.4c-.041.15-3.723,3.591-2.7,5.348a11.71,11.71,0,0,0,2.845,3.017c-.168,1.523-1.211,10.466-2.815,12.585-1.993,2.634-3.668,15.907-3.482,20.541.164,4.117-.911,11.894-4.5,15.234a5.755,5.755,0,0,1-4.749,1.578h-.087a14.012,14.012,0,0,1-9.636-3.157c-3.581-3.013-5.609-7.929-6.031-14.617h-.087l-.036-1.947a3.8,3.8,0,1,0-.566.045h.043l.036,1.935-.174.012c.434,6.905,2.565,12.013,6.313,15.167a14.6,14.6,0,0,0,10.182,3.332,7.345,7.345,0,0,0,.789.043,6.471,6.471,0,0,0,4.538-1.825c3.782-3.522,4.932-11.585,4.753-15.842-.2-4.91,1.561-17.706,3.324-20.036,1.728-2.287,2.776-11.2,2.959-12.922a2.971,2.971,0,0,0,2.281-2.17c.174-1.042,3.486-4.252,5.524-6.029l-.061-.071a76.772,76.772,0,0,0,6.2-4.948c.525-.5,1.046-1.006,1.59-1.486a5.091,5.091,0,0,0,1.707-2.59A2.693,2.693,0,0,0,568.44,213.361Z" transform="translate(-511.641 -183.804)" opacity="0.1"/>
      <path id="Path_1315" data-name="Path 1315" d="M683.143,278.3a12.072,12.072,0,0,1-3.032-3.157c-1.022-1.758,2.659-5.2,2.7-5.346l.395.4c-.251.931-3.117,3.324-2.4,4.547a11.464,11.464,0,0,0,2.807,2.91Z" transform="translate(-643.993 -229.613)" fill="#353146"/>
      <path id="Path_1316" data-name="Path 1316" d="M735.508,223.4l-.308-.424c.063-.045,6.26-4.528,7.236-5.978l.032-.043.045-.03c.02-.014,1.995-1.292,2.316-2.9a2.188,2.188,0,0,0-.395-1.734l-.045-.067v-.047c-.04-.051-.329-.341-1.8-.215l-.045-.523a3.061,3.061,0,0,1,2.17.324.592.592,0,0,1,.18.274,2.7,2.7,0,0,1,.446,2.093,5.062,5.062,0,0,1-1.707,2.59c-.543.479-1.065.986-1.588,1.486A82.894,82.894,0,0,1,735.508,223.4Z" transform="translate(-688.358 -182.737)" fill="#e8f5ff"/>
      <rect id="Rectangle_701" data-name="Rectangle 701" width="0.523" height="3.178" transform="translate(7.015 78.356) rotate(-1.05)" fill="#e8f5ff"/>
      <path id="Path_1348" data-name="Path 1348" d="M3.817,0A3.817,3.817,0,1,1,0,3.817,3.817,3.817,0,0,1,3.817,0Z" transform="translate(3.155 71.192)" fill="#205072"/>
      <circle id="Ellipse_302" data-name="Ellipse 302" cx="3.17" cy="3.17" r="3.17" transform="translate(3.802 71.84)" fill="#e8f5ff"/>
      <path id="Path_1317" data-name="Path 1317" d="M549.944,327.731a7.3,7.3,0,0,1-.789-.041,14.621,14.621,0,0,1-10.182-3.332c-3.748-3.157-5.875-8.258-6.313-15.169l.789-.049c.422,6.688,2.45,11.606,6.033,14.617a14.067,14.067,0,0,0,9.634,3.157h.087a5.767,5.767,0,0,0,4.751-1.578c3.589-3.34,4.664-11.117,4.5-15.235-.2-4.638,1.478-17.912,3.472-20.543,1.746-2.306,2.829-12.7,2.841-12.806l.03-.3.292-.051c.018,0,1.722-.324,1.935-1.6.276-1.661,5.228-6,5.79-6.495l.515.592c-2.046,1.776-5.358,4.987-5.524,6.031a2.962,2.962,0,0,1-2.279,2.17c-.2,1.728-1.237,10.636-2.959,12.922-1.764,2.33-3.522,15.126-3.324,20.036.17,4.257-.969,12.323-4.751,15.842A6.473,6.473,0,0,1,549.944,327.731Z" transform="translate(-525.776 -228.417)" fill="#353146"/>
      <g id="Group_1622-2" data-name="Group 1622" transform="translate(19.12 0)">
        <path id="Path_1294" data-name="Path 1294" d="M641.663,118.377a16.245,16.245,0,1,1-4.759-11.561,16.322,16.322,0,0,1,4.759,11.561Z" transform="translate(-606.191 -94.965)" fill="#ffc1c7"/>
        <path id="Path_1310" data-name="Path 1310" d="M643.887,118.386a16.243,16.243,0,0,1-1.237,6.238c-.274.032-.548.051-.813.063a6.608,6.608,0,0,1-.176-2.819c.008-.953-.343-2.073-1.261-2.33-1.829-.515-3.091,2.9-4.895,2.287-1.381-.47-1.02-2.565-1.815-3.774-.629-.957-1.89-1.227-2.871-1.827-2.085-1.28-2.022-3.328-2.991-5.266-1.014-2.03-3.156-1.43-5.017-.233a40.507,40.507,0,0,1-4.143,2.859,10.248,10.248,0,0,1-4.228.894,9.29,9.29,0,0,1-2.651-.28,16.321,16.321,0,0,1,32.094,4.188Z" transform="translate(-608.415 -94.974)" opacity="0.1"/>
        <path id="Path_1311" data-name="Path 1311" d="M609.086,81.332a41.4,41.4,0,0,1-4.143,2.861,10.279,10.279,0,0,1-4.228.892,6.428,6.428,0,0,1-4.9-1.555,4.728,4.728,0,0,1-.909-4.557,7.4,7.4,0,0,1,2.93-3.774c1.328-.933,2.869-1.578,3.748-2.914a23.556,23.556,0,0,0,1.077-2.29c1.237-2.4,4.019-3.707,6.708-3.869a21.089,21.089,0,0,1,7.915,1.507,31.24,31.24,0,0,0,7.844,2,11.186,11.186,0,0,1,3.571.456,6.487,6.487,0,0,1,3.157,3.551,11.872,11.872,0,0,1,1.14,5.327c-.166,3.9-2.742,7.728-1.61,11.464.3,1,.862,2.018.562,3.015-.438,1.454-2.314,1.785-3.831,1.854a6.609,6.609,0,0,1-.176-2.819c.008-.951-.343-2.073-1.259-2.33-1.831-.511-3.093,2.9-4.893,2.287-1.371-.472-1.016-2.565-1.813-3.774-.629-.959-1.892-1.227-2.871-1.827-2.085-1.28-2.022-3.328-2.991-5.266C613.093,79.532,610.948,80.132,609.086,81.332Z" transform="translate(-594.682 -66.104)" fill="#99607e"/>
        <g id="Group_1616" data-name="Group 1616" transform="translate(0.168 12.591)" opacity="0.1">
          <path id="Path_1318" data-name="Path 1318" d="M783,146.44c.323-1.2.714-2.4.986-3.61C783.661,144.047,783.268,145.245,783,146.44Z" transform="translate(-746.016 -140.283)"/>
          <path id="Path_1319" data-name="Path 1319" d="M629.219,145.472a6.61,6.61,0,0,1-.176-2.819c.008-.951-.343-2.064-1.259-2.33-1.831-.511-3.093,2.9-4.893,2.287-1.381-.472-1.016-2.565-1.813-3.774-.629-.959-1.89-1.227-2.869-1.827-2.087-1.28-2.024-3.328-2.991-5.266-1.016-2.032-3.157-1.432-5.019-.233a41.068,41.068,0,0,1-4.143,2.861,10.278,10.278,0,0,1-4.228.892,6.432,6.432,0,0,1-4.9-1.555,4.581,4.581,0,0,1-1.079-3.788c-.034.093-.063.185-.093.278a4.74,4.74,0,0,0,.909,4.557,6.44,6.44,0,0,0,4.9,1.555,10.288,10.288,0,0,0,4.23-.892,40.5,40.5,0,0,0,4.143-2.861c1.862-1.2,4-1.8,5.019.233.967,1.937.906,3.985,2.991,5.266.986.592,2.239.868,2.87,1.827.789,1.213.44,3.3,1.813,3.774,1.8.616,3.06-2.8,4.891-2.287.915.256,1.269,1.381,1.259,2.33a6.644,6.644,0,0,0,.176,2.819c1.517-.069,3.393-.395,3.833-1.854a2.123,2.123,0,0,0,.083-.645C632.234,145.127,630.585,145.411,629.219,145.472Z" transform="translate(-595.536 -129.92)"/>
        </g>
      </g>
      <path id="Path_1320" data-name="Path 1320" d="M814.657,364.724l2.29,2.423s1.833,13.35,2.748,14.6,3.078,6.216,1.048,9.947c0,0-.655,2.03-.262,2.88s-2.943,5.106-2.943,5.106-4.386,3.926-5.3,4.516-5.759,5.3-7.394,5.366-2.17,2.1-2.17,2.1l-9.229.327s-5.1-.266-6.207.454c0,0,.592-7.789-5.1-12.895l7.264-2.618s2.75-1.184,3.6-2.421a4.445,4.445,0,0,1,2.17-1.635s2.028-1.44,2.093-2.225,2.48-1.748,2.48-1.748l-1.367-11.67.72-19.374s2.291-16.233,7.134-15.315S814.657,364.724,814.657,364.724Z" transform="translate(-726.029 -287.97)" opacity="0.1"/>
      <path id="Path_1321" data-name="Path 1321" d="M818.657,364.724l2.291,2.423s1.833,13.35,2.748,14.6,3.078,6.216,1.048,9.947c0,0-.653,2.03-.26,2.88s-2.945,5.106-2.945,5.106-4.386,3.926-5.3,4.516-5.759,5.3-7.394,5.366-2.17,2.1-2.17,2.1l-9.229.327s-5.1-.266-6.207.454c0,0,.592-7.789-5.1-12.895l7.264-2.618s2.75-1.184,3.6-2.421a4.444,4.444,0,0,1,2.17-1.635s2.028-1.44,2.093-2.225,2.48-1.748,2.48-1.748l-1.367-11.67.72-19.374s2.29-16.233,7.134-15.315S818.657,364.724,818.657,364.724Z" transform="translate(-729.24 -287.97)" fill="#d6e8f5"/>
      <path id="Path_1322" data-name="Path 1322" d="M907.84,551.567s6.741-1.776,8.509.395S907.84,551.567,907.84,551.567Z" transform="translate(-826.938 -455.242)" opacity="0.1"/>
      <path id="Path_1323" data-name="Path 1323" d="M899.88,569.44c2.291,1.6,9.359,1.669,9.359,1.669Z" transform="translate(-820.549 -470.139)" opacity="0.1"/>
      <path id="Path_1324" data-name="Path 1324" d="M917.46,610.08c.2.065,4.859,5.041,6.816,3.535S917.46,610.08,917.46,610.08Z" transform="translate(-834.661 -502.761)" opacity="0.1"/>
      <path id="Path_1325" data-name="Path 1325" d="M599.22,398.42s1.369,9.426.695,13.266,1.787,8.6,1.787,8.6Z" transform="translate(-579.205 -332.859)" opacity="0.1"/>
    </g>
    <g id="Group_1619" data-name="Group 1619" transform="translate(79.092 181.024)">
      <path id="Path_1326" data-name="Path 1326" d="M372.724,410.866c-1.857,1.455-3.213,4.9-4.195,8.686a93.44,93.44,0,0,0-2.273,14.262s-14.786-3.389-13.709-4.928c.678-.968-.232-8.261-.991-13.549-.453-3.124-.857-5.55-.857-5.55S377.808,406.86,372.724,410.866Z" transform="translate(-328.256 -378.084)" fill="#ffccd0"/>
      <path id="Path_1327" data-name="Path 1327" d="M372.724,409.54c-1.857,1.458-3.213,4.9-4.195,8.686a17.061,17.061,0,0,1-16.973-4.213c-.453-3.127-.857-5.552-.857-5.552S377.808,405.536,372.724,409.54Z" transform="translate(-328.256 -377.066)" opacity="0.1"/>
      <path id="Path_1328" data-name="Path 1328" d="M366.659,324.221a17.1,17.1,0,1,1-3.763-10.7A17.1,17.1,0,0,1,366.659,324.221Z" transform="translate(-314.242 -300.044)" fill="#ffccd0"/>
      <path id="Path_1329" data-name="Path 1329" d="M518.995,781.707H514.12l-.411-8.61-.429-8.911s1.107-.165,2.871-.411l.713-.1h.058c.385,1.808.766,3.665,1.133,5.52a56.715,56.715,0,0,1,.949,9.981v.682C519.018,780.484,519,781.1,518.995,781.707Z" transform="translate(-453.096 -650.621)" opacity="0.1"/>
      <path id="Path_1330" data-name="Path 1330" d="M331.643,570.778H270.51c.265-.6.441-.966.441-.966s4.891-21.4,7.377-30.45a.118.118,0,0,0,0-.023,36.2,36.2,0,0,1,1.124-3.633h0a1.243,1.243,0,0,1,.109-.232c1.23-2,2.772-4.157.615-7.238s-1.393-16.634-1.393-16.634,2.618-11.553,5.39-17.714a8.287,8.287,0,0,1,1.76-2.553,7.2,7.2,0,0,1,.771-.655h0a6.78,6.78,0,0,1,.645-.429l.044-.028a9.312,9.312,0,0,1,3.791-1.177,10.813,10.813,0,0,1,2.844.079,42.44,42.44,0,0,1,10.952,3.018c7.751,3.405,10.1,7.969,10.144,8.064h0l.019.039c.311.727,4.861,11.349,6.5,16.3A6.952,6.952,0,0,1,322.2,519c-.464,1.23,3.542,16.632,3.542,16.632s1.857,7.428,3.714,16.135c.081.362.158.724.232,1.091.332,1.581.662,3.192.98,4.8a56.429,56.429,0,0,1,.949,10.051Q331.673,569.283,331.643,570.778Z" transform="translate(-266.68 -439.693)" fill="#ff5124"/>
      <path id="Path_1331" data-name="Path 1331" d="M344.215,464.682s-4.218-1.625-4.167.84,1.028,3.644.72,4,.153,2.516.153,2.516,5.7,0,8.317,1.179,12.27,3.542,13.5,4.262,5.8,3.946,5.8,3.946l.411-6.11a34.855,34.855,0,0,0-12.474-5.9A49.75,49.75,0,0,1,344.215,464.682Z" transform="translate(-320.076 -420.625)" opacity="0.1"/>
      <path id="Path_1332" data-name="Path 1332" d="M344.215,463.352s-4.218-1.625-4.167.84,1.028,3.644.72,4,.153,2.516.153,2.516,5.7,0,8.317,1.182,12.27,3.542,13.5,4.259,5.8,3.946,5.8,3.946l.416-6.091a34.855,34.855,0,0,0-12.475-5.9A49.359,49.359,0,0,1,344.215,463.352Z" transform="translate(-320.076 -419.604)" fill="#ff748e"/>
      <path id="Path_1333" data-name="Path 1333" d="M412.85,528.43s8.059,8.726,7.649,11.142S412.85,528.43,412.85,528.43Z" transform="translate(-375.979 -469.979)" opacity="0.1"/>
      <path id="Path_1334" data-name="Path 1334" d="M434.743,741.85s-3.131,6.367-1.437,5.956S434.743,741.85,434.743,741.85Z" transform="translate(-391.301 -633.858)" fill="none"/>
      <path id="Path_1335" data-name="Path 1335" d="M329.448,664.22s-5.908,5.443-7.649,5.752,1.335,1.335,3.336.515,6.267-2.976,6.267-2.976Z" transform="translate(-305.668 -574.248)" opacity="0.1"/>
      <path id="Path_1336" data-name="Path 1336" d="M465.127,779.895H451.35c-1.927-1.671-3.749-3.219-4.909-4.15a16.022,16.022,0,0,1-4.051-5.448c-.193-.4-.36-.778-.5-1.119a18.669,18.669,0,0,1-.669-1.8l10.2-6.058a15.934,15.934,0,0,1,1.585,1.551l.123.142a4.188,4.188,0,0,1,1.11,2.05c.051.724,2.066,3.526,4.125,6.216,2.089,2.737,4.229,5.353,4.371,5.529h0s.353.481.929,1.219C464.071,778.56,464.572,779.2,465.127,779.895Z" transform="translate(-397.763 -648.809)" fill="#ffccd0"/>
      <path id="Path_1337" data-name="Path 1337" d="M362.924,313.553a9.95,9.95,0,0,0-.993,3.482c-.183,3.552.114,11.493-3.819,13.275-1.948.877-4.032-1.049-6.168-1.1a5.014,5.014,0,0,0-3.883,2.161,23.381,23.381,0,0,0-2.2,4.044,27.623,27.623,0,0,1-2.133,3.6,9.053,9.053,0,0,1-.789,1,17.1,17.1,0,1,1,19.986-26.451Z" transform="translate(-314.27 -300.072)" opacity="0.1"/>
      <path id="Path_1338" data-name="Path 1338" d="M301.362,292.96c-.186,3.552.114,11.493-3.821,13.273-1.948.877-4.032-1.047-6.168-1.093a5.015,5.015,0,0,0-3.884,2.159,23.23,23.23,0,0,0-2.2,4.046,27.684,27.684,0,0,1-2.133,3.6,5.224,5.224,0,0,1-1.743,1.739c-1.281.668-2.834.292-4.208-.137q-2.674-.843-5.269-1.9a5.313,5.313,0,0,0,.06-.789c-.051.1-.107.188-.163.286l-.109.19c-.2.348-.39.7-.566,1.054-.067.137-.132.279-.19.42a5.339,5.339,0,0,0-.434,1.662,8.9,8.9,0,0,0,1.323,4.41c2.607,5.388,4.218,11.688,2.256,17.34-.85,2.458-2.321,4.642-3.4,7.017a22.672,22.672,0,0,0-1.585,13.412c.536,2.813,1.611,5.6,1.346,8.452-.464,4.909-4.7,8.563-8.939,11.075-2.291,1.351-5.1,2.553-7.528,1.486,1.551-1.811,1.95-4.315,2.284-6.678q1.372-9.668,2.751-19.345.55-3.851,1.1-7.7c.682-4.824,1.374-9.7.947-14.554-.311-3.577-1.188-7.375.362-10.613.819-1.715,2.28-3.136,2.734-4.984.374-1.5.026-3.1.272-4.629a7.878,7.878,0,0,1,.678-2.006,9.855,9.855,0,0,1,1.555-2.372,2.656,2.656,0,0,1-1.555-.949,2.666,2.666,0,0,0,.7-3.215,9.881,9.881,0,0,0-2.173-2.806,5.419,5.419,0,0,1-1.7-3.064c-.2-2.254,2.054-4,2.451-6.223.4-2.263-1.186-4.464-1.059-6.755.149-2.769,2.693-4.782,5.2-5.949a23.677,23.677,0,0,1,12.136-2.089c3.384.32,6.66,1.367,10.035,1.773,2.036.232,4.1.255,6.121.613a9.834,9.834,0,0,1,5.471,2.6C306.069,285.617,301.575,288.837,301.362,292.96Z" transform="translate(-254.01 -276.623)" fill="#f5c9b2"/>
      <path id="Path_1339" data-name="Path 1339" d="M352.4,604.757c-1.184-.513-3.338-.207-7.036-1.332s-4.41-6.214-4.41-6.214v-.016h0c-.044-.116-.388-.873-2.714-3.524-2.57-2.927-8.124-17.711-8.124-17.711s-4.926-5.29-4.77-7.24-.875-7.138-.773-12.941,11.089-9.652,11.089-9.652c21.154-3.749,16.172,20.638,15.608,22.486s2.363,6.838,2.363,6.838c-.413,2.173,1.695,5.536,1.695,5.536s.511,2.976.615,4.106a.694.694,0,0,0,.035.153c.339,1.065,3.1,2.031,4.225,2.618,1.182.617,4.982,6.007,4.982,6.007C366.007,597.83,353.583,605.277,352.4,604.757Z" transform="translate(-308.191 -483.267)" opacity="0.1"/>
      <path id="Path_1340" data-name="Path 1340" d="M355.061,600.8c-1.182-.515-3.338-.207-7.033-1.335s-4.41-6.212-4.41-6.212v-.016h0c-.042-.118-.388-.873-2.714-3.524-2.57-2.927-8.124-17.714-8.124-17.714s-4.926-5.288-4.773-7.238-.873-7.138-.771-12.936,11.082-9.645,11.082-9.645c21.154-3.749,16.172,20.638,15.608,22.486s2.363,6.839,2.363,6.839c-.413,2.173,1.695,5.536,1.695,5.536s.511,2.976.617,4.106a.582.582,0,0,0,.033.153c.339,1.065,3.1,2.031,4.227,2.618,1.179.615,4.981,6.007,4.981,6.007C368.666,593.873,356.243,601.32,355.061,600.8Z" transform="translate(-310.233 -480.234)" fill="#ff5124"/>
      <path id="Path_1341" data-name="Path 1341" d="M376.8,598.32s9.241,9.749,11.653,9.749S376.8,598.32,376.8,598.32Z" transform="translate(-348.297 -523.646)" opacity="0.1"/>
      <path id="Path_1342" data-name="Path 1342" d="M409.274,731.468c-1.182-.515-3.338-.207-7.033-1.335s-4.41-6.212-4.41-6.212v-.016h0c2.449-1.625,8.651-6.214,11.1-7.892a17.124,17.124,0,0,0,3.946-4.053c.339,1.065,3.1,2.031,4.227,2.618,1.179.615,4.981,6.007,4.981,6.007C422.879,724.546,410.455,731.993,409.274,731.468Z" transform="translate(-364.446 -610.907)" fill="#ff5124"/>
      <g id="Group_1617" data-name="Group 1617" transform="translate(0 4.46)" opacity="0.1">
        <path id="Path_1343" data-name="Path 1343" d="M302,406.167c.012.019.028.035.042.053.07-.088.142-.176.216-.26A1.734,1.734,0,0,1,302,406.167Z" transform="translate(-290.86 -380.398)"/>
        <path id="Path_1344" data-name="Path 1344" d="M270.535,436.672a8.757,8.757,0,0,1,1.432-3.556c-.422-.162-.845-.327-1.263-.5a5.258,5.258,0,0,0,.06-.787,9.023,9.023,0,0,0-1.462,3.61,8.9,8.9,0,0,0,1.323,4.41c2.609,5.385,4.218,11.685,2.256,17.34-.852,2.456-2.321,4.643-3.4,7.017a22.663,22.663,0,0,0-1.583,13.41c.532,2.816,1.609,5.6,1.344,8.452-.464,4.91-4.7,8.563-8.939,11.072a11.119,11.119,0,0,1-5.7,1.9,7.027,7.027,0,0,1-.6.824c2.435,1.075,5.237-.135,7.528-1.49,4.246-2.507,8.487-6.151,8.951-11.07.265-2.853-.812-5.636-1.346-8.452a22.681,22.681,0,0,1,1.578-13.41c1.068-2.372,2.553-4.561,3.4-7.017,1.961-5.655.351-11.955-2.256-17.34A8.961,8.961,0,0,1,270.535,436.672Z" transform="translate(-254.01 -400.263)"/>
        <path id="Path_1345" data-name="Path 1345" d="M361.608,296.49a6.7,6.7,0,0,0-.733-.65c2.813,3.649-1.249,6.75-1.451,10.678-.181,3.552.116,11.495-3.819,13.273-1.945.88-4.032-1.047-6.165-1.093a5.025,5.025,0,0,0-3.886,2.161,23.132,23.132,0,0,0-2.2,4.044,27.8,27.8,0,0,1-2.136,3.6,5.093,5.093,0,0,1-1.746,1.741c-1.277.666-2.83.292-4.206-.139q-2.008-.631-3.979-1.393a5.022,5.022,0,0,1-.06.722q2.6,1.058,5.272,1.9c1.374.432,2.927.805,4.206.139a5.222,5.222,0,0,0,1.746-1.743,27.343,27.343,0,0,0,2.133-3.6,23.161,23.161,0,0,1,2.2-4.046,5.026,5.026,0,0,1,3.883-2.159c2.136.046,4.222,1.973,6.168,1.093,3.935-1.778,3.635-9.721,3.818-13.273C360.87,303.616,365.364,300.4,361.608,296.49Z" transform="translate(-313.305 -295.84)"/>
      </g>
      <path id="Path_1346" data-name="Path 1346" d="M308.538,419.43c-.2.348-.39.7-.566,1.054-.067.137-.132.279-.19.42-1.216-1.226-4.178-4.139-5.831-5.042a9.9,9.9,0,0,1,1.555-2.372S307.444,415.572,308.538,419.43Z" transform="translate(-290.822 -381.72)" opacity="0.1"/>
      <path id="Path_1347" data-name="Path 1347" d="M308.647,417.2c-.912-4.13-5.142-6.365-5.142-6.365a9.854,9.854,0,0,0-1.555,2.372c1.743.954,4.956,4.153,6.021,5.237Z" transform="translate(-290.822 -379.685)" fill="#ff5124"/>
    </g>
  </g>
</svg>
