<svg xmlns="http://www.w3.org/2000/svg" xmlns:xlink="http://www.w3.org/1999/xlink" width="235.788" height="183.403" viewBox="0 0 235.788 183.403">
  <defs>
    <linearGradient id="linear-gradient" x1="-5.267" y1="1" x2="-5.267" gradientUnits="objectBoundingBox">
      <stop offset="0" stop-color="gray" stop-opacity="0.251"/>
      <stop offset="0.54" stop-color="gray" stop-opacity="0.122"/>
      <stop offset="1" stop-color="gray" stop-opacity="0.102"/>
    </linearGradient>
  </defs>
  <g id="undraw_alien_science_nonm" transform="translate(0 0.005)">
    <ellipse id="Ellipse_303" data-name="Ellipse 303" cx="28.42" cy="3.701" rx="28.42" ry="3.701" transform="translate(71.903 175.995)" fill="#6c63ff" opacity="0.1"/>
    <path id="Path_1348" data-name="Path 1348" d="M107.863,354.82h21.771V384.5H109.452c-.052.308-.1.613-.161.919h20.341v23.928l-.1-.038c-.578-.237-1.148-.474-1.712-.725l-.367-.166q-.867-.4-1.712-.86c-.2-.1-.4-.213-.594-.327a35.692,35.692,0,0,1-8.563-6.663c-.073-.071-.142-.147-.211-.218-.346-.377-.687-.76-1.018-1.151l-.367-.436c-.388-.474-.767-.971-1.132-1.468-.054-.073-.107-.147-.161-.218A31.622,31.622,0,0,1,110,390.4c-.031-.071-.057-.149-.085-.22-.3-.751-.566-1.511-.8-2.287-.1-.324-.194-.654-.275-.98-.031-.1-.054-.2-.081-.291a59.25,59.25,0,0,1-1.345-14.606V370.3c0-1.984.024-3.981.057-5.977q.017-.774.033-1.551c.031-1.317.071-2.636.128-3.952.014-.365.031-.732.05-1.094,0-.211.019-.422.033-.632C107.766,356.333,107.811,355.573,107.863,354.82Z" transform="translate(-106.167 -282.272)" fill="#6c63ff" opacity="0.1"/>
    <path id="Path_1349" data-name="Path 1349" d="M162.734,166.633H150.79a90.392,90.392,0,0,1,6.353-8.743c1.774-2.181,3.64-4.3,5.591-6.351Z" transform="translate(-139.267 -127.128)" fill="#b9dddd"/>
    <path id="Path_1350" data-name="Path 1350" d="M131.275,219.091V250.3h-21.7a2.64,2.64,0,0,1,.024-.272c.019-.237.038-.493.059-.736.021-.287.05-.578.076-.867s.059-.625.09-.947.064-.625.1-.935.069-.623.107-.931.073-.623.114-.933c.033-.256.066-.511.1-.77.05-.362.1-.727.156-1.087a1.2,1.2,0,0,1,.024-.161,74.192,74.192,0,0,1,1.6-7.836,57.893,57.893,0,0,1,2.692-7.937,59.255,59.255,0,0,1,4.049-7.814Z" transform="translate(-107.808 -178.667)" fill="#b9dddd"/>
    <path id="Path_1351" data-name="Path 1351" d="M223.157,120.978v29.678h46.5V120.978Zm0,30.594v25.486c.265.054.528.109.791.154.355.069.71.13,1.068.185.069,0,.14.021.211.028.142.024.287.043.429.062.358.05.71.09,1.077.123l.511.045.414.031h0c.225.017.448.031.67.038a3.482,3.482,0,0,1,.414.017h1.52c.185,0,.369,0,.552-.017h.012a2.974,2.974,0,0,0,.384-.017.843.843,0,0,0,.109,0,2.352,2.352,0,0,0,.317-.014h.073l.71-.057c.237-.021.474-.047.71-.073l.488-.059a42.707,42.707,0,0,0,5.889-1.253c4.338-1.21,8.572-2.9,12.917-4.142,5.6-1.6,11.8-2.385,17.215-.438v-20.1Zm46.5-63.634V48.428A59.718,59.718,0,0,0,254.552,50.2c-11.783,2.958-22.349,9.375-31.395,17.57V87.938h2.325v.916H223.15v31.219h46.509V88.854H235.073v-.916ZM329.4,74.592a19.28,19.28,0,0,1-8.43-2.451c-5.008-2.723-9.017-6.931-13.481-10.481A61.894,61.894,0,0,0,274.862,48.7V87.938h66.379l.163-.175Zm6.048-1.082,6.412,7.038v-8.88a25.669,25.669,0,0,0-6.412,1.842Zm6.412,109.874V151.568H328.188c-.036-.135-.073-.272-.116-.41.04.137.076.275.114.41H274.862v23.007q.76.565,1.5,1.184h0c.535.436,1.063.881,1.594,1.326l.533.44c.256.213.514.421.772.632q.774.625,1.56,1.236c.26.206.526.407.789.609a107.769,107.769,0,0,0,13.223,8.648q1.551.862,3.13,1.674,1.051.54,2.115,1.061,1.6.779,3.216,1.508h0a118.175,118.175,0,0,0,31.335,9.112q3.6.53,7.232.836V183.384h0Zm-67-94.529v31.219h67V88.854Zm0,32.124v29.678h67V120.978Zm72.2-49.353v9.927l8.186-8.982Q351.179,71.907,347.061,71.625Zm0,49.353v29.678h65.164V120.978ZM412,185.742l.237-34.17H347.061v51.617a116.951,116.951,0,0,0,12.593-.152h.073q3-.192,5.979-.549h.045a110.061,110.061,0,0,0,30.722-8.215m28.323-68.42q-.369-.867-.76-1.719c-.474-1.063-1-2.115-1.525-3.156h-5.084v29.678h12.853A64.2,64.2,0,0,0,424.8,125.854Zm-7.369,25.714v29.4a42.054,42.054,0,0,0,8.882-11.98,41.275,41.275,0,0,0,3.962-17.414Zm0-39.242v7.748h4.608a83.8,83.8,0,0,0-4.608-7.743ZM373.244,77.45c-.339-.13-.68-.26-1.021-.386a92.608,92.608,0,0,0-11.006-3.315L348.693,87.483h0l-.237.263.161.175h44.556A95.307,95.307,0,0,0,373.244,77.45Zm21.25,11.407H347.975l-.914.836v30.381H412.22V105.345a92.774,92.774,0,0,0-17.736-16.491Z" transform="translate(-194.493 -48.43)" fill="#b9dddd"/>
    <path id="Path_1352" data-name="Path 1352" d="M131.275,285.6v15.465h-21.7a2.642,2.642,0,0,1,.024-.272c.019-.237.038-.492.059-.736.021-.286.05-.578.076-.867s.059-.625.09-.947.064-.625.1-.935.069-.623.107-.931.073-.623.114-.933c.033-.256.066-.512.1-.77.05-.362.1-.727.156-1.087a1.2,1.2,0,0,1,.024-.161,74.192,74.192,0,0,1,1.6-7.836Z" transform="translate(-107.808 -229.435)" fill="#6c63ff" opacity="0.1"/>
    <path id="Path_1353" data-name="Path 1353" d="M107.863,354.82h21.771V384.5H109.452c-.052.308-.1.613-.161.919h20.341v23.928l-.1-.038c-.578-.237-1.148-.474-1.712-.725l-.367-.166q-.867-.4-1.712-.86c-.2-.1-.4-.213-.594-.327a35.692,35.692,0,0,1-8.563-6.663c-.073-.071-.142-.147-.211-.218-.346-.377-.687-.76-1.018-1.151l-.367-.436c-.388-.474-.767-.971-1.132-1.468-.054-.073-.107-.147-.161-.218A31.622,31.622,0,0,1,110,390.4c-.031-.071-.057-.149-.085-.22-.3-.751-.566-1.511-.8-2.287-.1-.324-.194-.654-.275-.98-.031-.1-.054-.2-.081-.291a59.25,59.25,0,0,1-1.345-14.606V370.3c0-1.984.024-3.981.057-5.977q.017-.774.033-1.551c.031-1.317.071-2.636.128-3.952.014-.365.031-.732.05-1.094,0-.211.019-.422.033-.632C107.766,356.333,107.811,355.573,107.863,354.82Z" transform="translate(-106.167 -282.272)" fill="#b1d1e1"/>
    <path id="Path_1354" data-name="Path 1354" d="M137.43,160.423v26.739H121.06V160.423h2.332V151.37h9.583v9.053Z" transform="translate(-92.393 -115.53)" fill="#6c63ff" opacity="0.1"/>
    <rect id="Rectangle_702" data-name="Rectangle 702" width="16.37" height="29.678" transform="translate(28.667 72.548)" fill="#6c63ff" opacity="0.1"/>
    <path id="Path_1355" data-name="Path 1355" d="M223.18,484h16.37v24.681a43.029,43.029,0,0,1-5.887,1.25l-.49.062-.71.073-.71.057h-.073c-.1,0-.211.014-.317.017h-.109c-.13,0-.258.014-.386.017h-.012c-.182,0-.365.014-.552.017h-1.52l-.414-.017c-.22,0-.445-.024-.67-.038h0l-.412-.031-.514-.047c-.36-.033-.71-.073-1.075-.123l-.429-.059a1.256,1.256,0,0,1-.211-.031c-.358-.055-.71-.114-1.068-.182-.265-.047-.528-.1-.793-.156Z" transform="translate(-194.516 -380.862)" fill="#6c63ff" opacity="0.1"/>
    <rect id="Rectangle_703" data-name="Rectangle 703" width="13.5" height="29.896" transform="translate(133.871 41.736)" fill="#6c63ff" opacity="0.1"/>
    <path id="Path_1356" data-name="Path 1356" d="M406.409,306.39v29.678h-67v-12.8H375.1v7.549h17.812V306.39Z" transform="translate(-259.039 -233.842)" fill="#6c63ff" opacity="0.1"/>
    <path id="Path_1357" data-name="Path 1357" d="M508.707,514.505h-.213v19.469q-3.63-.308-7.232-.836A118.2,118.2,0,0,1,469.926,524q-4.317-1.947-8.461-4.243a108.259,108.259,0,0,1-13.232-8.65q-1.582-1.208-3.119-2.475c-.71-.587-1.421-1.184-2.131-1.769-.495-.4-.994-.8-1.5-1.184v-23h53.336l-.111-.41c.04.137.078.272.114.41h13.675v31.811Z" transform="translate(-361.123 -379.542)" fill="#6c63ff" opacity="0.1"/>
    <path id="Path_1358" data-name="Path 1358" d="M844.795,180.234H836V177.5h3.94V169.36c.341.125.682.253,1.021.386V177.5h3.831Z" transform="translate(-662.222 -140.728)" fill="#6c63ff" opacity="0.1"/>
    <path id="Path_1359" data-name="Path 1359" d="M797.63,250.365H754.446l.014.012-.019-.012H746.43v-29.9H748.7v22.1h10.372V229.491h8.572V219.16h8.792v10.331H785v13.074h12.628Z" transform="translate(-593.862 -178.736)" fill="#6c63ff" opacity="0.1"/>
    <path id="Path_1360" data-name="Path 1360" d="M746.43,354.82V384.5h51.2V354.82Zm65.093,64.605.071-23.49H797.623V385.409H746.43v51.622a116.97,116.97,0,0,0,12.593-.152h.073q3-.192,5.979-.549h.045a110.061,110.061,0,0,0,30.722-8.215" transform="translate(-593.862 -282.272)" fill="#6c63ff" opacity="0.1"/>
    <path id="Path_1361" data-name="Path 1361" d="M1044.5,484h11.944a41.274,41.274,0,0,1-3.964,17.412,41.863,41.863,0,0,1-8.88,11.982v-18.87h.9Z" transform="translate(-820.663 -380.862)" fill="#6c63ff" opacity="0.1"/>
    <path id="Path_1362" data-name="Path 1362" d="M1059.351,400.2H1047.4V375.4h6.467A64.181,64.181,0,0,1,1059.351,400.2Z" transform="translate(-823.563 -297.979)" fill="#6c63ff" opacity="0.1"/>
    <rect id="Rectangle_704" data-name="Rectangle 704" width="7.232" height="9.372" transform="translate(140.139 50.045)" fill="#6c63ff" opacity="0.1"/>
    <rect id="Rectangle_705" data-name="Rectangle 705" width="7.232" height="2.157" transform="translate(140.139 69.475)" fill="#6c63ff" opacity="0.1"/>
    <rect id="Rectangle_706" data-name="Rectangle 706" width="7.232" height="6.296" transform="translate(140.139 72.548)" fill="#6c63ff" opacity="0.1"/>
    <rect id="Rectangle_707" data-name="Rectangle 707" width="7.232" height="9.372" transform="translate(140.139 88.901)" fill="#6c63ff" opacity="0.1"/>
    <rect id="Rectangle_708" data-name="Rectangle 708" width="7.232" height="9.372" transform="translate(140.139 108.331)" fill="#6c63ff" opacity="0.1"/>
    <path id="Path_1363" data-name="Path 1363" d="M701.172,595.184l.213.014h-.213v2.176H693.94V588h7.232Z" transform="translate(-553.801 -460.236)" fill="#6c63ff" opacity="0.1"/>
    <path id="Path_1364" data-name="Path 1364" d="M701.172,670v7.239q-3.63-.308-7.232-.836V670Z" transform="translate(-553.801 -522.818)" fill="#6c63ff" opacity="0.1"/>
    <rect id="Rectangle_709" data-name="Rectangle 709" width="30.992" height="0.689" transform="translate(80.371 101.537)" fill="#6c63ff" opacity="0.1"/>
    <rect id="Rectangle_710" data-name="Rectangle 710" width="30.992" height="2.638" transform="translate(80.371 103.142)" fill="#6c63ff" opacity="0.1"/>
    <rect id="Rectangle_711" data-name="Rectangle 711" width="30.992" height="4.243" transform="translate(80.371 114.43)" fill="#6c63ff" opacity="0.1"/>
    <path id="Path_1365" data-name="Path 1365" d="M477.33,586.14v4.241H453.08q-1.582-1.208-3.119-2.474c-.71-.587-1.421-1.184-2.131-1.766Z" transform="translate(-365.969 -458.816)" fill="#6c63ff" opacity="0.1"/>
    <path id="Path_1366" data-name="Path 1366" d="M536.9,640.57v4.246h-2.557q-4.319-1.946-8.461-4.246Z" transform="translate(-425.537 -500.357)" fill="#6c63ff" opacity="0.1"/>
    <rect id="Rectangle_712" data-name="Rectangle 712" width="6.1" height="6.1" transform="translate(165.163 75.425)" fill="#6c63ff" opacity="0.1"/>
    <rect id="Rectangle_713" data-name="Rectangle 713" width="6.1" height="6.1" transform="translate(33.062 46.998)" fill="#6c63ff" opacity="0.1"/>
    <rect id="Rectangle_714" data-name="Rectangle 714" width="6.1" height="6.1" transform="translate(33.062 61.168)" fill="#6c63ff" opacity="0.1"/>
    <rect id="Rectangle_715" data-name="Rectangle 715" width="6.1" height="6.1" transform="translate(33.062 75.34)" fill="#6c63ff" opacity="0.1"/>
    <rect id="Rectangle_716" data-name="Rectangle 716" width="6.1" height="6.1" transform="translate(33.062 89.512)" fill="#6c63ff" opacity="0.1"/>
    <rect id="Rectangle_717" data-name="Rectangle 717" width="6.1" height="6.1" transform="translate(33.062 103.685)" fill="#6c63ff" opacity="0.1"/>
    <rect id="Rectangle_718" data-name="Rectangle 718" width="6.1" height="6.1" transform="translate(33.062 117.857)" fill="#6c63ff" opacity="0.1"/>
    <rect id="Rectangle_719" data-name="Rectangle 719" width="6.1" height="6.1" transform="translate(188.455 75.425)" fill="#6c63ff" opacity="0.1"/>
    <rect id="Rectangle_720" data-name="Rectangle 720" width="6.1" height="6.1" transform="translate(165.163 90.474)" fill="#6c63ff" opacity="0.1"/>
    <rect id="Rectangle_721" data-name="Rectangle 721" width="6.1" height="6.1" transform="translate(188.455 90.474)" fill="#6c63ff" opacity="0.1"/>
    <rect id="Rectangle_722" data-name="Rectangle 722" width="6.1" height="6.1" transform="translate(165.163 105.522)" fill="#6c63ff" opacity="0.1"/>
    <rect id="Rectangle_723" data-name="Rectangle 723" width="6.1" height="6.1" transform="translate(188.455 105.522)" fill="#6c63ff" opacity="0.1"/>
    <rect id="Rectangle_724" data-name="Rectangle 724" width="6.1" height="6.1" transform="translate(165.163 120.571)" fill="#6c63ff" opacity="0.1"/>
    <rect id="Rectangle_725" data-name="Rectangle 725" width="6.1" height="6.1" transform="translate(188.455 120.571)" fill="#6c63ff" opacity="0.1"/>
    <rect id="Rectangle_726" data-name="Rectangle 726" width="6.1" height="6.1" transform="translate(165.163 135.619)" fill="#6c63ff" opacity="0.1"/>
    <rect id="Rectangle_727" data-name="Rectangle 727" width="6.1" height="6.1" transform="translate(188.455 135.619)" fill="#6c63ff" opacity="0.1"/>
    <path id="Path_1367" data-name="Path 1367" d="M697.49,640.223V636.29h6.1v3.374Z" transform="translate(-532.327 -485.623)" fill="#6c63ff" opacity="0.1"/>
    <path id="Path_1368" data-name="Path 1368" d="M113.05,318.72v3.49h20.878v-3.49Zm2.079,3.273h-1.712V318.94h1.712Zm2.079,0H115.5V318.94h1.712Zm2.074,0H117.57V318.94h1.712Zm2.079,0H119.65V318.94h1.712Zm2.077,0h-1.712V318.94h1.712Zm2.079,0h-1.712V318.94h1.712Zm2.079,0h-1.712V318.94H127.6Zm2.077,0h-1.717V318.94h1.712Zm2.077,0h-1.712V318.94h1.707Zm2.077,0h-1.712V318.94h1.712Z" transform="translate(-110.464 -254.72)" fill="#6c63ff" opacity="0.1"/>
    <path id="Path_1369" data-name="Path 1369" d="M113.05,361.63v3.49h20.878v-3.49Zm2.079,3.27h-1.712v-3.05h1.712Zm2.079,0H115.5v-3.05h1.712Zm2.074,0H117.57v-3.05h1.712Zm2.079,0H119.65v-3.05h1.712Zm2.077,0h-1.712v-3.05h1.712Zm2.079,0h-1.712v-3.05h1.712Zm2.079,0h-1.712v-3.05H127.6Zm2.077,0h-1.717v-3.05h1.712Zm2.077,0h-1.712v-3.05h1.707Zm2.077,0h-1.712v-3.05h1.712Z" transform="translate(-110.464 -287.469)" fill="#6c63ff" opacity="0.1"/>
    <path id="Path_1370" data-name="Path 1370" d="M113.05,404.54v3.488h20.878V404.54Zm2.079,3.268h-1.712v-3.05h1.712Zm2.079,0H115.5v-3.05h1.712Zm2.074,0H117.57v-3.05h1.712Zm2.079,0H119.65v-3.05h1.712Zm2.077,0h-1.712v-3.05h1.712Zm2.079,0h-1.712v-3.05h1.712Zm2.079,0h-1.712v-3.05H127.6Zm2.077,0h-1.717v-3.05h1.712Zm2.077,0h-1.712v-3.05h1.707Zm2.077,0h-1.712v-3.05h1.712Z" transform="translate(-110.464 -320.218)" fill="#6c63ff" opacity="0.1"/>
    <path id="Path_1371" data-name="Path 1371" d="M113.05,447.44v3.488h20.878V447.44Zm2.079,3.27h-1.712v-3.052h1.712Zm2.079,0H115.5v-3.052h1.712Zm2.074,0H117.57v-3.052h1.712Zm2.079,0H119.65v-3.052h1.712Zm2.077,0h-1.712v-3.052h1.712Zm2.079,0h-1.712v-3.052h1.712Zm2.079,0h-1.712v-3.052H127.6Zm2.077,0h-1.717v-3.052h1.712Zm2.077,0h-1.712v-3.052h1.707Zm2.077,0h-1.712v-3.052h1.712Z" transform="translate(-110.464 -352.96)" fill="#6c63ff" opacity="0.1"/>
    <path id="Path_1372" data-name="Path 1372" d="M113.43,490.34c.083.329.178.656.277.98v-.76h1.712v3.05h-.907c.026.071.054.147.083.218h19.63V490.34Zm4.068,3.27h-1.712v-3.05H117.5Zm2.074,0H117.86v-3.05h1.712Zm2.079,0H119.94v-3.05h1.712Zm2.077,0h-1.712v-3.05h1.712Zm2.079,0H124.1v-3.05h1.712Zm2.079,0h-1.712v-3.05h1.712Zm2.077,0h-1.717v-3.05h1.712Zm2.077,0h-1.712v-3.05h1.707Zm2.077,0H132.4v-3.05h1.712Z" transform="translate(-110.754 -385.701)" fill="#6c63ff" opacity="0.1"/>
    <path id="Path_1373" data-name="Path 1373" d="M133.9,533.25c.054.069.107.145.161.218H135.2v1.466l.367.438v-1.894h1.712v3.052h-.694c.069.071.135.147.211.218h13.05v-3.5Zm5.446,3.27h-1.712v-3.052h1.712Zm2.079,0h-1.712v-3.052h1.712Zm2.079,0h-1.712v-3.052H143.5Zm2.077,0h-1.712v-3.052h1.712Zm2.077,0h-1.712v-3.052h1.712Zm2.077,0h-1.712v-3.052h1.712Z" transform="translate(-126.377 -418.45)" fill="#6c63ff" opacity="0.1"/>
    <path id="Path_1374" data-name="Path 1374" d="M182.27,576.15c.2.111.4.22.6.324v-.107h1.707v.966l.365.168v-1.134h1.712v1.857a.766.766,0,0,0,.1.038V576.15Z" transform="translate(-163.293 -451.192)" fill="#6c63ff" opacity="0.1"/>
    <path id="Path_1375" data-name="Path 1375" d="M362.594,247.426Zm-13.216,63.305Zm-13.789-32.2c.04.137.076.275.114.41h0c-.033-.147-.071-.284-.114-.422Zm27-31.1ZM233,215.29v.916h9.59v-.916Zm116.379,95.441Zm-13.789-32.2c.04.137.076.275.114.41h0c-.033-.147-.071-.284-.114-.422Zm27-31.1Zm-13.216,63.305Zm-13.789-32.2c.04.137.076.275.114.41h0c-.033-.147-.071-.284-.114-.422Z" transform="translate(-202.01 -175.782)" fill="#6c63ff" opacity="0.1"/>
    <circle id="Ellipse_304" data-name="Ellipse 304" cx="5.122" cy="5.122" r="5.122" transform="translate(189.329 20.197)" fill="#b9dddd"/>
    <circle id="Ellipse_305" data-name="Ellipse 305" cx="4.028" cy="4.028" r="4.028" transform="translate(213.157 33.841)" fill="#b9dddd"/>
    <circle id="Ellipse_306" data-name="Ellipse 306" cx="1.421" cy="1.421" r="1.421" transform="translate(227.031 17.038)" fill="#b9dddd"/>
    <path id="Path_1390" data-name="Path 1390" d="M772.118,552.21a2.7,2.7,0,0,1-1.108,1.267" transform="translate(-612.621 -432.921)" opacity="0.1"/>
    <path id="Path_1391" data-name="Path 1391" d="M919.36,708.17a7.947,7.947,0,0,0,2.131,2.825" transform="translate(-725.843 -551.95)" opacity="0.1"/>
    <path id="Path_1392" data-name="Path 1392" d="M909.12,719.46a4.376,4.376,0,0,0,.294,1.274,1.484,1.484,0,0,0,.931.862" transform="translate(-718.027 -560.566)" opacity="0.1"/>
    <path id="Path_1393" data-name="Path 1393" d="M897.07,435.145s1.381-2.325,2.108-2.325" transform="translate(-708.831 -341.802)" opacity="0.2"/>
    <path id="Path_1394" data-name="Path 1394" d="M898.61,432.476s4.284-4.866,5.3-4.866" transform="translate(-710.006 -337.825)" opacity="0.2"/>
    <path id="Path_1395" data-name="Path 1395" d="M864.56,423.93a1.529,1.529,0,0,1,1.381,1.089" transform="translate(-684.019 -335.017)" opacity="0.2"/>
    <path id="Path_1396" data-name="Path 1396" d="M855.66,422.09s2.617,2.252,2.688,3.194" transform="translate(-677.226 -333.612)" opacity="0.2"/>
    <path id="Path_1397" data-name="Path 1397" d="M883.88,470.86a3.908,3.908,0,0,0,1.38,1.234" transform="translate(-698.764 -370.834)" opacity="0.2"/>
    <path id="Path_1398" data-name="Path 1398" d="M886,461.35s1.234,2.688,1.961,2.688" transform="translate(-700.382 -363.576)" opacity="0.2"/>
    <path id="Path_1399" data-name="Path 1399" d="M899.53,502.45s2.759,3.995,6.1,3.552" transform="translate(-710.708 -394.943)" opacity="0.2"/>
    <path id="Path_1400" data-name="Path 1400" d="M861.029,500s-2.179,2.252-4.139,2.252" transform="translate(-678.165 -393.074)" opacity="0.2"/>
    <path id="Path_1401" data-name="Path 1401" d="M948.68,412.18s4.554,1.852,4.407,3.273" transform="translate(-748.22 -326.049)" opacity="0.2"/>
    <path id="Path_1402" data-name="Path 1402" d="M957.16,408.87s2.986,2.254,3.426,3.332" transform="translate(-754.692 -323.523)" opacity="0.2"/>
    <path id="Path_1403" data-name="Path 1403" d="M821.09,418.8s4.359-.684,4.9-.2" transform="translate(-650.843 -330.819)" opacity="0.2"/>
    <path id="Path_1404" data-name="Path 1404" d="M823.78,410.679s3.673-.294,4.407.237" transform="translate(-652.896 -324.842)" opacity="0.2"/>
    <rect id="Rectangle_728" data-name="Rectangle 728" width="5.411" height="0.104" transform="translate(150.847 100.171)" opacity="0.1"/>
    <path id="Path_1410" data-name="Path 1410" d="M736.557,530.534c-.128,1.568-.961,6.474-6.37,6.37-5.3-.1-5.9-4.736-5.948-6.365-.031.874,0,6.7,5.948,6.817,6.436.123,6.393-6.846,6.393-6.846Z" transform="translate(-573.944 -436.464)" opacity="0.1"/>
    <circle id="Ellipse_308" data-name="Ellipse 308" cx="0.836" cy="0.836" r="0.836" transform="translate(152.466 110.298)" fill="#6c63ff" opacity="0.3"/>
    <circle id="Ellipse_309" data-name="Ellipse 309" cx="0.516" cy="0.516" r="0.516" transform="translate(153.264 107.279)" fill="#6c63ff" opacity="0.3"/>
    <circle id="Ellipse_310" data-name="Ellipse 310" cx="0.516" cy="0.516" r="0.516" transform="translate(152.111 104.298)" fill="#6c63ff" opacity="0.3"/>
    <path id="Path_1411" data-name="Path 1411" d="M727.94,516.476c-.043.35-.036.791.279.947-.279-.116.81-1.691.668-2.01C728.549,514.733,727.976,516.149,727.94,516.476Z" transform="translate(-579.736 -404.697)" fill="#fff" opacity="0.2"/>
    <circle id="Ellipse_311" data-name="Ellipse 311" cx="0.836" cy="0.836" r="0.836" transform="translate(151.372 94.693)" fill="#6c63ff" opacity="0.3"/>
    <circle id="Ellipse_312" data-name="Ellipse 312" cx="0.62" cy="0.62" r="0.62" transform="translate(154.093 93.479)" fill="#6c63ff" opacity="0.3"/>
    <circle id="Ellipse_313" data-name="Ellipse 313" cx="0.322" cy="0.322" r="0.322" transform="translate(152.604 92.105)" fill="#6c63ff" opacity="0.3"/>
    <path id="Path_1412" data-name="Path 1412" d="M402.059,223.63A21.182,21.182,0,0,0,410,225.423c-.017.111-.036.22-.055.327a9.78,9.78,0,0,1-.829,2.581h.17c-3.857,5.811-.651,18.087-.651,18.087s.838,4.582,2.273,9.633c.8,2.8.36,4.369-.182,5.209v.017c-.036.055-.069.111-.1.168v-.083c-3.289,3.876-1.077,5.844-1.077,5.844l1.833,2.295-.159,3.992,1.2.237-.282-3.282,1.12,1.4.237,3.289s5.5.53,9.147,1.184,4.184-1.115,2.569-1.643-3.228-3.76-3.228-3.76a3.893,3.893,0,0,0-.947-.206l-.092-.192c-1.208-2.543-2.849-7.229-2.849-7.229v-.04c-.173-1.939-.448-3.872-.753-5.8-.549-3.462.457-11.963.457-11.963s.36-10.339,1.137-12.69a19.132,19.132,0,0,0,.7-3.661c.021-.18.038-.358.055-.528,6.216.047,13.5-.121,16.824-1.04a23.466,23.466,0,0,1,2.913-.594c-.028.17-.062.35-.1.542a40.73,40.73,0,0,1-1.141,4.459c-1.435,4.582-.838,12.278,1.134,17.8,1.442,4.026,1.035,9.472.71,12.114-.012.109-.026.216-.04.315l-.038-.033a2.207,2.207,0,0,1-.725,1.608,3.708,3.708,0,0,0-1.324,3.438,4.646,4.646,0,0,0,2.017,3.059v5.169h1.137v-5.117c3.706-.881,8.129,5.875,8.129,5.875s6.339.294,11.3.175,1.615-2.29,1.615-2.29c-5.574.175-8.087-2.988-8.087-2.988l-.066.457-.045-.04c-2.086-1.956-4.736-6.822-4.736-6.822a11.61,11.61,0,0,0-.836-3.642c-.656-1.175-.4-13.519-.4-13.519l-.052-20.114v-.53a7.814,7.814,0,0,0,2.328.024c.947-.41.178-6.815-.658-8.4-.523-.99-2.512-7.606-3.933-12.444a13.519,13.519,0,0,0,1.241,1.634c-.9-1.184-5.8-24.729-5.8-24.729l-.168-3.078a16.792,16.792,0,0,0,1.894-3.216c1.932-.218,6.749-1.061,9.384-4.158.611-.71.741-1.229.545-1.579l14.819-3.059,2.87-2.411-8.873,1.639c1.752-3.28-.4-4.471-2.493-4.892l.5-1.558a.73.73,0,0,0-.1-.656h0l-.017-.019-.033-.043a.718.718,0,0,0-.059-.059l-.04-.036a.888.888,0,0,0-.076-.052l-.04-.024a1.072,1.072,0,0,0-.13-.057.77.77,0,0,0-.961.49l-.585,1.814-.251-.014h0l-10.893-.474s-1.733-2.583-2.392-1.821-1.615-.116-1.615-.116,0-5.522-1.435-5.288a1.814,1.814,0,0,1-1.461-.4l-.033-.6s-.237-2.82-.474-5.228c-.218-2.2-4.262-5.131-4.973-5.626l-4.606-6.434a.329.329,0,0,0-.024.038l-.154-.215h0l.021-.135c.021-.111.038-.22.059-.331a9.056,9.056,0,0,0,2.721.417,8.8,8.8,0,0,0,8.878-8.724,8.548,8.548,0,0,0-.637-3.251c-.017-.043-.036-.083-.052-.126a2.541,2.541,0,0,0,1.454-.147,1.069,1.069,0,0,0,.286-.187c1.234-1.17-1.636-4.075-2.155-5.117-.429-.857-.642-1.816-1.153-2.626a4.7,4.7,0,0,0-.985-1.1c.028.043.059.085.088.13s.019.036.031.052a7.435,7.435,0,0,0-2.6-1.44c-3.519-1.184-10.954-2.922-13.173.014a6.778,6.778,0,0,1-1.407,1.658,10.584,10.584,0,0,1-1.523.675,5.726,5.726,0,0,0-2.806,3.552c-.485,1.475-.625,3.012-.978,4.5a32.865,32.865,0,0,1-2.034,5.553c-.933,2.131-1.923,4.35-3.718,5.861-2.451,2.063-3,4.973-5.269,7.234-2.7,2.685-2.6,7.1-1.219,10.63a2.92,2.92,0,0,1,.317,1.435,2.749,2.749,0,0,1-.8,1.328l-1.473,1.634a8.217,8.217,0,0,0,5.546-.71,8.87,8.87,0,0,0,1.016-.592l-.014.41c-.111,3.552-.045,6.334-.045,6.334,1.854,3-2.988,27.082-2.988,27.082C403.432,194.492,402.059,223.63,402.059,223.63Zm39.325-54.011c-.189-.012-.386-.021-.587-.028v-.057Zm5.065.59-.438.438c-.926.152-1.565.289-1.565.289l-.916.206a2.6,2.6,0,0,0-.459-1.205.67.67,0,0,0-.265-.128C444,169.958,445.244,170.09,446.449,170.209Z" transform="translate(-330.267 -96.692)" fill="url(#linear-gradient)"/>
    <path id="Path_1413" data-name="Path 1413" d="M344.779,728.155l.35,4.156-1.17-.234.175-4.506Z" transform="translate(-262.511 -555.288)" fill="#1d2366"/>
    <path id="Path_1414" data-name="Path 1414" d="M556.193,614.975c1.421,4.026,1.011,9.439.694,12.077-.118.973-.237,1.568-.237,1.568s2.108,4.8,2.283,4.973,6.207,3.865,6.207,3.865l4.215,2.458s4.274-1.873,2.224-2.517a3.081,3.081,0,0,1-1.1-.755c-2.043-1.949-4.634-6.8-4.634-6.8a11.733,11.733,0,0,0-.817-3.628c-.642-1.17-.412-13.467-.412-13.467l-.05-20.045v-2.6l-8.023.059a18.336,18.336,0,0,1-.346,2.64,40.43,40.43,0,0,1-1.118,4.445C553.676,601.8,554.261,609.472,556.193,614.975Z" transform="translate(-447.231 -461.838)" fill="#ffb0b1"/>
    <path id="Path_1415" data-name="Path 1415" d="M564.26,747.682s2.107,4.8,2.283,4.973,6.206,3.865,6.206,3.865l4.215,2.458s4.274-1.873,2.224-2.517a3.079,3.079,0,0,1-1.1-.755l-.182,1.281-1.407-.057-12.01-10.819C564.367,747.088,564.26,747.682,564.26,747.682Z" transform="translate(-454.829 -580.906)" opacity="0.1"/>
    <path id="Path_1416" data-name="Path 1416" d="M558.241,747.31,570.318,758.2l1.4.059.294-2.051s2.458,3.161,7.9,2.986c0,0,3.277,2.167-1.582,2.283s-11.063-.175-11.063-.175-4.333-6.732-7.963-5.854v5.094H558.2v-5.155a4.63,4.63,0,0,1-1.975-3.05,3.739,3.739,0,0,1,1.3-3.427A2.214,2.214,0,0,0,558.241,747.31Z" transform="translate(-448.663 -581.821)" fill="#1d2366"/>
    <path id="Path_1417" data-name="Path 1417" d="M433.75,620.54c.777,2.785.353,4.355-.18,5.2a.063.063,0,0,0,0,.017,9.617,9.617,0,0,0-1.4,3.422l-.047.263,5.5,8.02,2.977,1.172s4.8-1.639,3.921-2.108a4.442,4.442,0,0,1-.947-1.565c-1.184-2.536-2.794-7.215-2.794-7.215v-.038c-.168-1.935-.438-3.86-.739-5.778-.538-3.45.45-11.923.45-11.923s.35-10.3,1.113-12.647a19.558,19.558,0,0,0,.682-3.647c.161-1.473.2-2.676.2-2.676s-3.161-4.39-8.958.353a6.46,6.46,0,0,0-1.21,1.314c-4,5.695-.781,18.233-.781,18.233S432.344,615.506,433.75,620.54Z" transform="translate(-352.595 -461.139)" fill="#ffb0b1"/>
    <path id="Path_1418" data-name="Path 1418" d="M437.93,747.015l5.5,8.02,2.986,1.172s4.8-1.639,3.921-2.108a4.443,4.443,0,0,1-.947-1.565,3.771,3.771,0,0,0-3.078,1.918l-2.576-.409s-3.4-6.675-4.156-7.083-.118-3.048-.118-3.048v-.672l-.062.076a.057.057,0,0,0,0,.016,9.619,9.619,0,0,0-1.4,3.422Z" transform="translate(-358.414 -578.715)" opacity="0.1"/>
    <path id="Path_1419" data-name="Path 1419" d="M444.759,755.228a3.571,3.571,0,0,1,4.262-1.7s1.582,3.22,3.161,3.746,1.056,2.285-2.517,1.641-8.946-1.16-8.946-1.16l-.237-3.277-3.63-4.625s-2.167-1.963,1.054-5.825v.673s-.644,2.633.116,3.045,4.158,7.083,4.158,7.083Z" transform="translate(-357.047 -579.318)" fill="#1d2366"/>
    <path id="Path_1420" data-name="Path 1420" d="M562.646,590.152a18.341,18.341,0,0,1-.346,2.64,37.263,37.263,0,0,1,8.375-.088v-2.6Z" transform="translate(-453.333 -461.838)" opacity="0.1"/>
    <path id="Path_1421" data-name="Path 1421" d="M437.43,593.426s4.7.237,10.284.275c.161-1.473.2-2.676.2-2.676s-3.161-4.39-8.958.353a6.46,6.46,0,0,0-1.21,1.314A7.306,7.306,0,0,1,437.43,593.426Z" transform="translate(-358.032 -461.132)" opacity="0.1"/>
    <path id="Path_1422" data-name="Path 1422" d="M437.43,427.335s20.549.995,26.813-.76,12.47-.237,13.407-.646.175-6.791-.644-8.371-5.328-17.563-5.328-17.563l-4.333-22.6-4.565-1.26-.322-.09-7.956-2.2-5.83-1.608s-11.579,45.259-10.6,48.6a8.537,8.537,0,0,1,.168,3.928A9.873,9.873,0,0,1,437.43,427.335Z" transform="translate(-358.032 -295.567)" fill="#1d2366"/>
    <path id="Path_1423" data-name="Path 1423" d="M614.156,328.75s4.1,4.39.995,6.85-5.15.237-5.15.237Z" transform="translate(-489.738 -262.375)" fill="#c7daf5"/>
    <path id="Path_1424" data-name="Path 1424" d="M614.156,328.75s4.1,4.39.995,6.85-5.15.237-5.15.237Z" transform="translate(-489.738 -262.375)" opacity="0.1"/>
    <path id="Path_1425" data-name="Path 1425" d="M487.49,180.768s.474.455,1.205,1.132c1.032.964,2.56,2.368,3.914,3.552,1.878,1.634,3.424,2.842,2.872,1.809s-.45-2.806-.173-4.475c.019-.111.036-.22.057-.331a30.834,30.834,0,0,1,.907-3.623,62.523,62.523,0,0,0-4.71-5.465c-.625-.578-1.061-.824-1.087-.419a14.232,14.232,0,0,1-.947,3.045l-.047.121c-.343.871-.725,1.781-1.063,2.562C487.9,179.875,487.49,180.768,487.49,180.768Z" transform="translate(-396.238 -143.313)" fill="#ffb0b1"/>
    <path id="Path_1426" data-name="Path 1426" d="M495.89,176.154a8.7,8.7,0,0,0,5.83,6.673,30.1,30.1,0,0,1,.964-3.955s-5.709-7.376-5.8-5.884A14.457,14.457,0,0,1,495.89,176.154Z" transform="translate(-402.649 -143.345)" opacity="0.1"/>
    <path id="Path_1427" data-name="Path 1427" d="M507.043,220.14l-.739-1.04s-.49,2.986-2.29,1.669-1.894,9.908-1.894,9.908l1.932,28.889,13.971-.834-.4-13.971-1.582-7.023-3.907-10.232-2.328-3.381Z" transform="translate(-407.404 -178.69)" opacity="0.1"/>
    <path id="Path_1428" data-name="Path 1428" d="M502.14,231.364l1.748,26.123.185,2.768,7.786-.474.308-.019,5.87-.35-.4-13.971-1.582-7.023-3.907-10.232-2.328-3.379-2.766-4-.739-1.04s-.49,2.986-2.29,1.658l-.038-.026h0C502.228,220.3,502.14,231.364,502.14,231.364Z" transform="translate(-407.419 -179.201)" fill="#1d2366"/>
    <path id="Path_1429" data-name="Path 1429" d="M552.314,288.2a2.153,2.153,0,0,0,2.108,1.229c1.4-.234,1.4,5.271,1.4,5.271s.947.876,1.582.116,2.342,1.814,2.342,1.814l10.656.474s-4.736,2.167-3.805,8.724c0,0-16.1-.995-16.625-2.517S552.314,288.2,552.314,288.2Z" transform="translate(-443.877 -231.427)" fill="#fff"/>
    <path id="Path_1430" data-name="Path 1430" d="M552.314,288.2a2.153,2.153,0,0,0,2.108,1.229c1.4-.234,1.4,5.271,1.4,5.271s.947.876,1.582.116,2.342,1.814,2.342,1.814l10.656.474s-4.736,2.167-3.805,8.724c0,0-16.1-.995-16.625-2.517S552.314,288.2,552.314,288.2Z" transform="translate(-443.877 -231.427)" opacity="0.03"/>
    <path id="Path_1431" data-name="Path 1431" d="M505.126,291.94l-2.811,2.4L479.19,299.2l2.87-2.927Z" transform="translate(-365.719 -222.814)" fill="#fff"/>
    <path id="Path_1432" data-name="Path 1432" d="M520.25,218.458a58.547,58.547,0,0,1,2.4,6.211c.765,2.186,1.407,4.094,1.407,4.094s1.492,9.709,2.252,11.473.353,8.608.353,8.608l2.841,16.919s1.286,8.726,3.275,13.935a25.259,25.259,0,0,0,4.213,7.608c-.878-1.184-5.683-24.643-5.683-24.643l-1.58-29.566s-.237-2.811-.474-5.21-4.973-5.683-4.973-5.683l-4.58-6.514C519.241,216.332,519.549,217.4,520.25,218.458Z" transform="translate(-420.656 -176.087)" fill="#fff"/>
    <path id="Path_1433" data-name="Path 1433" d="M572.03,366.925s6.732-.294,10.012-4.215-7.554-1.582-7.554-1.582l-2.808.644Z" transform="translate(-460.492 -286.558)" fill="#ffb0b1"/>
    <path id="Path_1434" data-name="Path 1434" d="M439.959,309.536a8.536,8.536,0,0,1,.168,3.928A55.8,55.8,0,0,0,455.356,312a34.18,34.18,0,0,0,5.328,3.336l2.107-26.112c1.345-3.512,1.873-21.953,1.873-21.953s-.121-.966-.308-2.411a.288.288,0,0,0-.014-.109c-.526-4.037-1.565-11.62-2.077-12.643-.71-1.4,2.164-5.15,2.164-5.15l-1.3-11.129-.159-1.34c-2.752-1.231-4.859-5.155-4.859-5.155l-1.617-2.842h0c-1.762-1.13-1.849,9.945-1.849,9.945l1.748,26.123-5.83-1.608S438.977,306.2,439.959,309.536Z" transform="translate(-359.917 -184.268)" opacity="0.1"/>
    <path id="Path_1435" data-name="Path 1435" d="M408.26,288.877c8.018,3.981,22.6.294,22.6.294a34.374,34.374,0,0,0,5.328,3.336l2.108-26.112c1.345-3.512,1.873-21.953,1.873-21.953s-1.7-13.758-2.4-15.155a2.273,2.273,0,0,1,.137-1.677,21.235,21.235,0,0,0,1.286-9.822L438.627,213l-.159-1.343c-2.752-1.229-4.859-5.153-4.859-5.153l-1.468-2.569-2.7-4.736-1.279-2.24-.215.2-1.658,1.5s-.71.578-1.757,1.471c-2.3,1.937-6.266,5.342-8.312,7.426-1.8,1.838-2.368,8.977-2.534,14.352-.109,3.542-.043,6.318-.043,6.318,1.816,2.986-2.927,26.995-2.927,26.995C409.6,259.839,408.26,288.877,408.26,288.877Z" transform="translate(-335.769 -161.793)" fill="#fff"/>
    <path id="Path_1436" data-name="Path 1436" d="M447.735,235.674s5.5,10.478,4.859,14.459-2.46,8.489-1.582,9.543a3.239,3.239,0,0,0,2.576,1.3,8.472,8.472,0,0,1,3.22,1.873c0,.175,2.167.175,4.1.995a25.616,25.616,0,0,0,4.8,1.288s5.562-.175,6.088.353,1.054,3.687-.059,6.2-2.342,4.393-3.277,4.736-6.85-1.639-11.65-2.108-10.012-4.274-10.012-4.274-5.738-2.048-6.732-5.5,1.229-22.422,1.229-22.422S442.992,233.28,447.735,235.674Z" transform="translate(-359.848 -191.025)" opacity="0.03"/>
    <path id="Path_1437" data-name="Path 1437" d="M450.725,231.987s5.5,10.478,4.861,14.459-2.46,8.489-1.582,9.543a3.239,3.239,0,0,0,2.583,1.288,8.472,8.472,0,0,1,3.22,1.873c0,.175,2.164.175,4.1,1a25.424,25.424,0,0,0,4.8,1.288s5.56-.178,6.088.35,1.054,3.687-.059,6.206-2.342,4.39-3.277,4.736-6.85-1.639-11.65-2.107-10.012-4.274-10.012-4.274-5.738-2.048-6.732-5.5,1.229-22.422,1.229-22.422S445.984,229.586,450.725,231.987Z" transform="translate(-362.137 -188.209)" opacity="0.03"/>
    <path id="Path_1438" data-name="Path 1438" d="M448.453,233.468s5.5,10.481,4.859,14.461-2.458,8.489-1.582,9.543a3.239,3.239,0,0,0,2.576,1.288,8.412,8.412,0,0,1,3.22,1.873c0,.178,2.167.175,4.1.995a25.618,25.618,0,0,0,4.8,1.288s5.562-.175,6.088.35,1.054,3.689-.057,6.206-2.342,4.39-3.28,4.736-6.851-1.639-11.65-2.107-10.012-4.262-10.012-4.262-5.735-2.051-6.732-5.5,1.234-22.427,1.234-22.427S443.717,231.066,448.453,233.468Z" transform="translate(-360.396 -189.34)" fill="#fff"/>
    <path id="Path_1439" data-name="Path 1439" d="M470.511,352.627s4.393-.879,2.87.585-1.523,2.752-3.4,2.695S470.511,352.627,470.511,352.627Z" transform="translate(-382.333 -280.399)" opacity="0.1"/>
    <path id="Path_1440" data-name="Path 1440" d="M433.006,486.73s1.989,1.347-1.816,4.449S433.006,486.73,433.006,486.73Z" transform="translate(-352.261 -382.946)" opacity="0.1"/>
    <path id="Path_1441" data-name="Path 1441" d="M450.313,533.46c0,.175.71,6.439-1.932,8.02S450.313,533.46,450.313,533.46Z" transform="translate(-365.762 -418.61)" opacity="0.1"/>
    <path id="Path_1442" data-name="Path 1442" d="M625.124,325.76c2.131.071,6.711.71,4.331,5.157-2.1,3.926-5.636,1.3-7.615-.689A7.5,7.5,0,0,1,625.124,325.76Z" transform="translate(-498.774 -260.093)" fill="#ffb0b1"/>
    <path id="Path_1443" data-name="Path 1443" d="M620.89,343.66Z" transform="translate(-498.049 -273.754)" fill="#ffb0b1"/>
    <path id="Path_1444" data-name="Path 1444" d="M621.408,344.19l-.088-.09Z" transform="translate(-498.377 -274.09)" fill="#ffb0b1"/>
    <path id="Path_1445" data-name="Path 1445" d="M477,200.881c2.252,1.539,4.142,2.842,4.5,3.109,1.011.746,2.943,5.138,4.172,7.376.99,1.8,4.2,2.269,5.413,2.382l-.159-1.343c-2.747-1.229-4.854-5.155-4.854-5.155l-5.446-9.541-1.873,1.7S478.049,199.99,477,200.881Z" transform="translate(-388.232 -162.365)" opacity="0.1"/>
    <path id="Path_1446" data-name="Path 1446" d="M477,200.141c2.252,1.539,4.142,2.842,4.5,3.109,1.011.746,2.943,5.136,4.172,7.376.99,1.8,4.2,2.269,5.413,2.382l-.159-1.343c-2.751-1.229-4.859-5.153-4.859-5.153l-5.446-9.543-1.873,1.7S478.049,199.248,477,200.141Z" transform="translate(-388.232 -161.8)" fill="#dce7ff"/>
    <path id="Path_1447" data-name="Path 1447" d="M495.28,150.783a8.657,8.657,0,1,0,2.536-6.158A8.7,8.7,0,0,0,495.28,150.783Z" transform="translate(-402.183 -119.915)" fill="#ffb0b1"/>
    <path id="Path_1448" data-name="Path 1448" d="M431.18,179.943a7.706,7.706,0,0,0,2.8-3.014,7.878,7.878,0,0,1,1.658-2.773,7.428,7.428,0,0,1,2.7-1.04,7.921,7.921,0,0,0,5.768-6.943c.045-1.511-.426-3.022-.213-4.518a5,5,0,0,1,.983-2.332,7.89,7.89,0,0,1,.845-.912c.412-.388.841-.762,1.215-1.184a4.581,4.581,0,0,0,.62-.836,4.1,4.1,0,0,0,.336-.779c.573-1.793.052-3.921.7-5.738l.036-.1a1.864,1.864,0,0,1,1.421-1.34c.682-.052,1.281.521,1.939.779,1.373.533,2.858-.374,4-1.3s2.441-1.987,3.9-1.778a12.227,12.227,0,0,1,2.6,1.134,4.053,4.053,0,0,0,.62.178,8.7,8.7,0,0,0-16.576,5.056l-.047.121c-.343.871-.725,1.781-1.063,2.562l-1.658,1.5s-.71.578-1.757,1.47c-2.3,1.937-6.266,5.342-8.312,7.426C431.914,167.428,431.346,174.568,431.18,179.943Z" transform="translate(-353.262 -119.824)" opacity="0.1"/>
    <path id="Path_1449" data-name="Path 1449" d="M442.009,120.561c-.419-.855-.628-1.809-1.13-2.619a6.117,6.117,0,0,0-3.339-2.368c-3.445-1.184-10.727-2.913-12.9.014a6.476,6.476,0,0,1-1.376,1.643,9.965,9.965,0,0,1-1.492.673,5.7,5.7,0,0,0-2.747,3.528c-.474,1.459-.611,3-.947,4.5a33.128,33.128,0,0,1-1.994,5.534c-.912,2.131-1.88,4.336-3.64,5.842-2.4,2.055-2.941,4.959-5.16,7.208-2.64,2.678-2.555,7.09-1.184,10.592a2.917,2.917,0,0,1,.31,1.421,2.8,2.8,0,0,1-.779,1.324l-1.442,1.629a8.109,8.109,0,0,0,8.863-4.089,7.925,7.925,0,0,1,1.658-2.771,7.37,7.37,0,0,1,2.7-1.04,7.918,7.918,0,0,0,5.766-6.943c.047-1.511-.424-3.022-.211-4.518a5.023,5.023,0,0,1,.98-2.332c.807-1.051,2.027-1.771,2.681-2.924,1.113-1.961.268-4.5,1.07-6.616a1.86,1.86,0,0,1,1.421-1.34c.682-.05,1.281.523,1.937.779,1.373.533,2.861-.374,4-1.3s2.441-1.987,3.9-1.778a12.229,12.229,0,0,1,2.6,1.134c.658.253,1.991.474,2.567-.076C445.326,124.495,442.506,121.6,442.009,120.561Z" transform="translate(-332.663 -98.46)" fill="#591d4b"/>
    <path id="Path_1450" data-name="Path 1450" d="M412.345,163.545A7.868,7.868,0,0,1,414,160.774a7.37,7.37,0,0,1,2.7-1.04,7.918,7.918,0,0,0,5.766-6.943c.047-1.511-.426-3.024-.211-4.518a4.986,4.986,0,0,1,.98-2.332c.807-1.054,2.027-1.771,2.68-2.927,1.113-1.958.268-4.5,1.068-6.614a1.86,1.86,0,0,1,1.421-1.34c.68-.05,1.281.521,1.937.777,1.373.535,2.858-.372,4-1.3s2.441-1.987,3.9-1.781a12.122,12.122,0,0,1,2.6,1.137c.658.251,1.989.474,2.567-.076,1.208-1.165-1.6-4.061-2.11-5.1a28.318,28.318,0,0,0-1.13-2.619c-.028-.045-.059-.088-.088-.13a4.645,4.645,0,0,1,.966,1.1,28.291,28.291,0,0,1,1.127,2.619c.509,1.037,3.315,3.933,2.11,5.1-.575.554-1.894.327-2.565.073a12.83,12.83,0,0,0-2.6-1.134c-1.459-.206-2.756.852-3.9,1.781s-2.631,1.835-4,1.3c-.658-.256-1.234-.829-1.937-.779a1.83,1.83,0,0,0-1.421,1.343c-.8,2.105.043,4.655-1.068,6.614-.656,1.156-1.873,1.873-2.681,2.927a5.016,5.016,0,0,0-.983,2.332c-.213,1.494.261,3.007.213,4.518a7.915,7.915,0,0,1-5.766,6.943,7.329,7.329,0,0,0-2.7,1.04,7.939,7.939,0,0,0-1.658,2.771,8.106,8.106,0,0,1-8.863,4.087l.68-.767A8.158,8.158,0,0,0,412.345,163.545Z" transform="translate(-332.793 -107.613)" opacity="0.1"/>
    <path id="Path_1451" data-name="Path 1451" d="M521,219.2a58.986,58.986,0,0,1,2.4,6.209c.857-.332,1.638-2.463,1.638-2.463l-4.582-6.517C519.989,217.074,520.3,218.147,521,219.2Z" transform="translate(-421.228 -176.652)" opacity="0.1"/>
    <path id="Path_1452" data-name="Path 1452" d="M520.257,218.458a58.529,58.529,0,0,1,2.4,6.211c.86-.331,1.639-2.465,1.639-2.465l-4.58-6.514C519.248,216.332,519.556,217.4,520.257,218.458Z" transform="translate(-420.663 -176.087)" fill="#dce7ff"/>
    <path id="Path_1453" data-name="Path 1453" d="M630.6,324.946l2.541-8a.753.753,0,0,0-.488-.947h0a.748.748,0,0,0-.947.488L629.17,324.5l.254,1.674Z" transform="translate(-504.369 -252.616)" fill="#be8b87"/>
    <path id="Path_1454" data-name="Path 1454" d="M632.9,316.265h0a.748.748,0,0,0-.947.485l-2.541,8,.192,1.257-.185.192-.246-1.672,2.539-8a.748.748,0,0,1,.947-.488h0a.748.748,0,0,1,.388.287A.671.671,0,0,0,632.9,316.265Z" transform="translate(-504.369 -252.647)" fill="#fff" opacity="0.1"/>
    <path id="Path_1455" data-name="Path 1455" d="M528.468,304.012l-1.428-.452.208,1.373.045.3.417-.433Z" transform="translate(-402.239 -231.682)" fill="#efc8c4"/>
    <path id="Path_1456" data-name="Path 1456" d="M630.512,356.913a.351.351,0,0,0-.092-.076.13.13,0,0,0-.137,0,.443.443,0,0,0-.05.078.249.249,0,0,1-.182.123l.045.3Z" transform="translate(-505.04 -283.796)" fill="#727a9c"/>
    <path id="Path_1457" data-name="Path 1457" d="M632.863,332.09s-5.094-.031-3.893,2.131a4.612,4.612,0,0,0,3.078,2.43Z" transform="translate(-504.076 -264.924)" fill="#ffb0b1"/>
    <path id="Path_1458" data-name="Path 1458" d="M180.595,681.41s1.688,2.209-.779,5.543-4.5,6.157-3.685,8.231c0,0,3.727-6.195,6.758-6.28S183.931,685.135,180.595,681.41Z" transform="translate(-158.469 -531.526)" fill="#ff5124"/>
    <path id="Path_1459" data-name="Path 1459" d="M180.894,681.41a2.723,2.723,0,0,1,.346.691c2.958,3.476,4.535,6.72,1.691,6.8-2.65.076-5.828,4.812-6.59,6.008.026.092.057.185.09.272,0,0,3.727-6.195,6.758-6.28S184.23,685.135,180.894,681.41Z" transform="translate(-158.767 -531.526)" opacity="0.1"/>
    <path id="Path_1460" data-name="Path 1460" d="M207.578,691.691c0,.777-.088,1.407-.194,1.407s-.194-.63-.194-1.407.109-.412.215-.412S207.578,690.909,207.578,691.691Z" transform="translate(-182.312 -538.992)" fill="#ffd037"/>
    <path id="Path_1461" data-name="Path 1461" d="M209.087,695.5c-.682.372-1.276.6-1.328.5s.459-.474,1.144-.845.412-.1.474,0S209.771,695.128,209.087,695.5Z" transform="translate(-182.743 -541.873)" fill="#ffd037"/>
    <path id="Path_1462" data-name="Path 1462" d="M145.656,681.41s-1.688,2.209.779,5.543,4.5,6.157,3.682,8.231c0,0-3.725-6.195-6.758-6.28S142.32,685.135,145.656,681.41Z" transform="translate(-132.455 -531.526)" fill="#ff5124"/>
    <path id="Path_1463" data-name="Path 1463" d="M145.653,681.41a2.724,2.724,0,0,0-.346.691c-2.958,3.476-4.535,6.72-1.691,6.8,2.65.076,5.828,4.812,6.59,6.008a2.618,2.618,0,0,1-.092.272s-3.722-6.195-6.758-6.28S142.316,685.135,145.653,681.41Z" transform="translate(-132.451 -531.526)" opacity="0.1"/>
    <path id="Path_1464" data-name="Path 1464" d="M144.62,691.691c0,.777.088,1.407.194,1.407s.194-.63.194-1.407-.109-.412-.215-.412S144.62,690.909,144.62,691.691Z" transform="translate(-134.559 -538.992)" fill="#ffd037"/>
    <path id="Path_1465" data-name="Path 1465" d="M138.7,695.5c.682.372,1.276.6,1.328.5s-.459-.474-1.144-.845-.412-.1-.474,0S138.018,695.128,138.7,695.5Z" transform="translate(-129.718 -541.873)" fill="#ffd037"/>
    <ellipse id="Ellipse_314" data-name="Ellipse 314" cx="17.665" cy="2.711" rx="17.665" ry="2.711" transform="translate(0 175.14)" fill="#6c63ff" opacity="0.1"/>
    <path id="Path_1466" data-name="Path 1466" d="M156.5,723.672l-.085.689-.118.976-.05.4-.118.976-.05.407-.118.973-1.352,11.082c-.121.99-1.738,1.76-3.687,1.76H143.9c-1.951,0-3.552-.77-3.685-1.76L138.858,728.1l-.118-.973-.05-.407-.121-.976-.047-.4-.118-.976-.085-.689c-.069-.561.805-1.032,1.911-1.032h14.364C155.694,722.642,156.57,723.114,156.5,723.672Z" transform="translate(-129.746 -562.993)" fill="#329d9c"/>
    <path id="Path_1467" data-name="Path 1467" d="M54.575,681.5l-.118.973H36.678l-.118-.973Z" transform="translate(-27.903 -520.127)" fill="#9d9cb5"/>
    <path id="Path_1468" data-name="Path 1468" d="M54.949,687.33l-.118.976H37.391l-.121-.976Z" transform="translate(-28.445 -524.576)" fill="#9d9cb5"/>
    <path id="Path_1469" data-name="Path 1469" d="M55.321,693.16l-.118.973H38.1l-.118-.973Z" transform="translate(-28.986 -529.026)" fill="#9d9cb5"/>
  </g>
</svg>
